<svg width="126" height="40" viewBox="0 0 126 40" fill="none" xmlns="http://www.w3.org/2000/svg">
<rect width="20" height="40" rx="4" fill="#DB4444"/>
<path d="M36.56 20.4C36.56 19.3013 36.8053 18.32 37.296 17.456C37.7973 16.5813 38.4747 15.904 39.328 15.424C40.192 14.9333 41.1573 14.688 42.224 14.688C43.472 14.688 44.5653 15.008 45.504 15.648C46.4427 16.288 47.0987 17.1733 47.472 18.304H44.896C44.64 17.7707 44.2773 17.3707 43.808 17.104C43.3493 16.8373 42.816 16.704 42.208 16.704C41.5573 16.704 40.976 16.8587 40.464 17.168C39.9627 17.4667 39.568 17.8933 39.28 18.448C39.0027 19.0027 38.864 19.6533 38.864 20.4C38.864 21.136 39.0027 21.7867 39.28 22.352C39.568 22.9067 39.9627 23.3387 40.464 23.648C40.976 23.9467 41.5573 24.096 42.208 24.096C42.816 24.096 43.3493 23.9627 43.808 23.696C44.2773 23.4187 44.64 23.0133 44.896 22.48H47.472C47.0987 23.6213 46.4427 24.512 45.504 25.152C44.576 25.7813 43.4827 26.096 42.224 26.096C41.1573 26.096 40.192 25.856 39.328 25.376C38.4747 24.8853 37.7973 24.208 37.296 23.344C36.8053 22.48 36.56 21.4987 36.56 20.4ZM48.8092 21.536C48.8092 20.64 48.9852 19.8453 49.3372 19.152C49.6999 18.4587 50.1853 17.9253 50.7933 17.552C51.4119 17.1787 52.0999 16.992 52.8573 16.992C53.5186 16.992 54.0946 17.1253 54.5853 17.392C55.0866 17.6587 55.4866 17.9947 55.7853 18.4V17.136H58.0413V26H55.7853V24.704C55.4973 25.12 55.0973 25.4667 54.5853 25.744C54.0839 26.0107 53.5026 26.144 52.8413 26.144C52.0946 26.144 51.4119 25.952 50.7933 25.568C50.1853 25.184 49.6999 24.6453 49.3372 23.952C48.9852 23.248 48.8092 22.4427 48.8092 21.536ZM55.7853 21.568C55.7853 21.024 55.6786 20.56 55.4653 20.176C55.2519 19.7813 54.9639 19.4827 54.6013 19.28C54.2386 19.0667 53.8493 18.96 53.4333 18.96C53.0173 18.96 52.6333 19.0613 52.2812 19.264C51.9293 19.4667 51.6413 19.7653 51.4173 20.16C51.2039 20.544 51.0973 21.0027 51.0973 21.536C51.0973 22.0693 51.2039 22.5387 51.4173 22.944C51.6413 23.3387 51.9293 23.6427 52.2812 23.856C52.6439 24.0693 53.0279 24.176 53.4333 24.176C53.8493 24.176 54.2386 24.0747 54.6013 23.872C54.9639 23.6587 55.2519 23.36 55.4653 22.976C55.6786 22.5813 55.7853 22.112 55.7853 21.568ZM62.837 18.976V23.264C62.837 23.5627 62.9063 23.7813 63.045 23.92C63.1943 24.048 63.4397 24.112 63.781 24.112H64.821V26H63.413C61.525 26 60.581 25.0827 60.581 23.248V18.976H59.525V17.136H60.581V14.944H62.837V17.136H64.821V18.976H62.837ZM74.6721 21.376C74.6721 21.696 74.6508 21.984 74.6081 22.24H68.1281C68.1815 22.88 68.4055 23.3813 68.8001 23.744C69.1948 24.1067 69.6801 24.288 70.2561 24.288C71.0881 24.288 71.6801 23.9307 72.0321 23.216H74.4481C74.1921 24.0693 73.7015 24.7733 72.9761 25.328C72.2508 25.872 71.3601 26.144 70.3041 26.144C69.4508 26.144 68.6828 25.9573 68.0001 25.584C67.3281 25.2 66.8001 24.6613 66.4161 23.968C66.0428 23.2747 65.8561 22.4747 65.8561 21.568C65.8561 20.6507 66.0428 19.8453 66.4161 19.152C66.7895 18.4587 67.3121 17.9253 67.9841 17.552C68.6561 17.1787 69.4295 16.992 70.3041 16.992C71.1468 16.992 71.8988 17.1733 72.5601 17.536C73.2321 17.8987 73.7495 18.416 74.1121 19.088C74.4855 19.7493 74.6721 20.512 74.6721 21.376ZM72.3521 20.736C72.3415 20.16 72.1335 19.7013 71.7281 19.36C71.3228 19.008 70.8268 18.832 70.2401 18.832C69.6855 18.832 69.2161 19.0027 68.8321 19.344C68.4588 19.6747 68.2295 20.1387 68.1441 20.736H72.3521ZM79.7791 16.992C80.4405 16.992 81.0218 17.1253 81.5231 17.392C82.0245 17.648 82.4191 17.984 82.7071 18.4V17.136H84.9631V26.064C84.9631 26.8853 84.7978 27.616 84.4671 28.256C84.1365 28.9067 83.6405 29.4187 82.9791 29.792C82.3178 30.176 81.5178 30.368 80.5791 30.368C79.3205 30.368 78.2858 30.0747 77.4751 29.488C76.6751 28.9013 76.2218 28.1013 76.1151 27.088H78.3391C78.4565 27.4933 78.7071 27.8133 79.0911 28.048C79.4858 28.2933 79.9605 28.416 80.5151 28.416C81.1658 28.416 81.6938 28.2187 82.0991 27.824C82.5045 27.44 82.7071 26.8533 82.7071 26.064V24.688C82.4191 25.104 82.0191 25.4507 81.5071 25.728C81.0058 26.0053 80.4298 26.144 79.7791 26.144C79.0325 26.144 78.3498 25.952 77.7311 25.568C77.1125 25.184 76.6218 24.6453 76.2591 23.952C75.9071 23.248 75.7311 22.4427 75.7311 21.536C75.7311 20.64 75.9071 19.8453 76.2591 19.152C76.6218 18.4587 77.1071 17.9253 77.7151 17.552C78.3338 17.1787 79.0218 16.992 79.7791 16.992ZM82.7071 21.568C82.7071 21.024 82.6005 20.56 82.3871 20.176C82.1738 19.7813 81.8858 19.4827 81.5231 19.28C81.1605 19.0667 80.7711 18.96 80.3551 18.96C79.9391 18.96 79.5551 19.0613 79.2031 19.264C78.8511 19.4667 78.5631 19.7653 78.3391 20.16C78.1258 20.544 78.0191 21.0027 78.0191 21.536C78.0191 22.0693 78.1258 22.5387 78.3391 22.944C78.5631 23.3387 78.8511 23.6427 79.2031 23.856C79.5658 24.0693 79.9498 24.176 80.3551 24.176C80.7711 24.176 81.1605 24.0747 81.5231 23.872C81.8858 23.6587 82.1738 23.36 82.3871 22.976C82.6005 22.5813 82.7071 22.112 82.7071 21.568ZM91.0869 26.144C90.2335 26.144 89.4655 25.9573 88.7829 25.584C88.1002 25.2 87.5615 24.6613 87.1669 23.968C86.7829 23.2747 86.5909 22.4747 86.5909 21.568C86.5909 20.6613 86.7882 19.8613 87.1829 19.168C87.5882 18.4747 88.1375 17.9413 88.8309 17.568C89.5242 17.184 90.2975 16.992 91.1509 16.992C92.0042 16.992 92.7775 17.184 93.4709 17.568C94.1642 17.9413 94.7082 18.4747 95.1029 19.168C95.5082 19.8613 95.7109 20.6613 95.7109 21.568C95.7109 22.4747 95.5029 23.2747 95.0869 23.968C94.6815 24.6613 94.1269 25.2 93.4229 25.584C92.7295 25.9573 91.9509 26.144 91.0869 26.144ZM91.0869 24.192C91.4922 24.192 91.8709 24.096 92.2229 23.904C92.5855 23.7013 92.8735 23.4027 93.0869 23.008C93.3002 22.6133 93.4069 22.1333 93.4069 21.568C93.4069 20.7253 93.1829 20.08 92.7349 19.632C92.2975 19.1733 91.7589 18.944 91.1189 18.944C90.4789 18.944 89.9402 19.1733 89.5029 19.632C89.0762 20.08 88.8629 20.7253 88.8629 21.568C88.8629 22.4107 89.0709 23.0613 89.4869 23.52C89.9135 23.968 90.4469 24.192 91.0869 24.192ZM99.594 18.512C99.882 18.0427 100.255 17.6747 100.714 17.408C101.183 17.1413 101.717 17.008 102.314 17.008V19.36H101.722C101.018 19.36 100.485 19.5253 100.122 19.856C99.77 20.1867 99.594 20.7627 99.594 21.584V26H97.354V17.136H99.594V18.512ZM104.959 16.08C104.564 16.08 104.233 15.9573 103.967 15.712C103.711 15.456 103.583 15.1413 103.583 14.768C103.583 14.3947 103.711 14.0853 103.967 13.84C104.233 13.584 104.564 13.456 104.959 13.456C105.353 13.456 105.679 13.584 105.935 13.84C106.201 14.0853 106.335 14.3947 106.335 14.768C106.335 15.1413 106.201 15.456 105.935 15.712C105.679 15.9573 105.353 16.08 104.959 16.08ZM106.063 17.136V26H103.823V17.136H106.063ZM116.516 21.376C116.516 21.696 116.495 21.984 116.452 22.24H109.972C110.025 22.88 110.249 23.3813 110.644 23.744C111.039 24.1067 111.524 24.288 112.1 24.288C112.932 24.288 113.524 23.9307 113.876 23.216H116.292C116.036 24.0693 115.545 24.7733 114.82 25.328C114.095 25.872 113.204 26.144 112.148 26.144C111.295 26.144 110.527 25.9573 109.844 25.584C109.172 25.2 108.644 24.6613 108.26 23.968C107.887 23.2747 107.7 22.4747 107.7 21.568C107.7 20.6507 107.887 19.8453 108.26 19.152C108.633 18.4587 109.156 17.9253 109.828 17.552C110.5 17.1787 111.273 16.992 112.148 16.992C112.991 16.992 113.743 17.1733 114.404 17.536C115.076 17.8987 115.593 18.416 115.956 19.088C116.329 19.7493 116.516 20.512 116.516 21.376ZM114.196 20.736C114.185 20.16 113.977 19.7013 113.572 19.36C113.167 19.008 112.671 18.832 112.084 18.832C111.529 18.832 111.06 19.0027 110.676 19.344C110.303 19.6747 110.073 20.1387 109.988 20.736H114.196ZM121.543 26.144C120.818 26.144 120.167 26.016 119.591 25.76C119.015 25.4933 118.556 25.136 118.215 24.688C117.884 24.24 117.703 23.744 117.671 23.2H119.927C119.97 23.5413 120.135 23.824 120.423 24.048C120.722 24.272 121.09 24.384 121.527 24.384C121.954 24.384 122.284 24.2987 122.519 24.128C122.764 23.9573 122.887 23.7387 122.887 23.472C122.887 23.184 122.738 22.9707 122.439 22.832C122.151 22.6827 121.687 22.5227 121.047 22.352C120.386 22.192 119.842 22.0267 119.415 21.856C118.999 21.6853 118.636 21.424 118.327 21.072C118.028 20.72 117.879 20.2453 117.879 19.648C117.879 19.1573 118.018 18.7093 118.295 18.304C118.583 17.8987 118.988 17.5787 119.511 17.344C120.044 17.1093 120.668 16.992 121.383 16.992C122.439 16.992 123.282 17.2587 123.911 17.792C124.54 18.3147 124.887 19.024 124.951 19.92H122.807C122.775 19.568 122.626 19.2907 122.359 19.088C122.103 18.8747 121.756 18.768 121.319 18.768C120.914 18.768 120.599 18.8427 120.375 18.992C120.162 19.1413 120.055 19.3493 120.055 19.616C120.055 19.9147 120.204 20.144 120.503 20.304C120.802 20.4533 121.266 20.608 121.895 20.768C122.535 20.928 123.063 21.0933 123.479 21.264C123.895 21.4347 124.252 21.7013 124.551 22.064C124.86 22.416 125.02 22.8853 125.031 23.472C125.031 23.984 124.887 24.4427 124.599 24.848C124.322 25.2533 123.916 25.5733 123.383 25.808C122.86 26.032 122.247 26.144 121.543 26.144Z" fill="#DB4444"/>
</svg>
