<svg width="110" height="40" viewBox="0 0 110 40" fill="none" xmlns="http://www.w3.org/2000/svg">
<rect width="20" height="40" rx="4" fill="#DB4444"/>
<path d="M44 14.832V16.64H39.344V19.504H42.912V21.28H39.344V26H37.104V14.832H44ZM53.8284 21.376C53.8284 21.696 53.807 21.984 53.7644 22.24H47.2844C47.3377 22.88 47.5617 23.3813 47.9564 23.744C48.351 24.1067 48.8364 24.288 49.4124 24.288C50.2444 24.288 50.8364 23.9307 51.1884 23.216H53.6044C53.3484 24.0693 52.8577 24.7733 52.1324 25.328C51.407 25.872 50.5164 26.144 49.4604 26.144C48.607 26.144 47.839 25.9573 47.1564 25.584C46.4844 25.2 45.9564 24.6613 45.5724 23.968C45.199 23.2747 45.0124 22.4747 45.0124 21.568C45.0124 20.6507 45.199 19.8453 45.5724 19.152C45.9457 18.4587 46.4684 17.9253 47.1404 17.552C47.8124 17.1787 48.5857 16.992 49.4604 16.992C50.303 16.992 51.055 17.1733 51.7164 17.536C52.3884 17.8987 52.9057 18.416 53.2684 19.088C53.6417 19.7493 53.8284 20.512 53.8284 21.376ZM51.5084 20.736C51.4977 20.16 51.2897 19.7013 50.8844 19.36C50.479 19.008 49.983 18.832 49.3964 18.832C48.8417 18.832 48.3724 19.0027 47.9884 19.344C47.615 19.6747 47.3857 20.1387 47.3004 20.736H51.5084ZM54.8874 21.536C54.8874 20.64 55.0634 19.8453 55.4154 19.152C55.778 18.4587 56.2634 17.9253 56.8714 17.552C57.49 17.1787 58.178 16.992 58.9354 16.992C59.5967 16.992 60.1727 17.1253 60.6634 17.392C61.1647 17.6587 61.5647 17.9947 61.8634 18.4V17.136H64.1194V26H61.8634V24.704C61.5754 25.12 61.1754 25.4667 60.6634 25.744C60.162 26.0107 59.5807 26.144 58.9194 26.144C58.1727 26.144 57.49 25.952 56.8714 25.568C56.2634 25.184 55.778 24.6453 55.4154 23.952C55.0634 23.248 54.8874 22.4427 54.8874 21.536ZM61.8634 21.568C61.8634 21.024 61.7567 20.56 61.5434 20.176C61.33 19.7813 61.042 19.4827 60.6794 19.28C60.3167 19.0667 59.9274 18.96 59.5114 18.96C59.0954 18.96 58.7114 19.0613 58.3594 19.264C58.0074 19.4667 57.7194 19.7653 57.4954 20.16C57.282 20.544 57.1754 21.0027 57.1754 21.536C57.1754 22.0693 57.282 22.5387 57.4954 22.944C57.7194 23.3387 58.0074 23.6427 58.3594 23.856C58.722 24.0693 59.106 24.176 59.5114 24.176C59.9274 24.176 60.3167 24.0747 60.6794 23.872C61.042 23.6587 61.33 23.36 61.5434 22.976C61.7567 22.5813 61.8634 22.112 61.8634 21.568ZM68.9151 18.976V23.264C68.9151 23.5627 68.9845 23.7813 69.1231 23.92C69.2725 24.048 69.5178 24.112 69.8591 24.112H70.8991V26H69.4911C67.6031 26 66.6591 25.0827 66.6591 23.248V18.976H65.6031V17.136H66.6591V14.944H68.9151V17.136H70.8991V18.976H68.9151ZM80.8783 17.136V26H78.6223V24.88C78.3343 25.264 77.9556 25.568 77.4863 25.792C77.0276 26.0053 76.5263 26.112 75.9823 26.112C75.2889 26.112 74.6756 25.968 74.1423 25.68C73.6089 25.3813 73.1876 24.9493 72.8783 24.384C72.5796 23.808 72.4303 23.1253 72.4303 22.336V17.136H74.6703V22.016C74.6703 22.72 74.8463 23.264 75.1983 23.648C75.5503 24.0213 76.0303 24.208 76.6383 24.208C77.2569 24.208 77.7423 24.0213 78.0943 23.648C78.4463 23.264 78.6223 22.72 78.6223 22.016V17.136H80.8783ZM85.3284 18.512C85.6164 18.0427 85.9897 17.6747 86.4484 17.408C86.9177 17.1413 87.451 17.008 88.0484 17.008V19.36H87.4564C86.7524 19.36 86.219 19.5253 85.8564 19.856C85.5044 20.1867 85.3284 20.7627 85.3284 21.584V26H83.0884V17.136H85.3284V18.512ZM97.7971 21.376C97.7971 21.696 97.7758 21.984 97.7331 22.24H91.2531C91.3065 22.88 91.5305 23.3813 91.9251 23.744C92.3198 24.1067 92.8051 24.288 93.3811 24.288C94.2131 24.288 94.8051 23.9307 95.1571 23.216H97.5731C97.3171 24.0693 96.8265 24.7733 96.1011 25.328C95.3758 25.872 94.4851 26.144 93.4291 26.144C92.5758 26.144 91.8078 25.9573 91.1251 25.584C90.4531 25.2 89.9251 24.6613 89.5411 23.968C89.1678 23.2747 88.9811 22.4747 88.9811 21.568C88.9811 20.6507 89.1678 19.8453 89.5411 19.152C89.9145 18.4587 90.4371 17.9253 91.1091 17.552C91.7811 17.1787 92.5545 16.992 93.4291 16.992C94.2718 16.992 95.0238 17.1733 95.6851 17.536C96.3571 17.8987 96.8745 18.416 97.2371 19.088C97.6105 19.7493 97.7971 20.512 97.7971 21.376ZM95.4771 20.736C95.4665 20.16 95.2585 19.7013 94.8531 19.36C94.4478 19.008 93.9518 18.832 93.3651 18.832C92.8105 18.832 92.3411 19.0027 91.9571 19.344C91.5838 19.6747 91.3545 20.1387 91.2691 20.736H95.4771ZM98.8561 21.536C98.8561 20.64 99.0321 19.8453 99.3841 19.152C99.7468 18.4587 100.237 17.9253 100.856 17.552C101.475 17.1787 102.163 16.992 102.92 16.992C103.496 16.992 104.045 17.12 104.568 17.376C105.091 17.6213 105.507 17.952 105.816 18.368V14.16H108.088V26H105.816V24.688C105.539 25.1253 105.149 25.4773 104.648 25.744C104.147 26.0107 103.565 26.144 102.904 26.144C102.157 26.144 101.475 25.952 100.856 25.568C100.237 25.184 99.7468 24.6453 99.3841 23.952C99.0321 23.248 98.8561 22.4427 98.8561 21.536ZM105.832 21.568C105.832 21.024 105.725 20.56 105.512 20.176C105.299 19.7813 105.011 19.4827 104.648 19.28C104.285 19.0667 103.896 18.96 103.48 18.96C103.064 18.96 102.68 19.0613 102.328 19.264C101.976 19.4667 101.688 19.7653 101.464 20.16C101.251 20.544 101.144 21.0027 101.144 21.536C101.144 22.0693 101.251 22.5387 101.464 22.944C101.688 23.3387 101.976 23.6427 102.328 23.856C102.691 24.0693 103.075 24.176 103.48 24.176C103.896 24.176 104.285 24.0747 104.648 23.872C105.011 23.6587 105.299 23.36 105.512 22.976C105.725 22.5813 105.832 22.112 105.832 21.568Z" fill="#DB4444"/>
</svg>
