<svg width="208" height="40" viewBox="0 0 208 40" fill="none" xmlns="http://www.w3.org/2000/svg">
<rect width="20" height="40" rx="4" fill="#DB4444"/>
<path d="M43.44 20.272C44.0693 20.3893 44.5867 20.704 44.992 21.216C45.3973 21.728 45.6 22.3147 45.6 22.976C45.6 23.5733 45.4507 24.1013 45.152 24.56C44.864 25.008 44.4427 25.36 43.888 25.616C43.3333 25.872 42.6773 26 41.92 26H37.104V14.832H41.712C42.4693 14.832 43.12 14.9547 43.664 15.2C44.2187 15.4453 44.6347 15.7867 44.912 16.224C45.2 16.6613 45.344 17.1573 45.344 17.712C45.344 18.3627 45.168 18.9067 44.816 19.344C44.4747 19.7813 44.016 20.0907 43.44 20.272ZM39.344 19.44H41.392C41.9253 19.44 42.336 19.3227 42.624 19.088C42.912 18.8427 43.056 18.496 43.056 18.048C43.056 17.6 42.912 17.2533 42.624 17.008C42.336 16.7627 41.9253 16.64 41.392 16.64H39.344V19.44ZM41.6 24.176C42.144 24.176 42.5653 24.048 42.864 23.792C43.1733 23.536 43.328 23.1733 43.328 22.704C43.328 22.224 43.168 21.8507 42.848 21.584C42.528 21.3067 42.096 21.168 41.552 21.168H39.344V24.176H41.6ZM55.6253 21.376C55.6253 21.696 55.6039 21.984 55.5613 22.24H49.0813C49.1346 22.88 49.3586 23.3813 49.7533 23.744C50.1479 24.1067 50.6333 24.288 51.2093 24.288C52.0413 24.288 52.6333 23.9307 52.9853 23.216H55.4013C55.1453 24.0693 54.6546 24.7733 53.9293 25.328C53.2039 25.872 52.3133 26.144 51.2573 26.144C50.4039 26.144 49.6359 25.9573 48.9533 25.584C48.2813 25.2 47.7533 24.6613 47.3693 23.968C46.9959 23.2747 46.8092 22.4747 46.8092 21.568C46.8092 20.6507 46.9959 19.8453 47.3693 19.152C47.7426 18.4587 48.2653 17.9253 48.9373 17.552C49.6093 17.1787 50.3826 16.992 51.2573 16.992C52.0999 16.992 52.8519 17.1733 53.5133 17.536C54.1853 17.8987 54.7026 18.416 55.0653 19.088C55.4386 19.7493 55.6253 20.512 55.6253 21.376ZM53.3053 20.736C53.2946 20.16 53.0866 19.7013 52.6813 19.36C52.2759 19.008 51.7799 18.832 51.1933 18.832C50.6386 18.832 50.1693 19.0027 49.7853 19.344C49.4119 19.6747 49.1826 20.1387 49.0973 20.736H53.3053ZM56.6842 21.536C56.6842 20.64 56.8602 19.8453 57.2122 19.152C57.5749 18.4587 58.0603 17.9253 58.6683 17.552C59.2869 17.1787 59.9749 16.992 60.7323 16.992C61.3936 16.992 61.9696 17.1253 62.4603 17.392C62.9616 17.6587 63.3616 17.9947 63.6603 18.4V17.136H65.9163V26H63.6603V24.704C63.3723 25.12 62.9723 25.4667 62.4603 25.744C61.9589 26.0107 61.3776 26.144 60.7163 26.144C59.9696 26.144 59.2869 25.952 58.6683 25.568C58.0603 25.184 57.5749 24.6453 57.2122 23.952C56.8602 23.248 56.6842 22.4427 56.6842 21.536ZM63.6603 21.568C63.6603 21.024 63.5536 20.56 63.3403 20.176C63.1269 19.7813 62.8389 19.4827 62.4763 19.28C62.1136 19.0667 61.7243 18.96 61.3083 18.96C60.8923 18.96 60.5083 19.0613 60.1562 19.264C59.8043 19.4667 59.5163 19.7653 59.2923 20.16C59.0789 20.544 58.9723 21.0027 58.9723 21.536C58.9723 22.0693 59.0789 22.5387 59.2923 22.944C59.5163 23.3387 59.8043 23.6427 60.1562 23.856C60.5189 24.0693 60.9029 24.176 61.3083 24.176C61.7243 24.176 62.1136 24.0747 62.4763 23.872C62.8389 23.6587 63.1269 23.36 63.3403 22.976C63.5536 22.5813 63.6603 22.112 63.6603 21.568ZM76.472 17.136V26H74.216V24.88C73.928 25.264 73.5493 25.568 73.08 25.792C72.6213 26.0053 72.12 26.112 71.576 26.112C70.8827 26.112 70.2693 25.968 69.736 25.68C69.2027 25.3813 68.7813 24.9493 68.472 24.384C68.1733 23.808 68.024 23.1253 68.024 22.336V17.136H70.264V22.016C70.264 22.72 70.44 23.264 70.792 23.648C71.144 24.0213 71.624 24.208 72.232 24.208C72.8507 24.208 73.336 24.0213 73.688 23.648C74.04 23.264 74.216 22.72 74.216 22.016V17.136H76.472ZM81.2901 18.976V23.264C81.2901 23.5627 81.3595 23.7813 81.4981 23.92C81.6475 24.048 81.8928 24.112 82.2341 24.112H83.2741V26H81.8661C79.9781 26 79.0341 25.0827 79.0341 23.248V18.976H77.9781V17.136H79.0341V14.944H81.2901V17.136H83.2741V18.976H81.2901ZM93.3653 17.136L87.8773 30.192H85.4933L87.4133 25.776L83.8613 17.136H86.3733L88.6613 23.328L90.9813 17.136H93.3653ZM97.8092 21.536C97.8092 20.64 97.9852 19.8453 98.3372 19.152C98.6999 18.4587 99.1853 17.9253 99.7933 17.552C100.412 17.1787 101.1 16.992 101.857 16.992C102.519 16.992 103.095 17.1253 103.585 17.392C104.087 17.6587 104.487 17.9947 104.785 18.4V17.136H107.041V26H104.785V24.704C104.497 25.12 104.097 25.4667 103.585 25.744C103.084 26.0107 102.503 26.144 101.841 26.144C101.095 26.144 100.412 25.952 99.7933 25.568C99.1853 25.184 98.6999 24.6453 98.3372 23.952C97.9852 23.248 97.8092 22.4427 97.8092 21.536ZM104.785 21.568C104.785 21.024 104.679 20.56 104.465 20.176C104.252 19.7813 103.964 19.4827 103.601 19.28C103.239 19.0667 102.849 18.96 102.433 18.96C102.017 18.96 101.633 19.0613 101.281 19.264C100.929 19.4667 100.641 19.7653 100.417 20.16C100.204 20.544 100.097 21.0027 100.097 21.536C100.097 22.0693 100.204 22.5387 100.417 22.944C100.641 23.3387 100.929 23.6427 101.281 23.856C101.644 24.0693 102.028 24.176 102.433 24.176C102.849 24.176 103.239 24.0747 103.601 23.872C103.964 23.6587 104.252 23.36 104.465 22.976C104.679 22.5813 104.785 22.112 104.785 21.568ZM114.141 17.008C115.197 17.008 116.05 17.344 116.701 18.016C117.352 18.6773 117.677 19.6053 117.677 20.8V26H115.437V21.104C115.437 20.4 115.261 19.8613 114.909 19.488C114.557 19.104 114.077 18.912 113.469 18.912C112.85 18.912 112.36 19.104 111.997 19.488C111.645 19.8613 111.469 20.4 111.469 21.104V26H109.229V17.136H111.469V18.24C111.768 17.856 112.146 17.5573 112.605 17.344C113.074 17.12 113.586 17.008 114.141 17.008ZM119.231 21.536C119.231 20.64 119.407 19.8453 119.759 19.152C120.122 18.4587 120.612 17.9253 121.231 17.552C121.85 17.1787 122.538 16.992 123.295 16.992C123.871 16.992 124.42 17.12 124.943 17.376C125.466 17.6213 125.882 17.952 126.191 18.368V14.16H128.463V26H126.191V24.688C125.914 25.1253 125.524 25.4773 125.023 25.744C124.522 26.0107 123.94 26.144 123.279 26.144C122.532 26.144 121.85 25.952 121.231 25.568C120.612 25.184 120.122 24.6453 119.759 23.952C119.407 23.248 119.231 22.4427 119.231 21.536ZM126.207 21.568C126.207 21.024 126.1 20.56 125.887 20.176C125.674 19.7813 125.386 19.4827 125.023 19.28C124.66 19.0667 124.271 18.96 123.855 18.96C123.439 18.96 123.055 19.0613 122.703 19.264C122.351 19.4667 122.063 19.7653 121.839 20.16C121.626 20.544 121.519 21.0027 121.519 21.536C121.519 22.0693 121.626 22.5387 121.839 22.944C122.063 23.3387 122.351 23.6427 122.703 23.856C123.066 24.0693 123.45 24.176 123.855 24.176C124.271 24.176 124.66 24.0747 125.023 23.872C125.386 23.6587 125.674 23.36 125.887 22.976C126.1 22.5813 126.207 22.112 126.207 21.568ZM137.855 26.144C137.13 26.144 136.479 26.016 135.903 25.76C135.327 25.4933 134.869 25.136 134.527 24.688C134.197 24.24 134.015 23.744 133.983 23.2H136.239C136.282 23.5413 136.447 23.824 136.735 24.048C137.034 24.272 137.402 24.384 137.839 24.384C138.266 24.384 138.597 24.2987 138.831 24.128C139.077 23.9573 139.199 23.7387 139.199 23.472C139.199 23.184 139.05 22.9707 138.751 22.832C138.463 22.6827 137.999 22.5227 137.359 22.352C136.698 22.192 136.154 22.0267 135.727 21.856C135.311 21.6853 134.949 21.424 134.639 21.072C134.341 20.72 134.191 20.2453 134.191 19.648C134.191 19.1573 134.33 18.7093 134.607 18.304C134.895 17.8987 135.301 17.5787 135.823 17.344C136.357 17.1093 136.981 16.992 137.695 16.992C138.751 16.992 139.594 17.2587 140.223 17.792C140.853 18.3147 141.199 19.024 141.263 19.92H139.119C139.087 19.568 138.938 19.2907 138.671 19.088C138.415 18.8747 138.069 18.768 137.631 18.768C137.226 18.768 136.911 18.8427 136.687 18.992C136.474 19.1413 136.367 19.3493 136.367 19.616C136.367 19.9147 136.517 20.144 136.815 20.304C137.114 20.4533 137.578 20.608 138.207 20.768C138.847 20.928 139.375 21.0933 139.791 21.264C140.207 21.4347 140.565 21.7013 140.863 22.064C141.173 22.416 141.333 22.8853 141.343 23.472C141.343 23.984 141.199 24.4427 140.911 24.848C140.634 25.2533 140.229 25.5733 139.695 25.808C139.173 26.032 138.559 26.144 137.855 26.144ZM148.43 26L145.422 22.224V26H143.182V14.16H145.422V20.896L148.398 17.136H151.31L147.406 21.584L151.342 26H148.43ZM153.662 16.08C153.267 16.08 152.937 15.9573 152.67 15.712C152.414 15.456 152.286 15.1413 152.286 14.768C152.286 14.3947 152.414 14.0853 152.67 13.84C152.937 13.584 153.267 13.456 153.662 13.456C154.057 13.456 154.382 13.584 154.638 13.84C154.905 14.0853 155.038 14.3947 155.038 14.768C155.038 15.1413 154.905 15.456 154.638 15.712C154.382 15.9573 154.057 16.08 153.662 16.08ZM154.766 17.136V26H152.526V17.136H154.766ZM161.891 17.008C162.947 17.008 163.8 17.344 164.451 18.016C165.102 18.6773 165.427 19.6053 165.427 20.8V26H163.187V21.104C163.187 20.4 163.011 19.8613 162.659 19.488C162.307 19.104 161.827 18.912 161.219 18.912C160.6 18.912 160.11 19.104 159.747 19.488C159.395 19.8613 159.219 20.4 159.219 21.104V26H156.979V17.136H159.219V18.24C159.518 17.856 159.896 17.5573 160.355 17.344C160.824 17.12 161.336 17.008 161.891 17.008ZM170.794 21.568C170.794 20.6507 170.98 19.8507 171.354 19.168C171.727 18.4747 172.244 17.9413 172.906 17.568C173.567 17.184 174.324 16.992 175.178 16.992C176.276 16.992 177.183 17.2693 177.898 17.824C178.623 18.368 179.108 19.136 179.354 20.128H176.938C176.81 19.744 176.591 19.4453 176.282 19.232C175.983 19.008 175.61 18.896 175.162 18.896C174.522 18.896 174.015 19.1307 173.642 19.6C173.268 20.0587 173.082 20.7147 173.082 21.568C173.082 22.4107 173.268 23.0667 173.642 23.536C174.015 23.9947 174.522 24.224 175.162 24.224C176.068 24.224 176.66 23.8187 176.938 23.008H179.354C179.108 23.968 178.623 24.7307 177.898 25.296C177.172 25.8613 176.266 26.144 175.178 26.144C174.324 26.144 173.567 25.9573 172.906 25.584C172.244 25.2 171.727 24.6667 171.354 23.984C170.98 23.2907 170.794 22.4853 170.794 21.568ZM180.419 21.536C180.419 20.64 180.595 19.8453 180.947 19.152C181.309 18.4587 181.795 17.9253 182.403 17.552C183.021 17.1787 183.709 16.992 184.467 16.992C185.128 16.992 185.704 17.1253 186.195 17.392C186.696 17.6587 187.096 17.9947 187.395 18.4V17.136H189.651V26H187.395V24.704C187.107 25.12 186.707 25.4667 186.195 25.744C185.693 26.0107 185.112 26.144 184.451 26.144C183.704 26.144 183.021 25.952 182.403 25.568C181.795 25.184 181.309 24.6453 180.947 23.952C180.595 23.248 180.419 22.4427 180.419 21.536ZM187.395 21.568C187.395 21.024 187.288 20.56 187.075 20.176C186.861 19.7813 186.573 19.4827 186.211 19.28C185.848 19.0667 185.459 18.96 185.043 18.96C184.627 18.96 184.243 19.0613 183.891 19.264C183.539 19.4667 183.251 19.7653 183.027 20.16C182.813 20.544 182.707 21.0027 182.707 21.536C182.707 22.0693 182.813 22.5387 183.027 22.944C183.251 23.3387 183.539 23.6427 183.891 23.856C184.253 24.0693 184.637 24.176 185.043 24.176C185.459 24.176 185.848 24.0747 186.211 23.872C186.573 23.6587 186.861 23.36 187.075 22.976C187.288 22.5813 187.395 22.112 187.395 21.568ZM194.078 18.512C194.366 18.0427 194.74 17.6747 195.198 17.408C195.668 17.1413 196.201 17.008 196.798 17.008V19.36H196.206C195.502 19.36 194.969 19.5253 194.606 19.856C194.254 20.1867 194.078 20.7627 194.078 21.584V26H191.838V17.136H194.078V18.512ZM206.547 21.376C206.547 21.696 206.526 21.984 206.483 22.24H200.003C200.056 22.88 200.28 23.3813 200.675 23.744C201.07 24.1067 201.555 24.288 202.131 24.288C202.963 24.288 203.555 23.9307 203.907 23.216H206.323C206.067 24.0693 205.576 24.7733 204.851 25.328C204.126 25.872 203.235 26.144 202.179 26.144C201.326 26.144 200.558 25.9573 199.875 25.584C199.203 25.2 198.675 24.6613 198.291 23.968C197.918 23.2747 197.731 22.4747 197.731 21.568C197.731 20.6507 197.918 19.8453 198.291 19.152C198.664 18.4587 199.187 17.9253 199.859 17.552C200.531 17.1787 201.304 16.992 202.179 16.992C203.022 16.992 203.774 17.1733 204.435 17.536C205.107 17.8987 205.624 18.416 205.987 19.088C206.36 19.7493 206.547 20.512 206.547 21.376ZM204.227 20.736C204.216 20.16 204.008 19.7013 203.603 19.36C203.198 19.008 202.702 18.832 202.115 18.832C201.56 18.832 201.091 19.0027 200.707 19.344C200.334 19.6747 200.104 20.1387 200.019 20.736H204.227Z" fill="#DB4444"/>
</svg>
