<svg width="116" height="40" viewBox="0 0 116 40" fill="none" xmlns="http://www.w3.org/2000/svg">
<rect width="20" height="40" rx="4" fill="#DB4444"/>
<path d="M39.344 16.64V19.44H43.104V21.216H39.344V24.176H43.584V26H37.104V14.816H43.584V16.64H39.344ZM47.8596 14.16V26H45.6196V14.16H47.8596ZM58.3128 21.376C58.3128 21.696 58.2914 21.984 58.2488 22.24H51.7688C51.8221 22.88 52.0461 23.3813 52.4408 23.744C52.8354 24.1067 53.3208 24.288 53.8968 24.288C54.7288 24.288 55.3208 23.9307 55.6728 23.216H58.0888C57.8328 24.0693 57.3421 24.7733 56.6168 25.328C55.8914 25.872 55.0008 26.144 53.9448 26.144C53.0914 26.144 52.3234 25.9573 51.6408 25.584C50.9688 25.2 50.4408 24.6613 50.0568 23.968C49.6834 23.2747 49.4967 22.4747 49.4967 21.568C49.4967 20.6507 49.6834 19.8453 50.0568 19.152C50.4301 18.4587 50.9528 17.9253 51.6248 17.552C52.2968 17.1787 53.0701 16.992 53.9448 16.992C54.7874 16.992 55.5394 17.1733 56.2008 17.536C56.8728 17.8987 57.3901 18.416 57.7528 19.088C58.1261 19.7493 58.3128 20.512 58.3128 21.376ZM55.9928 20.736C55.9821 20.16 55.7741 19.7013 55.3688 19.36C54.9634 19.008 54.4674 18.832 53.8808 18.832C53.3261 18.832 52.8568 19.0027 52.4728 19.344C52.0994 19.6747 51.8701 20.1387 51.7848 20.736H55.9928ZM62.5558 18.976V23.264C62.5558 23.5627 62.6251 23.7813 62.7638 23.92C62.9131 24.048 63.1584 24.112 63.4998 24.112H64.5398V26H63.1318C61.2438 26 60.2998 25.0827 60.2998 23.248V18.976H59.2438V17.136H60.2998V14.944H62.5558V17.136H64.5398V18.976H62.5558ZM68.3909 18.512C68.6789 18.0427 69.0522 17.6747 69.5109 17.408C69.9802 17.1413 70.5135 17.008 71.1109 17.008V19.36H70.5189C69.8149 19.36 69.2815 19.5253 68.9189 19.856C68.5669 20.1867 68.3909 20.7627 68.3909 21.584V26H66.1509V17.136H68.3909V18.512ZM76.5556 26.144C75.7023 26.144 74.9343 25.9573 74.2516 25.584C73.569 25.2 73.0303 24.6613 72.6356 23.968C72.2516 23.2747 72.0596 22.4747 72.0596 21.568C72.0596 20.6613 72.257 19.8613 72.6516 19.168C73.057 18.4747 73.6063 17.9413 74.2996 17.568C74.993 17.184 75.7663 16.992 76.6196 16.992C77.473 16.992 78.2463 17.184 78.9396 17.568C79.633 17.9413 80.177 18.4747 80.5716 19.168C80.977 19.8613 81.1796 20.6613 81.1796 21.568C81.1796 22.4747 80.9716 23.2747 80.5556 23.968C80.1503 24.6613 79.5956 25.2 78.8916 25.584C78.1983 25.9573 77.4196 26.144 76.5556 26.144ZM76.5556 24.192C76.961 24.192 77.3396 24.096 77.6916 23.904C78.0543 23.7013 78.3423 23.4027 78.5556 23.008C78.769 22.6133 78.8756 22.1333 78.8756 21.568C78.8756 20.7253 78.6516 20.08 78.2036 19.632C77.7663 19.1733 77.2276 18.944 76.5876 18.944C75.9476 18.944 75.409 19.1733 74.9716 19.632C74.545 20.08 74.3316 20.7253 74.3316 21.568C74.3316 22.4107 74.5396 23.0613 74.9556 23.52C75.3823 23.968 75.9156 24.192 76.5556 24.192ZM87.7348 17.008C88.7908 17.008 89.6441 17.344 90.2948 18.016C90.9454 18.6773 91.2708 19.6053 91.2708 20.8V26H89.0308V21.104C89.0308 20.4 88.8548 19.8613 88.5028 19.488C88.1508 19.104 87.6708 18.912 87.0628 18.912C86.4441 18.912 85.9534 19.104 85.5908 19.488C85.2388 19.8613 85.0628 20.4 85.0628 21.104V26H82.8228V17.136H85.0628V18.24C85.3614 17.856 85.7401 17.5573 86.1988 17.344C86.6681 17.12 87.1801 17.008 87.7348 17.008ZM94.5369 16.08C94.1422 16.08 93.8115 15.9573 93.5449 15.712C93.2889 15.456 93.1609 15.1413 93.1609 14.768C93.1609 14.3947 93.2889 14.0853 93.5449 13.84C93.8115 13.584 94.1422 13.456 94.5369 13.456C94.9315 13.456 95.2569 13.584 95.5129 13.84C95.7795 14.0853 95.9129 14.3947 95.9129 14.768C95.9129 15.1413 95.7795 15.456 95.5129 15.712C95.2569 15.9573 94.9315 16.08 94.5369 16.08ZM95.6409 17.136V26H93.4009V17.136H95.6409ZM97.278 21.568C97.278 20.6507 97.4647 19.8507 97.838 19.168C98.2113 18.4747 98.7287 17.9413 99.39 17.568C100.051 17.184 100.809 16.992 101.662 16.992C102.761 16.992 103.667 17.2693 104.382 17.824C105.107 18.368 105.593 19.136 105.838 20.128H103.422C103.294 19.744 103.075 19.4453 102.766 19.232C102.467 19.008 102.094 18.896 101.646 18.896C101.006 18.896 100.499 19.1307 100.126 19.6C99.7527 20.0587 99.566 20.7147 99.566 21.568C99.566 22.4107 99.7527 23.0667 100.126 23.536C100.499 23.9947 101.006 24.224 101.646 24.224C102.553 24.224 103.145 23.8187 103.422 23.008H105.838C105.593 23.968 105.107 24.7307 104.382 25.296C103.657 25.8613 102.75 26.144 101.662 26.144C100.809 26.144 100.051 25.9573 99.39 25.584C98.7287 25.2 98.2113 24.6667 97.838 23.984C97.4647 23.2907 97.278 22.4853 97.278 21.568ZM110.871 26.144C110.146 26.144 109.495 26.016 108.919 25.76C108.343 25.4933 107.884 25.136 107.543 24.688C107.212 24.24 107.031 23.744 106.999 23.2H109.255C109.298 23.5413 109.463 23.824 109.751 24.048C110.05 24.272 110.418 24.384 110.855 24.384C111.282 24.384 111.612 24.2987 111.847 24.128C112.092 23.9573 112.215 23.7387 112.215 23.472C112.215 23.184 112.066 22.9707 111.767 22.832C111.479 22.6827 111.015 22.5227 110.375 22.352C109.714 22.192 109.17 22.0267 108.743 21.856C108.327 21.6853 107.964 21.424 107.655 21.072C107.356 20.72 107.207 20.2453 107.207 19.648C107.207 19.1573 107.346 18.7093 107.623 18.304C107.911 17.8987 108.316 17.5787 108.839 17.344C109.372 17.1093 109.996 16.992 110.711 16.992C111.767 16.992 112.61 17.2587 113.239 17.792C113.868 18.3147 114.215 19.024 114.279 19.92H112.135C112.103 19.568 111.954 19.2907 111.687 19.088C111.431 18.8747 111.084 18.768 110.647 18.768C110.242 18.768 109.927 18.8427 109.703 18.992C109.49 19.1413 109.383 19.3493 109.383 19.616C109.383 19.9147 109.532 20.144 109.831 20.304C110.13 20.4533 110.594 20.608 111.223 20.768C111.863 20.928 112.391 21.0933 112.807 21.264C113.223 21.4347 113.58 21.7013 113.879 22.064C114.188 22.416 114.348 22.8853 114.359 23.472C114.359 23.984 114.215 24.4427 113.927 24.848C113.65 25.2533 113.244 25.5733 112.711 25.808C112.188 26.032 111.575 26.144 110.871 26.144Z" fill="#DB4444"/>
</svg>
