<svg width="155" height="40" viewBox="0 0 155 40" fill="none" xmlns="http://www.w3.org/2000/svg">
<rect width="20" height="40" rx="4" fill="#DB4444"/>
<path d="M36.56 20.4C36.56 19.3013 36.8053 18.32 37.296 17.456C37.7973 16.5813 38.4747 15.904 39.328 15.424C40.192 14.9333 41.1573 14.688 42.224 14.688C43.472 14.688 44.5653 15.008 45.504 15.648C46.4427 16.288 47.0987 17.1733 47.472 18.304H44.896C44.64 17.7707 44.2773 17.3707 43.808 17.104C43.3493 16.8373 42.816 16.704 42.208 16.704C41.5573 16.704 40.976 16.8587 40.464 17.168C39.9627 17.4667 39.568 17.8933 39.28 18.448C39.0027 19.0027 38.864 19.6533 38.864 20.4C38.864 21.136 39.0027 21.7867 39.28 22.352C39.568 22.9067 39.9627 23.3387 40.464 23.648C40.976 23.9467 41.5573 24.096 42.208 24.096C42.816 24.096 43.3493 23.9627 43.808 23.696C44.2773 23.4187 44.64 23.0133 44.896 22.48H47.472C47.0987 23.6213 46.4427 24.512 45.504 25.152C44.576 25.7813 43.4827 26.096 42.224 26.096C41.1573 26.096 40.192 25.856 39.328 25.376C38.4747 24.8853 37.7973 24.208 37.296 23.344C36.8053 22.48 36.56 21.4987 36.56 20.4ZM48.8092 21.536C48.8092 20.64 48.9852 19.8453 49.3372 19.152C49.6999 18.4587 50.1853 17.9253 50.7933 17.552C51.4119 17.1787 52.0999 16.992 52.8573 16.992C53.5186 16.992 54.0946 17.1253 54.5853 17.392C55.0866 17.6587 55.4866 17.9947 55.7853 18.4V17.136H58.0413V26H55.7853V24.704C55.4973 25.12 55.0973 25.4667 54.5853 25.744C54.0839 26.0107 53.5026 26.144 52.8413 26.144C52.0946 26.144 51.4119 25.952 50.7933 25.568C50.1853 25.184 49.6999 24.6453 49.3372 23.952C48.9852 23.248 48.8092 22.4427 48.8092 21.536ZM55.7853 21.568C55.7853 21.024 55.6786 20.56 55.4653 20.176C55.2519 19.7813 54.9639 19.4827 54.6013 19.28C54.2386 19.0667 53.8493 18.96 53.4333 18.96C53.0173 18.96 52.6333 19.0613 52.2812 19.264C51.9293 19.4667 51.6413 19.7653 51.4173 20.16C51.2039 20.544 51.0973 21.0027 51.0973 21.536C51.0973 22.0693 51.2039 22.5387 51.4173 22.944C51.6413 23.3387 51.9293 23.6427 52.2812 23.856C52.6439 24.0693 53.0279 24.176 53.4333 24.176C53.8493 24.176 54.2386 24.0747 54.6013 23.872C54.9639 23.6587 55.2519 23.36 55.4653 22.976C55.6786 22.5813 55.7853 22.112 55.7853 21.568ZM63.621 26.144C62.8957 26.144 62.245 26.016 61.669 25.76C61.093 25.4933 60.6343 25.136 60.293 24.688C59.9623 24.24 59.781 23.744 59.749 23.2H62.005C62.0477 23.5413 62.213 23.824 62.501 24.048C62.7997 24.272 63.1677 24.384 63.605 24.384C64.0317 24.384 64.3623 24.2987 64.597 24.128C64.8423 23.9573 64.965 23.7387 64.965 23.472C64.965 23.184 64.8157 22.9707 64.517 22.832C64.229 22.6827 63.765 22.5227 63.125 22.352C62.4637 22.192 61.9197 22.0267 61.493 21.856C61.077 21.6853 60.7143 21.424 60.405 21.072C60.1063 20.72 59.957 20.2453 59.957 19.648C59.957 19.1573 60.0957 18.7093 60.373 18.304C60.661 17.8987 61.0663 17.5787 61.589 17.344C62.1223 17.1093 62.7463 16.992 63.461 16.992C64.517 16.992 65.3597 17.2587 65.989 17.792C66.6183 18.3147 66.965 19.024 67.029 19.92H64.885C64.853 19.568 64.7037 19.2907 64.437 19.088C64.181 18.8747 63.8343 18.768 63.397 18.768C62.9917 18.768 62.677 18.8427 62.453 18.992C62.2397 19.1413 62.133 19.3493 62.133 19.616C62.133 19.9147 62.2823 20.144 62.581 20.304C62.8797 20.4533 63.3437 20.608 63.973 20.768C64.613 20.928 65.141 21.0933 65.557 21.264C65.973 21.4347 66.3303 21.7013 66.629 22.064C66.9383 22.416 67.0983 22.8853 67.109 23.472C67.109 23.984 66.965 24.4427 66.677 24.848C66.3997 25.2533 65.9943 25.5733 65.461 25.808C64.9383 26.032 64.325 26.144 63.621 26.144ZM68.3717 21.536C68.3717 20.64 68.5477 19.8453 68.8997 19.152C69.2624 18.4587 69.7478 17.9253 70.3558 17.552C70.9744 17.1787 71.6624 16.992 72.4198 16.992C73.0811 16.992 73.6571 17.1253 74.1478 17.392C74.6491 17.6587 75.0491 17.9947 75.3478 18.4V17.136H77.6038V26H75.3478V24.704C75.0598 25.12 74.6598 25.4667 74.1478 25.744C73.6464 26.0107 73.0651 26.144 72.4038 26.144C71.6571 26.144 70.9744 25.952 70.3558 25.568C69.7478 25.184 69.2624 24.6453 68.8997 23.952C68.5477 23.248 68.3717 22.4427 68.3717 21.536ZM75.3478 21.568C75.3478 21.024 75.2411 20.56 75.0278 20.176C74.8144 19.7813 74.5264 19.4827 74.1638 19.28C73.8011 19.0667 73.4118 18.96 72.9958 18.96C72.5798 18.96 72.1958 19.0613 71.8438 19.264C71.4918 19.4667 71.2038 19.7653 70.9798 20.16C70.7664 20.544 70.6598 21.0027 70.6598 21.536C70.6598 22.0693 70.7664 22.5387 70.9798 22.944C71.2038 23.3387 71.4918 23.6427 71.8438 23.856C72.2064 24.0693 72.5904 24.176 72.9958 24.176C73.4118 24.176 73.8011 24.0747 74.1638 23.872C74.5264 23.6587 74.8144 23.36 75.0278 22.976C75.2411 22.5813 75.3478 22.112 75.3478 21.568ZM91.844 21.376C91.844 21.696 91.8227 21.984 91.78 22.24H85.3C85.3533 22.88 85.5773 23.3813 85.972 23.744C86.3667 24.1067 86.852 24.288 87.428 24.288C88.26 24.288 88.852 23.9307 89.204 23.216H91.62C91.364 24.0693 90.8733 24.7733 90.148 25.328C89.4227 25.872 88.532 26.144 87.476 26.144C86.6227 26.144 85.8547 25.9573 85.172 25.584C84.5 25.2 83.972 24.6613 83.588 23.968C83.2147 23.2747 83.028 22.4747 83.028 21.568C83.028 20.6507 83.2147 19.8453 83.588 19.152C83.9613 18.4587 84.484 17.9253 85.156 17.552C85.828 17.1787 86.6013 16.992 87.476 16.992C88.3187 16.992 89.0707 17.1733 89.732 17.536C90.404 17.8987 90.9213 18.416 91.284 19.088C91.6573 19.7493 91.844 20.512 91.844 21.376ZM89.524 20.736C89.5133 20.16 89.3053 19.7013 88.9 19.36C88.4947 19.008 87.9987 18.832 87.412 18.832C86.8573 18.832 86.388 19.0027 86.004 19.344C85.6307 19.6747 85.4013 20.1387 85.316 20.736H89.524ZM103.804 14.832V22.672C103.804 23.76 103.489 24.608 102.86 25.216C102.23 25.8133 101.388 26.112 100.332 26.112C99.2648 26.112 98.4008 25.8027 97.7395 25.184C97.0888 24.5653 96.7635 23.7013 96.7635 22.592H99.0035C99.0142 23.072 99.1262 23.4453 99.3395 23.712C99.5635 23.9787 99.8835 24.112 100.299 24.112C100.705 24.112 101.014 23.984 101.228 23.728C101.441 23.472 101.548 23.12 101.548 22.672V14.832H103.804ZM105.84 21.536C105.84 20.64 106.016 19.8453 106.368 19.152C106.731 18.4587 107.217 17.9253 107.825 17.552C108.443 17.1787 109.131 16.992 109.889 16.992C110.55 16.992 111.126 17.1253 111.617 17.392C112.118 17.6587 112.518 17.9947 112.817 18.4V17.136H115.073V26H112.817V24.704C112.529 25.12 112.129 25.4667 111.617 25.744C111.115 26.0107 110.534 26.144 109.873 26.144C109.126 26.144 108.443 25.952 107.825 25.568C107.217 25.184 106.731 24.6453 106.368 23.952C106.016 23.248 105.84 22.4427 105.84 21.536ZM112.817 21.568C112.817 21.024 112.71 20.56 112.497 20.176C112.283 19.7813 111.995 19.4827 111.633 19.28C111.27 19.0667 110.881 18.96 110.465 18.96C110.049 18.96 109.665 19.0613 109.312 19.264C108.961 19.4667 108.673 19.7653 108.449 20.16C108.235 20.544 108.129 21.0027 108.129 21.536C108.129 22.0693 108.235 22.5387 108.449 22.944C108.673 23.3387 108.961 23.6427 109.312 23.856C109.675 24.0693 110.059 24.176 110.465 24.176C110.881 24.176 111.27 24.0747 111.633 23.872C111.995 23.6587 112.283 23.36 112.497 22.976C112.71 22.5813 112.817 22.112 112.817 21.568ZM119.5 18.512C119.788 18.0427 120.162 17.6747 120.62 17.408C121.09 17.1413 121.623 17.008 122.22 17.008V19.36H121.628C120.924 19.36 120.391 19.5253 120.028 19.856C119.676 20.1867 119.5 20.7627 119.5 21.584V26H117.26V17.136H119.5V18.512ZM123.153 21.536C123.153 20.64 123.329 19.8453 123.681 19.152C124.044 18.4587 124.534 17.9253 125.153 17.552C125.772 17.1787 126.46 16.992 127.217 16.992C127.793 16.992 128.342 17.12 128.865 17.376C129.388 17.6213 129.804 17.952 130.113 18.368V14.16H132.385V26H130.113V24.688C129.836 25.1253 129.446 25.4773 128.945 25.744C128.444 26.0107 127.862 26.144 127.201 26.144C126.454 26.144 125.772 25.952 125.153 25.568C124.534 25.184 124.044 24.6453 123.681 23.952C123.329 23.248 123.153 22.4427 123.153 21.536ZM130.129 21.568C130.129 21.024 130.022 20.56 129.809 20.176C129.596 19.7813 129.308 19.4827 128.945 19.28C128.582 19.0667 128.193 18.96 127.777 18.96C127.361 18.96 126.977 19.0613 126.625 19.264C126.273 19.4667 125.985 19.7653 125.761 20.16C125.548 20.544 125.441 21.0027 125.441 21.536C125.441 22.0693 125.548 22.5387 125.761 22.944C125.985 23.3387 126.273 23.6427 126.625 23.856C126.988 24.0693 127.372 24.176 127.777 24.176C128.193 24.176 128.582 24.0747 128.945 23.872C129.308 23.6587 129.596 23.36 129.809 22.976C130.022 22.5813 130.129 22.112 130.129 21.568ZM135.709 16.08C135.314 16.08 134.983 15.9573 134.717 15.712C134.461 15.456 134.333 15.1413 134.333 14.768C134.333 14.3947 134.461 14.0853 134.717 13.84C134.983 13.584 135.314 13.456 135.709 13.456C136.103 13.456 136.429 13.584 136.685 13.84C136.951 14.0853 137.085 14.3947 137.085 14.768C137.085 15.1413 136.951 15.456 136.685 15.712C136.429 15.9573 136.103 16.08 135.709 16.08ZM136.813 17.136V26H134.573V17.136H136.813ZM150.034 17.008C151.122 17.008 151.997 17.344 152.658 18.016C153.33 18.6773 153.666 19.6053 153.666 20.8V26H151.426V21.104C151.426 20.4107 151.25 19.8827 150.898 19.52C150.546 19.1467 150.066 18.96 149.458 18.96C148.85 18.96 148.365 19.1467 148.002 19.52C147.65 19.8827 147.474 20.4107 147.474 21.104V26H145.234V21.104C145.234 20.4107 145.058 19.8827 144.706 19.52C144.354 19.1467 143.874 18.96 143.266 18.96C142.647 18.96 142.157 19.1467 141.794 19.52C141.442 19.8827 141.266 20.4107 141.266 21.104V26H139.026V17.136H141.266V18.208C141.554 17.8347 141.922 17.5413 142.37 17.328C142.829 17.1147 143.33 17.008 143.874 17.008C144.567 17.008 145.186 17.1573 145.73 17.456C146.274 17.744 146.695 18.16 146.994 18.704C147.282 18.192 147.698 17.7813 148.242 17.472C148.797 17.1627 149.394 17.008 150.034 17.008Z" fill="#DB4444"/>
</svg>
