<svg width="98" height="40" viewBox="0 0 98 40" fill="none" xmlns="http://www.w3.org/2000/svg">
<rect width="20" height="40" rx="4" fill="#DB4444"/>
<path d="M42.864 26L40.4 21.648H39.344V26H37.104V14.832H41.296C42.16 14.832 42.896 14.9867 43.504 15.296C44.112 15.5947 44.5653 16.0053 44.864 16.528C45.1733 17.04 45.328 17.616 45.328 18.256C45.328 18.992 45.1147 19.6587 44.688 20.256C44.2613 20.8427 43.6267 21.248 42.784 21.472L45.456 26H42.864ZM39.344 19.968H41.216C41.824 19.968 42.2773 19.824 42.576 19.536C42.8747 19.2373 43.024 18.8267 43.024 18.304C43.024 17.792 42.8747 17.3973 42.576 17.12C42.2773 16.832 41.824 16.688 41.216 16.688H39.344V19.968ZM51.29 26.144C50.4367 26.144 49.6687 25.9573 48.986 25.584C48.3033 25.2 47.7647 24.6613 47.37 23.968C46.986 23.2747 46.794 22.4747 46.794 21.568C46.794 20.6613 46.9913 19.8613 47.386 19.168C47.7913 18.4747 48.3407 17.9413 49.034 17.568C49.7273 17.184 50.5007 16.992 51.354 16.992C52.2073 16.992 52.9807 17.184 53.674 17.568C54.3673 17.9413 54.9113 18.4747 55.306 19.168C55.7113 19.8613 55.914 20.6613 55.914 21.568C55.914 22.4747 55.706 23.2747 55.29 23.968C54.8847 24.6613 54.33 25.2 53.626 25.584C52.9327 25.9573 52.154 26.144 51.29 26.144ZM51.29 24.192C51.6953 24.192 52.074 24.096 52.426 23.904C52.7887 23.7013 53.0767 23.4027 53.29 23.008C53.5033 22.6133 53.61 22.1333 53.61 21.568C53.61 20.7253 53.386 20.08 52.938 19.632C52.5007 19.1733 51.962 18.944 51.322 18.944C50.682 18.944 50.1433 19.1733 49.706 19.632C49.2793 20.08 49.066 20.7253 49.066 21.568C49.066 22.4107 49.274 23.0613 49.69 23.52C50.1167 23.968 50.65 24.192 51.29 24.192ZM65.9251 17.136V26H63.6691V24.88C63.3811 25.264 63.0025 25.568 62.5331 25.792C62.0745 26.0053 61.5731 26.112 61.0291 26.112C60.3358 26.112 59.7225 25.968 59.1891 25.68C58.6558 25.3813 58.2345 24.9493 57.9251 24.384C57.6265 23.808 57.4771 23.1253 57.4771 22.336V17.136H59.7171V22.016C59.7171 22.72 59.8931 23.264 60.2451 23.648C60.5971 24.0213 61.0771 24.208 61.6851 24.208C62.3038 24.208 62.7891 24.0213 63.1411 23.648C63.4931 23.264 63.6691 22.72 63.6691 22.016V17.136H65.9251ZM70.3753 18.416C70.6633 18.0107 71.0579 17.6747 71.5593 17.408C72.0713 17.1307 72.6526 16.992 73.3033 16.992C74.0606 16.992 74.7433 17.1787 75.3513 17.552C75.9699 17.9253 76.4553 18.4587 76.8073 19.152C77.1699 19.8347 77.3513 20.6293 77.3513 21.536C77.3513 22.4427 77.1699 23.248 76.8073 23.952C76.4553 24.6453 75.9699 25.184 75.3513 25.568C74.7433 25.952 74.0606 26.144 73.3033 26.144C72.6526 26.144 72.0766 26.0107 71.5753 25.744C71.0846 25.4773 70.6846 25.1413 70.3753 24.736V30.224H68.1353V17.136H70.3753V18.416ZM75.0633 21.536C75.0633 21.0027 74.9513 20.544 74.7273 20.16C74.5139 19.7653 74.2259 19.4667 73.8633 19.264C73.5113 19.0613 73.1273 18.96 72.7113 18.96C72.3059 18.96 71.9219 19.0667 71.5593 19.28C71.2073 19.4827 70.9193 19.7813 70.6953 20.176C70.4819 20.5707 70.3753 21.0347 70.3753 21.568C70.3753 22.1013 70.4819 22.5653 70.6953 22.96C70.9193 23.3547 71.2073 23.6587 71.5593 23.872C71.9219 24.0747 72.3059 24.176 72.7113 24.176C73.1273 24.176 73.5113 24.0693 73.8633 23.856C74.2259 23.6427 74.5139 23.3387 74.7273 22.944C74.9513 22.5493 75.0633 22.08 75.0633 21.536ZM78.403 21.536C78.403 20.64 78.579 19.8453 78.931 19.152C79.2937 18.4587 79.779 17.9253 80.387 17.552C81.0057 17.1787 81.6937 16.992 82.451 16.992C83.1123 16.992 83.6883 17.1253 84.179 17.392C84.6803 17.6587 85.0803 17.9947 85.379 18.4V17.136H87.635V26H85.379V24.704C85.091 25.12 84.691 25.4667 84.179 25.744C83.6777 26.0107 83.0963 26.144 82.435 26.144C81.6883 26.144 81.0057 25.952 80.387 25.568C79.779 25.184 79.2937 24.6453 78.931 23.952C78.579 23.248 78.403 22.4427 78.403 21.536ZM85.379 21.568C85.379 21.024 85.2723 20.56 85.059 20.176C84.8457 19.7813 84.5577 19.4827 84.195 19.28C83.8323 19.0667 83.443 18.96 83.027 18.96C82.611 18.96 82.227 19.0613 81.875 19.264C81.523 19.4667 81.235 19.7653 81.011 20.16C80.7977 20.544 80.691 21.0027 80.691 21.536C80.691 22.0693 80.7977 22.5387 81.011 22.944C81.235 23.3387 81.523 23.6427 81.875 23.856C82.2377 24.0693 82.6217 24.176 83.027 24.176C83.443 24.176 83.8323 24.0747 84.195 23.872C84.5577 23.6587 84.8457 23.36 85.059 22.976C85.2723 22.5813 85.379 22.112 85.379 21.568ZM93.2148 26.144C92.4894 26.144 91.8388 26.016 91.2628 25.76C90.6868 25.4933 90.2281 25.136 89.8868 24.688C89.5561 24.24 89.3748 23.744 89.3428 23.2H91.5988C91.6414 23.5413 91.8068 23.824 92.0948 24.048C92.3934 24.272 92.7614 24.384 93.1988 24.384C93.6254 24.384 93.9561 24.2987 94.1908 24.128C94.4361 23.9573 94.5588 23.7387 94.5588 23.472C94.5588 23.184 94.4094 22.9707 94.1108 22.832C93.8228 22.6827 93.3588 22.5227 92.7188 22.352C92.0574 22.192 91.5134 22.0267 91.0868 21.856C90.6708 21.6853 90.3081 21.424 89.9988 21.072C89.7001 20.72 89.5508 20.2453 89.5508 19.648C89.5508 19.1573 89.6894 18.7093 89.9668 18.304C90.2548 17.8987 90.6601 17.5787 91.1828 17.344C91.7161 17.1093 92.3401 16.992 93.0548 16.992C94.1108 16.992 94.9534 17.2587 95.5828 17.792C96.2121 18.3147 96.5588 19.024 96.6228 19.92H94.4788C94.4468 19.568 94.2974 19.2907 94.0308 19.088C93.7748 18.8747 93.4281 18.768 92.9908 18.768C92.5854 18.768 92.2708 18.8427 92.0468 18.992C91.8334 19.1413 91.7268 19.3493 91.7268 19.616C91.7268 19.9147 91.8761 20.144 92.1748 20.304C92.4734 20.4533 92.9374 20.608 93.5668 20.768C94.2068 20.928 94.7348 21.0933 95.1508 21.264C95.5668 21.4347 95.9241 21.7013 96.2228 22.064C96.5321 22.416 96.6921 22.8853 96.7028 23.472C96.7028 23.984 96.5588 24.4427 96.2708 24.848C95.9934 25.2533 95.5881 25.5733 95.0548 25.808C94.5321 26.032 93.9188 26.144 93.2148 26.144Z" fill="#DB4444"/>
</svg>
