<svg width="370" height="33" viewBox="0 0 370 33" fill="none" xmlns="http://www.w3.org/2000/svg">
<path opacity="0.4" d="M2.688 8.532V12.26H6.752V13.46H2.688V17.3H7.232V18.5H1.232V7.332H7.232V8.532H2.688ZM19.9791 9.572C20.6618 9.572 21.2698 9.716 21.8031 10.004C22.3365 10.2813 22.7578 10.7027 23.0671 11.268C23.3765 11.8333 23.5311 12.5213 23.5311 13.332V18.5H22.0911V13.54C22.0911 12.6653 21.8725 11.9987 21.4351 11.54C21.0085 11.0707 20.4271 10.836 19.6911 10.836C18.9338 10.836 18.3311 11.0813 17.8831 11.572C17.4351 12.052 17.2111 12.7507 17.2111 13.668V18.5H15.7711V13.54C15.7711 12.6653 15.5525 11.9987 15.1151 11.54C14.6885 11.0707 14.1071 10.836 13.3711 10.836C12.6138 10.836 12.0111 11.0813 11.5631 11.572C11.1151 12.052 10.8911 12.7507 10.8911 13.668V18.5H9.43513V9.732H10.8911V10.996C11.1791 10.5373 11.5631 10.1853 12.0431 9.94C12.5338 9.69467 13.0725 9.572 13.6591 9.572C14.3951 9.572 15.0458 9.73733 15.6111 10.068C16.1765 10.3987 16.5978 10.884 16.8751 11.524C17.1205 10.9053 17.5258 10.4253 18.0911 10.084C18.6565 9.74267 19.2858 9.572 19.9791 9.572ZM25.3755 14.084C25.3755 13.188 25.5568 12.404 25.9195 11.732C26.2822 11.0493 26.7782 10.5213 27.4075 10.148C28.0475 9.77467 28.7568 9.588 29.5355 9.588C30.3035 9.588 30.9702 9.75333 31.5355 10.084C32.1008 10.4147 32.5222 10.8307 32.7995 11.332V9.732H34.2715V18.5H32.7995V16.868C32.5115 17.38 32.0795 17.8067 31.5035 18.148C30.9382 18.4787 30.2768 18.644 29.5195 18.644C28.7408 18.644 28.0368 18.452 27.4075 18.068C26.7782 17.684 26.2822 17.1453 25.9195 16.452C25.5568 15.7587 25.3755 14.9693 25.3755 14.084ZM32.7995 14.1C32.7995 13.4387 32.6662 12.8627 32.3995 12.372C32.1328 11.8813 31.7702 11.508 31.3115 11.252C30.8635 10.9853 30.3675 10.852 29.8235 10.852C29.2795 10.852 28.7835 10.98 28.3355 11.236C27.8875 11.492 27.5302 11.8653 27.2635 12.356C26.9968 12.8467 26.8635 13.4227 26.8635 14.084C26.8635 14.756 26.9968 15.3427 27.2635 15.844C27.5302 16.3347 27.8875 16.7133 28.3355 16.98C28.7835 17.236 29.2795 17.364 29.8235 17.364C30.3675 17.364 30.8635 17.236 31.3115 16.98C31.7702 16.7133 32.1328 16.3347 32.3995 15.844C32.6662 15.3427 32.7995 14.7613 32.7995 14.1ZM37.484 8.308C37.2067 8.308 36.972 8.212 36.78 8.02C36.588 7.828 36.492 7.59333 36.492 7.316C36.492 7.03867 36.588 6.804 36.78 6.612C36.972 6.42 37.2067 6.324 37.484 6.324C37.7507 6.324 37.9747 6.42 38.156 6.612C38.348 6.804 38.444 7.03867 38.444 7.316C38.444 7.59333 38.348 7.828 38.156 8.02C37.9747 8.212 37.7507 8.308 37.484 8.308ZM38.188 9.732V18.5H36.732V9.732H38.188ZM42.1255 6.66V18.5H40.6695V6.66H42.1255ZM52.6966 18.644C51.8753 18.644 51.1286 18.4573 50.4566 18.084C49.7953 17.7107 49.2726 17.1827 48.8886 16.5C48.5153 15.8067 48.3286 15.0067 48.3286 14.1C48.3286 13.204 48.5206 12.4147 48.9046 11.732C49.2993 11.0387 49.8326 10.5107 50.5046 10.148C51.1766 9.77467 51.9286 9.588 52.7606 9.588C53.5926 9.588 54.3446 9.77467 55.0166 10.148C55.6886 10.5107 56.2166 11.0333 56.6006 11.716C56.9953 12.3987 57.1926 13.1933 57.1926 14.1C57.1926 15.0067 56.99 15.8067 56.5846 16.5C56.19 17.1827 55.6513 17.7107 54.9686 18.084C54.286 18.4573 53.5286 18.644 52.6966 18.644ZM52.6966 17.364C53.2193 17.364 53.71 17.2413 54.1686 16.996C54.6273 16.7507 54.9953 16.3827 55.2726 15.892C55.5606 15.4013 55.7046 14.804 55.7046 14.1C55.7046 13.396 55.566 12.7987 55.2886 12.308C55.0113 11.8173 54.6486 11.4547 54.2006 11.22C53.7526 10.9747 53.2673 10.852 52.7446 10.852C52.2113 10.852 51.7206 10.9747 51.2726 11.22C50.8353 11.4547 50.4833 11.8173 50.2166 12.308C49.95 12.7987 49.8166 13.396 49.8166 14.1C49.8166 14.8147 49.9446 15.4173 50.2006 15.908C50.4673 16.3987 50.8193 16.7667 51.2566 17.012C51.694 17.2467 52.174 17.364 52.6966 17.364ZM60.563 11.156C60.819 10.6547 61.1817 10.2653 61.651 9.988C62.131 9.71067 62.7123 9.572 63.395 9.572V11.076H63.011C61.379 11.076 60.563 11.9613 60.563 13.732V18.5H59.107V9.732H60.563V11.156ZM76.7974 10.612C76.7974 11.54 76.4774 12.3133 75.8374 12.932C75.208 13.54 74.2427 13.844 72.9414 13.844H70.7974V18.5H69.3414V7.348H72.9414C74.2 7.348 75.1547 7.652 75.8054 8.26C76.4667 8.868 76.7974 9.652 76.7974 10.612ZM72.9414 12.644C73.752 12.644 74.3494 12.468 74.7334 12.116C75.1174 11.764 75.3094 11.2627 75.3094 10.612C75.3094 9.236 74.52 8.548 72.9414 8.548H70.7974V12.644H72.9414ZM82.959 9.572C83.6203 9.572 84.2177 9.716 84.751 10.004C85.2843 10.2813 85.7003 10.7027 85.999 11.268C86.3083 11.8333 86.463 12.5213 86.463 13.332V18.5H85.023V13.54C85.023 12.6653 84.8043 11.9987 84.367 11.54C83.9297 11.0707 83.3323 10.836 82.575 10.836C81.807 10.836 81.1937 11.076 80.735 11.556C80.287 12.036 80.063 12.7347 80.063 13.652V18.5H78.607V6.66H80.063V10.98C80.351 10.532 80.7457 10.1853 81.247 9.94C81.759 9.69467 82.3297 9.572 82.959 9.572ZM92.6654 18.644C91.844 18.644 91.0974 18.4573 90.4254 18.084C89.764 17.7107 89.2414 17.1827 88.8574 16.5C88.484 15.8067 88.2974 15.0067 88.2974 14.1C88.2974 13.204 88.4894 12.4147 88.8734 11.732C89.268 11.0387 89.8014 10.5107 90.4734 10.148C91.1454 9.77467 91.8974 9.588 92.7294 9.588C93.5614 9.588 94.3134 9.77467 94.9854 10.148C95.6574 10.5107 96.1854 11.0333 96.5694 11.716C96.964 12.3987 97.1614 13.1933 97.1614 14.1C97.1614 15.0067 96.9587 15.8067 96.5534 16.5C96.1587 17.1827 95.62 17.7107 94.9374 18.084C94.2547 18.4573 93.4974 18.644 92.6654 18.644ZM92.6654 17.364C93.188 17.364 93.6787 17.2413 94.1374 16.996C94.596 16.7507 94.964 16.3827 95.2414 15.892C95.5294 15.4013 95.6734 14.804 95.6734 14.1C95.6734 13.396 95.5347 12.7987 95.2574 12.308C94.98 11.8173 94.6174 11.4547 94.1694 11.22C93.7214 10.9747 93.236 10.852 92.7134 10.852C92.18 10.852 91.6894 10.9747 91.2414 11.22C90.804 11.4547 90.452 11.8173 90.1854 12.308C89.9187 12.7987 89.7854 13.396 89.7854 14.1C89.7854 14.8147 89.9134 15.4173 90.1694 15.908C90.436 16.3987 90.788 16.7667 91.2254 17.012C91.6627 17.2467 92.1427 17.364 92.6654 17.364ZM103.348 9.572C104.414 9.572 105.278 9.89733 105.94 10.548C106.601 11.188 106.932 12.116 106.932 13.332V18.5H105.492V13.54C105.492 12.6653 105.273 11.9987 104.836 11.54C104.398 11.0707 103.801 10.836 103.044 10.836C102.276 10.836 101.662 11.076 101.204 11.556C100.756 12.036 100.532 12.7347 100.532 13.652V18.5H99.0758V9.732H100.532V10.98C100.82 10.532 101.209 10.1853 101.7 9.94C102.201 9.69467 102.75 9.572 103.348 9.572ZM117.31 13.78C117.31 14.0573 117.294 14.3507 117.262 14.66H110.254C110.307 15.524 110.601 16.2013 111.134 16.692C111.678 17.172 112.334 17.412 113.102 17.412C113.731 17.412 114.254 17.268 114.67 16.98C115.097 16.6813 115.395 16.2867 115.566 15.796H117.134C116.899 16.6387 116.43 17.3267 115.726 17.86C115.022 18.3827 114.147 18.644 113.102 18.644C112.27 18.644 111.523 18.4573 110.862 18.084C110.211 17.7107 109.699 17.1827 109.326 16.5C108.953 15.8067 108.766 15.0067 108.766 14.1C108.766 13.1933 108.947 12.3987 109.31 11.716C109.673 11.0333 110.179 10.5107 110.83 10.148C111.491 9.77467 112.249 9.588 113.102 9.588C113.934 9.588 114.67 9.76933 115.31 10.132C115.95 10.4947 116.441 10.996 116.782 11.636C117.134 12.2653 117.31 12.98 117.31 13.78ZM115.806 13.476C115.806 12.9213 115.683 12.4467 115.438 12.052C115.193 11.6467 114.857 11.3427 114.43 11.14C114.014 10.9267 113.55 10.82 113.038 10.82C112.302 10.82 111.673 11.0547 111.15 11.524C110.638 11.9933 110.345 12.644 110.27 13.476H115.806ZM132.266 18.5H130.81L124.954 9.62V18.5H123.498V7.332H124.954L130.81 16.196V7.332H132.266V18.5ZM142.524 9.732V18.5H141.068V17.204C140.79 17.652 140.401 18.004 139.9 18.26C139.409 18.5053 138.865 18.628 138.268 18.628C137.585 18.628 136.972 18.4893 136.428 18.212C135.884 17.924 135.452 17.4973 135.132 16.932C134.822 16.3667 134.668 15.6787 134.668 14.868V9.732H136.108V14.676C136.108 15.54 136.326 16.2067 136.764 16.676C137.201 17.1347 137.798 17.364 138.556 17.364C139.334 17.364 139.948 17.124 140.396 16.644C140.844 16.164 141.068 15.4653 141.068 14.548V9.732H142.524ZM155.526 9.572C156.209 9.572 156.817 9.716 157.35 10.004C157.883 10.2813 158.305 10.7027 158.614 11.268C158.923 11.8333 159.078 12.5213 159.078 13.332V18.5H157.638V13.54C157.638 12.6653 157.419 11.9987 156.982 11.54C156.555 11.0707 155.974 10.836 155.238 10.836C154.481 10.836 153.878 11.0813 153.43 11.572C152.982 12.052 152.758 12.7507 152.758 13.668V18.5H151.318V13.54C151.318 12.6653 151.099 11.9987 150.662 11.54C150.235 11.0707 149.654 10.836 148.918 10.836C148.161 10.836 147.558 11.0813 147.11 11.572C146.662 12.052 146.438 12.7507 146.438 13.668V18.5H144.982V9.732H146.438V10.996C146.726 10.5373 147.11 10.1853 147.59 9.94C148.081 9.69467 148.619 9.572 149.206 9.572C149.942 9.572 150.593 9.73733 151.158 10.068C151.723 10.3987 152.145 10.884 152.422 11.524C152.667 10.9053 153.073 10.4253 153.638 10.084C154.203 9.74267 154.833 9.572 155.526 9.572ZM162.922 11.364C163.221 10.8413 163.658 10.4147 164.234 10.084C164.81 9.75333 165.466 9.588 166.202 9.588C166.992 9.588 167.701 9.77467 168.33 10.148C168.96 10.5213 169.456 11.0493 169.818 11.732C170.181 12.404 170.362 13.188 170.362 14.084C170.362 14.9693 170.181 15.7587 169.818 16.452C169.456 17.1453 168.954 17.684 168.314 18.068C167.685 18.452 166.981 18.644 166.202 18.644C165.445 18.644 164.778 18.4787 164.202 18.148C163.637 17.8173 163.21 17.396 162.922 16.884V18.5H161.466V6.66H162.922V11.364ZM168.874 14.084C168.874 13.4227 168.741 12.8467 168.474 12.356C168.208 11.8653 167.845 11.492 167.386 11.236C166.938 10.98 166.442 10.852 165.898 10.852C165.365 10.852 164.869 10.9853 164.41 11.252C163.962 11.508 163.6 11.8867 163.322 12.388C163.056 12.8787 162.922 13.4493 162.922 14.1C162.922 14.7613 163.056 15.3427 163.322 15.844C163.6 16.3347 163.962 16.7133 164.41 16.98C164.869 17.236 165.365 17.364 165.898 17.364C166.442 17.364 166.938 17.236 167.386 16.98C167.845 16.7133 168.208 16.3347 168.474 15.844C168.741 15.3427 168.874 14.756 168.874 14.084ZM180.279 13.78C180.279 14.0573 180.263 14.3507 180.231 14.66H173.223C173.276 15.524 173.57 16.2013 174.103 16.692C174.647 17.172 175.303 17.412 176.071 17.412C176.7 17.412 177.223 17.268 177.639 16.98C178.066 16.6813 178.364 16.2867 178.535 15.796H180.103C179.868 16.6387 179.399 17.3267 178.695 17.86C177.991 18.3827 177.116 18.644 176.071 18.644C175.239 18.644 174.492 18.4573 173.831 18.084C173.18 17.7107 172.668 17.1827 172.295 16.5C171.922 15.8067 171.735 15.0067 171.735 14.1C171.735 13.1933 171.916 12.3987 172.279 11.716C172.642 11.0333 173.148 10.5107 173.799 10.148C174.46 9.77467 175.218 9.588 176.071 9.588C176.903 9.588 177.639 9.76933 178.279 10.132C178.919 10.4947 179.41 10.996 179.751 11.636C180.103 12.2653 180.279 12.98 180.279 13.78ZM178.775 13.476C178.775 12.9213 178.652 12.4467 178.407 12.052C178.162 11.6467 177.826 11.3427 177.399 11.14C176.983 10.9267 176.519 10.82 176.007 10.82C175.271 10.82 174.642 11.0547 174.119 11.524C173.607 11.9933 173.314 12.644 173.239 13.476H178.775ZM183.657 11.156C183.913 10.6547 184.275 10.2653 184.745 9.988C185.225 9.71067 185.806 9.572 186.489 9.572V11.076H186.105C184.473 11.076 183.657 11.9613 183.657 13.732V18.5H182.201V9.732H183.657V11.156Z" fill="black"/>
<g opacity="0.5">
<line y1="32" x2="370" y2="32" stroke="black"/>
</g>
</svg>
