<svg width="99" height="40" viewBox="0 0 99 40" fill="none" xmlns="http://www.w3.org/2000/svg">
<rect width="20" height="40" rx="4" fill="#DB4444"/>
<path d="M36.56 20.4C36.56 19.3013 36.8053 18.32 37.296 17.456C37.7973 16.5813 38.4747 15.904 39.328 15.424C40.192 14.9333 41.1573 14.688 42.224 14.688C43.472 14.688 44.5653 15.008 45.504 15.648C46.4427 16.288 47.0987 17.1733 47.472 18.304H44.896C44.64 17.7707 44.2773 17.3707 43.808 17.104C43.3493 16.8373 42.816 16.704 42.208 16.704C41.5573 16.704 40.976 16.8587 40.464 17.168C39.9627 17.4667 39.568 17.8933 39.28 18.448C39.0027 19.0027 38.864 19.6533 38.864 20.4C38.864 21.136 39.0027 21.7867 39.28 22.352C39.568 22.9067 39.9627 23.3387 40.464 23.648C40.976 23.9467 41.5573 24.096 42.208 24.096C42.816 24.096 43.3493 23.9627 43.808 23.696C44.2773 23.4187 44.64 23.0133 44.896 22.48H47.472C47.0987 23.6213 46.4427 24.512 45.504 25.152C44.576 25.7813 43.4827 26.096 42.224 26.096C41.1573 26.096 40.192 25.856 39.328 25.376C38.4747 24.8853 37.7973 24.208 37.296 23.344C36.8053 22.48 36.56 21.4987 36.56 20.4ZM51.6253 14.16V26H49.3853V14.16H51.6253ZM57.7744 26.144C56.921 26.144 56.153 25.9573 55.4704 25.584C54.7877 25.2 54.249 24.6613 53.8544 23.968C53.4704 23.2747 53.2784 22.4747 53.2784 21.568C53.2784 20.6613 53.4757 19.8613 53.8704 19.168C54.2757 18.4747 54.825 17.9413 55.5184 17.568C56.2117 17.184 56.985 16.992 57.8384 16.992C58.6917 16.992 59.465 17.184 60.1584 17.568C60.8517 17.9413 61.3957 18.4747 61.7904 19.168C62.1957 19.8613 62.3984 20.6613 62.3984 21.568C62.3984 22.4747 62.1904 23.2747 61.7744 23.968C61.369 24.6613 60.8144 25.2 60.1104 25.584C59.417 25.9573 58.6384 26.144 57.7744 26.144ZM57.7744 24.192C58.1797 24.192 58.5584 24.096 58.9104 23.904C59.273 23.7013 59.561 23.4027 59.7744 23.008C59.9877 22.6133 60.0944 22.1333 60.0944 21.568C60.0944 20.7253 59.8704 20.08 59.4224 19.632C58.985 19.1733 58.4464 18.944 57.8064 18.944C57.1664 18.944 56.6277 19.1733 56.1904 19.632C55.7637 20.08 55.5504 20.7253 55.5504 21.568C55.5504 22.4107 55.7584 23.0613 56.1744 23.52C56.601 23.968 57.1344 24.192 57.7744 24.192ZM66.6495 18.976V23.264C66.6495 23.5627 66.7188 23.7813 66.8575 23.92C67.0068 24.048 67.2522 24.112 67.5935 24.112H68.6335V26H67.2255C65.3375 26 64.3935 25.0827 64.3935 23.248V18.976H63.3375V17.136H64.3935V14.944H66.6495V17.136H68.6335V18.976H66.6495ZM75.2366 17.008C75.9086 17.008 76.506 17.1573 77.0286 17.456C77.5513 17.744 77.9566 18.176 78.2446 18.752C78.5433 19.3173 78.6926 20 78.6926 20.8V26H76.4526V21.104C76.4526 20.4 76.2766 19.8613 75.9246 19.488C75.5726 19.104 75.0926 18.912 74.4846 18.912C73.866 18.912 73.3753 19.104 73.0126 19.488C72.6606 19.8613 72.4846 20.4 72.4846 21.104V26H70.2446V14.16H72.4846V18.24C72.7726 17.856 73.1566 17.5573 73.6366 17.344C74.1166 17.12 74.65 17.008 75.2366 17.008ZM89.0628 21.376C89.0628 21.696 89.0414 21.984 88.9988 22.24H82.5188C82.5721 22.88 82.7961 23.3813 83.1908 23.744C83.5854 24.1067 84.0708 24.288 84.6468 24.288C85.4788 24.288 86.0708 23.9307 86.4228 23.216H88.8388C88.5828 24.0693 88.0921 24.7733 87.3668 25.328C86.6414 25.872 85.7508 26.144 84.6948 26.144C83.8414 26.144 83.0734 25.9573 82.3908 25.584C81.7188 25.2 81.1908 24.6613 80.8068 23.968C80.4334 23.2747 80.2467 22.4747 80.2467 21.568C80.2467 20.6507 80.4334 19.8453 80.8068 19.152C81.1801 18.4587 81.7028 17.9253 82.3748 17.552C83.0468 17.1787 83.8201 16.992 84.6948 16.992C85.5374 16.992 86.2894 17.1733 86.9508 17.536C87.6228 17.8987 88.1401 18.416 88.5028 19.088C88.8761 19.7493 89.0628 20.512 89.0628 21.376ZM86.7428 20.736C86.7321 20.16 86.5241 19.7013 86.1188 19.36C85.7134 19.008 85.2174 18.832 84.6308 18.832C84.0761 18.832 83.6068 19.0027 83.2228 19.344C82.8494 19.6747 82.6201 20.1387 82.5348 20.736H86.7428ZM94.0898 26.144C93.3644 26.144 92.7138 26.016 92.1378 25.76C91.5618 25.4933 91.1031 25.136 90.7618 24.688C90.4311 24.24 90.2498 23.744 90.2178 23.2H92.4738C92.5164 23.5413 92.6818 23.824 92.9698 24.048C93.2684 24.272 93.6364 24.384 94.0738 24.384C94.5004 24.384 94.8311 24.2987 95.0658 24.128C95.3111 23.9573 95.4338 23.7387 95.4338 23.472C95.4338 23.184 95.2844 22.9707 94.9858 22.832C94.6978 22.6827 94.2338 22.5227 93.5938 22.352C92.9324 22.192 92.3884 22.0267 91.9618 21.856C91.5458 21.6853 91.1831 21.424 90.8738 21.072C90.5751 20.72 90.4258 20.2453 90.4258 19.648C90.4258 19.1573 90.5644 18.7093 90.8418 18.304C91.1298 17.8987 91.5351 17.5787 92.0578 17.344C92.5911 17.1093 93.2151 16.992 93.9298 16.992C94.9858 16.992 95.8284 17.2587 96.4578 17.792C97.0871 18.3147 97.4338 19.024 97.4978 19.92H95.3538C95.3218 19.568 95.1724 19.2907 94.9058 19.088C94.6498 18.8747 94.3031 18.768 93.8658 18.768C93.4604 18.768 93.1458 18.8427 92.9218 18.992C92.7084 19.1413 92.6018 19.3493 92.6018 19.616C92.6018 19.9147 92.7511 20.144 93.0498 20.304C93.3484 20.4533 93.8124 20.608 94.4418 20.768C95.0818 20.928 95.6098 21.0933 96.0258 21.264C96.4418 21.4347 96.7991 21.7013 97.0978 22.064C97.4071 22.416 97.5671 22.8853 97.5778 23.472C97.5778 23.984 97.4338 24.4427 97.1458 24.848C96.8684 25.2533 96.4631 25.5733 95.9298 25.808C95.4071 26.032 94.7938 26.144 94.0898 26.144Z" fill="#DB4444"/>
</svg>
