<svg width="125" height="40" viewBox="0 0 125 40" fill="none" xmlns="http://www.w3.org/2000/svg">
<rect width="20" height="40" rx="4" fill="#DB4444"/>
<path d="M44.704 14.832V16.64H41.728V26H39.488V16.64H36.512V14.832H44.704ZM51.3304 17.008C52.0024 17.008 52.5997 17.1573 53.1224 17.456C53.645 17.744 54.0504 18.176 54.3384 18.752C54.637 19.3173 54.7864 20 54.7864 20.8V26H52.5464V21.104C52.5464 20.4 52.3704 19.8613 52.0184 19.488C51.6664 19.104 51.1864 18.912 50.5784 18.912C49.9597 18.912 49.469 19.104 49.1064 19.488C48.7544 19.8613 48.5784 20.4 48.5784 21.104V26H46.3384V14.16H48.5784V18.24C48.8664 17.856 49.2504 17.5573 49.7304 17.344C50.2104 17.12 50.7437 17.008 51.3304 17.008ZM58.0525 16.08C57.6578 16.08 57.3272 15.9573 57.0605 15.712C56.8045 15.456 56.6765 15.1413 56.6765 14.768C56.6765 14.3947 56.8045 14.0853 57.0605 13.84C57.3272 13.584 57.6578 13.456 58.0525 13.456C58.4472 13.456 58.7725 13.584 59.0285 13.84C59.2952 14.0853 59.4285 14.3947 59.4285 14.768C59.4285 15.1413 59.2952 15.456 59.0285 15.712C58.7725 15.9573 58.4472 16.08 58.0525 16.08ZM59.1565 17.136V26H56.9165V17.136H59.1565ZM64.7616 26.144C64.0363 26.144 63.3856 26.016 62.8096 25.76C62.2336 25.4933 61.775 25.136 61.4336 24.688C61.103 24.24 60.9216 23.744 60.8896 23.2H63.1456C63.1883 23.5413 63.3536 23.824 63.6416 24.048C63.9403 24.272 64.3083 24.384 64.7456 24.384C65.1723 24.384 65.503 24.2987 65.7376 24.128C65.983 23.9573 66.1056 23.7387 66.1056 23.472C66.1056 23.184 65.9563 22.9707 65.6576 22.832C65.3696 22.6827 64.9056 22.5227 64.2656 22.352C63.6043 22.192 63.0603 22.0267 62.6336 21.856C62.2176 21.6853 61.855 21.424 61.5456 21.072C61.247 20.72 61.0976 20.2453 61.0976 19.648C61.0976 19.1573 61.2363 18.7093 61.5136 18.304C61.8016 17.8987 62.207 17.5787 62.7296 17.344C63.263 17.1093 63.887 16.992 64.6016 16.992C65.6576 16.992 66.5003 17.2587 67.1296 17.792C67.759 18.3147 68.1056 19.024 68.1696 19.92H66.0256C65.9936 19.568 65.8443 19.2907 65.5776 19.088C65.3216 18.8747 64.975 18.768 64.5376 18.768C64.1323 18.768 63.8176 18.8427 63.5936 18.992C63.3803 19.1413 63.2736 19.3493 63.2736 19.616C63.2736 19.9147 63.423 20.144 63.7216 20.304C64.0203 20.4533 64.4843 20.608 65.1136 20.768C65.7536 20.928 66.2816 21.0933 66.6976 21.264C67.1136 21.4347 67.471 21.7013 67.7696 22.064C68.079 22.416 68.239 22.8853 68.2496 23.472C68.2496 23.984 68.1056 24.4427 67.8176 24.848C67.5403 25.2533 67.135 25.5733 66.6016 25.808C66.079 26.032 65.4656 26.144 64.7616 26.144ZM86.0769 14.832V26H83.8369V18.736L80.8449 26H79.1489L76.1409 18.736V26H73.9009V14.832H76.4449L79.9969 23.136L83.5489 14.832H86.0769ZM92.2275 26.144C91.3742 26.144 90.6062 25.9573 89.9235 25.584C89.2408 25.2 88.7022 24.6613 88.3075 23.968C87.9235 23.2747 87.7315 22.4747 87.7315 21.568C87.7315 20.6613 87.9288 19.8613 88.3235 19.168C88.7288 18.4747 89.2782 17.9413 89.9715 17.568C90.6648 17.184 91.4382 16.992 92.2915 16.992C93.1448 16.992 93.9182 17.184 94.6115 17.568C95.3048 17.9413 95.8488 18.4747 96.2435 19.168C96.6488 19.8613 96.8515 20.6613 96.8515 21.568C96.8515 22.4747 96.6435 23.2747 96.2275 23.968C95.8222 24.6613 95.2675 25.2 94.5635 25.584C93.8702 25.9573 93.0915 26.144 92.2275 26.144ZM92.2275 24.192C92.6328 24.192 93.0115 24.096 93.3635 23.904C93.7262 23.7013 94.0142 23.4027 94.2275 23.008C94.4408 22.6133 94.5475 22.1333 94.5475 21.568C94.5475 20.7253 94.3235 20.08 93.8755 19.632C93.4382 19.1733 92.8995 18.944 92.2595 18.944C91.6195 18.944 91.0808 19.1733 90.6435 19.632C90.2168 20.08 90.0035 20.7253 90.0035 21.568C90.0035 22.4107 90.2115 23.0613 90.6275 23.52C91.0542 23.968 91.5875 24.192 92.2275 24.192ZM103.407 17.008C104.463 17.008 105.316 17.344 105.967 18.016C106.617 18.6773 106.943 19.6053 106.943 20.8V26H104.703V21.104C104.703 20.4 104.527 19.8613 104.175 19.488C103.823 19.104 103.343 18.912 102.735 18.912C102.116 18.912 101.625 19.104 101.263 19.488C100.911 19.8613 100.735 20.4 100.735 21.104V26H98.4946V17.136H100.735V18.24C101.033 17.856 101.412 17.5573 101.871 17.344C102.34 17.12 102.852 17.008 103.407 17.008ZM111.681 18.976V23.264C111.681 23.5627 111.75 23.7813 111.889 23.92C112.038 24.048 112.283 24.112 112.625 24.112H113.665V26H112.257C110.369 26 109.425 25.0827 109.425 23.248V18.976H108.369V17.136H109.425V14.944H111.681V17.136H113.665V18.976H111.681ZM120.268 17.008C120.94 17.008 121.537 17.1573 122.06 17.456C122.583 17.744 122.988 18.176 123.276 18.752C123.575 19.3173 123.724 20 123.724 20.8V26H121.484V21.104C121.484 20.4 121.308 19.8613 120.956 19.488C120.604 19.104 120.124 18.912 119.516 18.912C118.897 18.912 118.407 19.104 118.044 19.488C117.692 19.8613 117.516 20.4 117.516 21.104V26H115.276V14.16H117.516V18.24C117.804 17.856 118.188 17.5573 118.668 17.344C119.148 17.12 119.681 17.008 120.268 17.008Z" fill="#DB4444"/>
</svg>
