<svg width="100" height="40" viewBox="0 0 100 40" fill="none" xmlns="http://www.w3.org/2000/svg">
<rect width="20" height="40" rx="4" fill="#DB4444"/>
<path d="M44.704 14.832V16.64H41.728V26H39.488V16.64H36.512V14.832H44.704ZM50.2744 26.144C49.421 26.144 48.653 25.9573 47.9704 25.584C47.2877 25.2 46.749 24.6613 46.3544 23.968C45.9704 23.2747 45.7784 22.4747 45.7784 21.568C45.7784 20.6613 45.9757 19.8613 46.3704 19.168C46.7757 18.4747 47.325 17.9413 48.0184 17.568C48.7117 17.184 49.485 16.992 50.3384 16.992C51.1917 16.992 51.965 17.184 52.6584 17.568C53.3517 17.9413 53.8957 18.4747 54.2904 19.168C54.6957 19.8613 54.8984 20.6613 54.8984 21.568C54.8984 22.4747 54.6904 23.2747 54.2744 23.968C53.869 24.6613 53.3144 25.2 52.6104 25.584C51.917 25.9573 51.1384 26.144 50.2744 26.144ZM50.2744 24.192C50.6797 24.192 51.0584 24.096 51.4104 23.904C51.773 23.7013 52.061 23.4027 52.2744 23.008C52.4877 22.6133 52.5944 22.1333 52.5944 21.568C52.5944 20.7253 52.3704 20.08 51.9224 19.632C51.485 19.1733 50.9464 18.944 50.3064 18.944C49.6664 18.944 49.1277 19.1733 48.6904 19.632C48.2637 20.08 48.0504 20.7253 48.0504 21.568C48.0504 22.4107 48.2584 23.0613 48.6744 23.52C49.101 23.968 49.6344 24.192 50.2744 24.192ZM55.9655 21.536C55.9655 20.64 56.1415 19.8453 56.4935 19.152C56.8562 18.4587 57.3468 17.9253 57.9655 17.552C58.5842 17.1787 59.2722 16.992 60.0295 16.992C60.6055 16.992 61.1548 17.12 61.6775 17.376C62.2002 17.6213 62.6162 17.952 62.9255 18.368V14.16H65.1975V26H62.9255V24.688C62.6482 25.1253 62.2588 25.4773 61.7575 25.744C61.2562 26.0107 60.6748 26.144 60.0135 26.144C59.2668 26.144 58.5842 25.952 57.9655 25.568C57.3468 25.184 56.8562 24.6453 56.4935 23.952C56.1415 23.248 55.9655 22.4427 55.9655 21.536ZM62.9415 21.568C62.9415 21.024 62.8348 20.56 62.6215 20.176C62.4082 19.7813 62.1202 19.4827 61.7575 19.28C61.3948 19.0667 61.0055 18.96 60.5895 18.96C60.1735 18.96 59.7895 19.0613 59.4375 19.264C59.0855 19.4667 58.7975 19.7653 58.5735 20.16C58.3602 20.544 58.2535 21.0027 58.2535 21.536C58.2535 22.0693 58.3602 22.5387 58.5735 22.944C58.7975 23.3387 59.0855 23.6427 59.4375 23.856C59.8002 24.0693 60.1842 24.176 60.5895 24.176C61.0055 24.176 61.3948 24.0747 61.7575 23.872C62.1202 23.6587 62.4082 23.36 62.6215 22.976C62.8348 22.5813 62.9415 22.112 62.9415 21.568ZM66.8092 21.536C66.8092 20.64 66.9852 19.8453 67.3372 19.152C67.6999 18.4587 68.1853 17.9253 68.7933 17.552C69.4119 17.1787 70.0999 16.992 70.8573 16.992C71.5186 16.992 72.0946 17.1253 72.5853 17.392C73.0866 17.6587 73.4866 17.9947 73.7853 18.4V17.136H76.0413V26H73.7853V24.704C73.4973 25.12 73.0973 25.4667 72.5853 25.744C72.0839 26.0107 71.5026 26.144 70.8413 26.144C70.0946 26.144 69.4119 25.952 68.7933 25.568C68.1853 25.184 67.6999 24.6453 67.3372 23.952C66.9852 23.248 66.8092 22.4427 66.8092 21.536ZM73.7853 21.568C73.7853 21.024 73.6786 20.56 73.4653 20.176C73.2519 19.7813 72.9639 19.4827 72.6013 19.28C72.2386 19.0667 71.8493 18.96 71.4333 18.96C71.0173 18.96 70.6333 19.0613 70.2812 19.264C69.9293 19.4667 69.6413 19.7653 69.4173 20.16C69.2039 20.544 69.0973 21.0027 69.0973 21.536C69.0973 22.0693 69.2039 22.5387 69.4173 22.944C69.6413 23.3387 69.9293 23.6427 70.2812 23.856C70.6439 24.0693 71.0279 24.176 71.4333 24.176C71.8493 24.176 72.2386 24.0747 72.6013 23.872C72.9639 23.6587 73.2519 23.36 73.4653 22.976C73.6786 22.5813 73.7853 22.112 73.7853 21.568ZM86.709 17.136L81.221 30.192H78.837L80.757 25.776L77.205 17.136H79.717L82.005 23.328L84.325 17.136H86.709ZM88.3645 14.832H90.7165L88.9885 18.864H87.4525L88.3645 14.832ZM95.7148 26.144C94.9894 26.144 94.3388 26.016 93.7628 25.76C93.1868 25.4933 92.7281 25.136 92.3868 24.688C92.0561 24.24 91.8748 23.744 91.8428 23.2H94.0988C94.1414 23.5413 94.3068 23.824 94.5948 24.048C94.8934 24.272 95.2614 24.384 95.6988 24.384C96.1254 24.384 96.4561 24.2987 96.6908 24.128C96.9361 23.9573 97.0588 23.7387 97.0588 23.472C97.0588 23.184 96.9094 22.9707 96.6108 22.832C96.3228 22.6827 95.8588 22.5227 95.2188 22.352C94.5574 22.192 94.0134 22.0267 93.5868 21.856C93.1708 21.6853 92.8081 21.424 92.4988 21.072C92.2001 20.72 92.0508 20.2453 92.0508 19.648C92.0508 19.1573 92.1894 18.7093 92.4668 18.304C92.7548 17.8987 93.1601 17.5787 93.6828 17.344C94.2161 17.1093 94.8401 16.992 95.5548 16.992C96.6108 16.992 97.4534 17.2587 98.0828 17.792C98.7121 18.3147 99.0588 19.024 99.1228 19.92H96.9788C96.9468 19.568 96.7974 19.2907 96.5308 19.088C96.2748 18.8747 95.9281 18.768 95.4908 18.768C95.0854 18.768 94.7708 18.8427 94.5468 18.992C94.3334 19.1413 94.2268 19.3493 94.2268 19.616C94.2268 19.9147 94.3761 20.144 94.6748 20.304C94.9734 20.4533 95.4374 20.608 96.0668 20.768C96.7068 20.928 97.2348 21.0933 97.6508 21.264C98.0668 21.4347 98.4241 21.7013 98.7228 22.064C99.0321 22.416 99.1921 22.8853 99.2028 23.472C99.2028 23.984 99.0588 24.4427 98.7708 24.848C98.4934 25.2533 98.0881 25.5733 97.5548 25.808C97.0321 26.032 96.4188 26.144 95.7148 26.144Z" fill="#DB4444"/>
</svg>
