<svg width="165" height="40" viewBox="0 0 165 40" fill="none" xmlns="http://www.w3.org/2000/svg">
<rect width="20" height="40" rx="4" fill="#DB4444"/>
<path d="M43.952 23.872H39.504L38.768 26H36.416L40.432 14.816H43.04L47.056 26H44.688L43.952 23.872ZM43.344 22.08L41.728 17.408L40.112 22.08H43.344ZM50.7971 14.16V26H48.5571V14.16H50.7971ZM55.2503 14.16V26H53.0103V14.16H55.2503ZM63.8839 18.976V23.264C63.8839 23.5627 63.9532 23.7813 64.0919 23.92C64.2412 24.048 64.4865 24.112 64.8279 24.112H65.8679V26H64.4599C62.5719 26 61.6279 25.0827 61.6279 23.248V18.976H60.5719V17.136H61.6279V14.944H63.8839V17.136H65.8679V18.976H63.8839ZM72.471 17.008C73.143 17.008 73.7403 17.1573 74.263 17.456C74.7857 17.744 75.191 18.176 75.479 18.752C75.7777 19.3173 75.927 20 75.927 20.8V26H73.687V21.104C73.687 20.4 73.511 19.8613 73.159 19.488C72.807 19.104 72.327 18.912 71.719 18.912C71.1003 18.912 70.6097 19.104 70.247 19.488C69.895 19.8613 69.719 20.4 69.719 21.104V26H67.479V14.16H69.719V18.24C70.007 17.856 70.391 17.5573 70.871 17.344C71.351 17.12 71.8843 17.008 72.471 17.008ZM86.2971 21.376C86.2971 21.696 86.2758 21.984 86.2331 22.24H79.7531C79.8065 22.88 80.0305 23.3813 80.4251 23.744C80.8198 24.1067 81.3051 24.288 81.8811 24.288C82.7131 24.288 83.3051 23.9307 83.6571 23.216H86.0731C85.8171 24.0693 85.3265 24.7733 84.6011 25.328C83.8758 25.872 82.9851 26.144 81.9291 26.144C81.0758 26.144 80.3078 25.9573 79.6251 25.584C78.9531 25.2 78.4251 24.6613 78.0411 23.968C77.6678 23.2747 77.4811 22.4747 77.4811 21.568C77.4811 20.6507 77.6678 19.8453 78.0411 19.152C78.4145 18.4587 78.9371 17.9253 79.6091 17.552C80.2811 17.1787 81.0545 16.992 81.9291 16.992C82.7718 16.992 83.5238 17.1733 84.1851 17.536C84.8571 17.8987 85.3745 18.416 85.7371 19.088C86.1105 19.7493 86.2971 20.512 86.2971 21.376ZM83.9771 20.736C83.9665 20.16 83.7585 19.7013 83.3531 19.36C82.9478 19.008 82.4518 18.832 81.8651 18.832C81.3105 18.832 80.8411 19.0027 80.4571 19.344C80.0838 19.6747 79.8545 20.1387 79.7691 20.736H83.9771ZM93.9846 18.416C94.2726 18.0107 94.6673 17.6747 95.1686 17.408C95.6806 17.1307 96.262 16.992 96.9126 16.992C97.67 16.992 98.3526 17.1787 98.9606 17.552C99.5793 17.9253 100.065 18.4587 100.417 19.152C100.779 19.8347 100.961 20.6293 100.961 21.536C100.961 22.4427 100.779 23.248 100.417 23.952C100.065 24.6453 99.5793 25.184 98.9606 25.568C98.3526 25.952 97.67 26.144 96.9126 26.144C96.262 26.144 95.686 26.0107 95.1846 25.744C94.694 25.4773 94.294 25.1413 93.9846 24.736V30.224H91.7446V17.136H93.9846V18.416ZM98.6726 21.536C98.6726 21.0027 98.5606 20.544 98.3366 20.16C98.1233 19.7653 97.8353 19.4667 97.4726 19.264C97.1206 19.0613 96.7366 18.96 96.3206 18.96C95.9153 18.96 95.5313 19.0667 95.1686 19.28C94.8166 19.4827 94.5286 19.7813 94.3046 20.176C94.0913 20.5707 93.9846 21.0347 93.9846 21.568C93.9846 22.1013 94.0913 22.5653 94.3046 22.96C94.5286 23.3547 94.8166 23.6587 95.1686 23.872C95.5313 24.0747 95.9153 24.176 96.3206 24.176C96.7366 24.176 97.1206 24.0693 97.4726 23.856C97.8353 23.6427 98.1233 23.3387 98.3366 22.944C98.5606 22.5493 98.6726 22.08 98.6726 21.536ZM104.828 18.512C105.116 18.0427 105.49 17.6747 105.948 17.408C106.418 17.1413 106.951 17.008 107.548 17.008V19.36H106.956C106.252 19.36 105.719 19.5253 105.356 19.856C105.004 20.1867 104.828 20.7627 104.828 21.584V26H102.588V17.136H104.828V18.512ZM112.993 26.144C112.14 26.144 111.372 25.9573 110.689 25.584C110.006 25.2 109.468 24.6613 109.073 23.968C108.689 23.2747 108.497 22.4747 108.497 21.568C108.497 20.6613 108.694 19.8613 109.089 19.168C109.494 18.4747 110.044 17.9413 110.737 17.568C111.43 17.184 112.204 16.992 113.057 16.992C113.91 16.992 114.684 17.184 115.377 17.568C116.07 17.9413 116.614 18.4747 117.009 19.168C117.414 19.8613 117.617 20.6613 117.617 21.568C117.617 22.4747 117.409 23.2747 116.993 23.968C116.588 24.6613 116.033 25.2 115.329 25.584C114.636 25.9573 113.857 26.144 112.993 26.144ZM112.993 24.192C113.398 24.192 113.777 24.096 114.129 23.904C114.492 23.7013 114.78 23.4027 114.993 23.008C115.206 22.6133 115.313 22.1333 115.313 21.568C115.313 20.7253 115.089 20.08 114.641 19.632C114.204 19.1733 113.665 18.944 113.025 18.944C112.385 18.944 111.846 19.1733 111.409 19.632C110.982 20.08 110.769 20.7253 110.769 21.568C110.769 22.4107 110.977 23.0613 111.393 23.52C111.82 23.968 112.353 24.192 112.993 24.192ZM118.684 21.536C118.684 20.64 118.86 19.8453 119.212 19.152C119.575 18.4587 120.066 17.9253 120.684 17.552C121.303 17.1787 121.991 16.992 122.748 16.992C123.324 16.992 123.874 17.12 124.396 17.376C124.919 17.6213 125.335 17.952 125.644 18.368V14.16H127.916V26H125.644V24.688C125.367 25.1253 124.978 25.4773 124.476 25.744C123.975 26.0107 123.394 26.144 122.732 26.144C121.986 26.144 121.303 25.952 120.684 25.568C120.066 25.184 119.575 24.6453 119.212 23.952C118.86 23.248 118.684 22.4427 118.684 21.536ZM125.66 21.568C125.66 21.024 125.554 20.56 125.34 20.176C125.127 19.7813 124.839 19.4827 124.476 19.28C124.114 19.0667 123.724 18.96 123.308 18.96C122.892 18.96 122.508 19.0613 122.156 19.264C121.804 19.4667 121.516 19.7653 121.292 20.16C121.079 20.544 120.972 21.0027 120.972 21.536C120.972 22.0693 121.079 22.5387 121.292 22.944C121.516 23.3387 121.804 23.6427 122.156 23.856C122.519 24.0693 122.903 24.176 123.308 24.176C123.724 24.176 124.114 24.0747 124.476 23.872C124.839 23.6587 125.127 23.36 125.34 22.976C125.554 22.5813 125.66 22.112 125.66 21.568ZM138.472 17.136V26H136.216V24.88C135.928 25.264 135.549 25.568 135.08 25.792C134.621 26.0053 134.12 26.112 133.576 26.112C132.883 26.112 132.269 25.968 131.736 25.68C131.203 25.3813 130.781 24.9493 130.472 24.384C130.173 23.808 130.024 23.1253 130.024 22.336V17.136H132.264V22.016C132.264 22.72 132.44 23.264 132.792 23.648C133.144 24.0213 133.624 24.208 134.232 24.208C134.851 24.208 135.336 24.0213 135.688 23.648C136.04 23.264 136.216 22.72 136.216 22.016V17.136H138.472ZM140.106 21.568C140.106 20.6507 140.293 19.8507 140.666 19.168C141.039 18.4747 141.557 17.9413 142.218 17.568C142.879 17.184 143.637 16.992 144.49 16.992C145.589 16.992 146.495 17.2693 147.21 17.824C147.935 18.368 148.421 19.136 148.666 20.128H146.25C146.122 19.744 145.903 19.4453 145.594 19.232C145.295 19.008 144.922 18.896 144.474 18.896C143.834 18.896 143.327 19.1307 142.954 19.6C142.581 20.0587 142.394 20.7147 142.394 21.568C142.394 22.4107 142.581 23.0667 142.954 23.536C143.327 23.9947 143.834 24.224 144.474 24.224C145.381 24.224 145.973 23.8187 146.25 23.008H148.666C148.421 23.968 147.935 24.7307 147.21 25.296C146.485 25.8613 145.578 26.144 144.49 26.144C143.637 26.144 142.879 25.9573 142.218 25.584C141.557 25.2 141.039 24.6667 140.666 23.984C140.293 23.2907 140.106 22.4853 140.106 21.568ZM152.915 18.976V23.264C152.915 23.5627 152.984 23.7813 153.123 23.92C153.272 24.048 153.518 24.112 153.859 24.112H154.899V26H153.491C151.603 26 150.659 25.0827 150.659 23.248V18.976H149.603V17.136H150.659V14.944H152.915V17.136H154.899V18.976H152.915ZM159.902 26.144C159.177 26.144 158.526 26.016 157.95 25.76C157.374 25.4933 156.916 25.136 156.574 24.688C156.244 24.24 156.062 23.744 156.03 23.2H158.286C158.329 23.5413 158.494 23.824 158.782 24.048C159.081 24.272 159.449 24.384 159.886 24.384C160.313 24.384 160.644 24.2987 160.878 24.128C161.124 23.9573 161.246 23.7387 161.246 23.472C161.246 23.184 161.097 22.9707 160.798 22.832C160.51 22.6827 160.046 22.5227 159.406 22.352C158.745 22.192 158.201 22.0267 157.774 21.856C157.358 21.6853 156.996 21.424 156.686 21.072C156.388 20.72 156.238 20.2453 156.238 19.648C156.238 19.1573 156.377 18.7093 156.654 18.304C156.942 17.8987 157.348 17.5787 157.87 17.344C158.404 17.1093 159.028 16.992 159.742 16.992C160.798 16.992 161.641 17.2587 162.27 17.792C162.9 18.3147 163.246 19.024 163.31 19.92H161.166C161.134 19.568 160.985 19.2907 160.718 19.088C160.462 18.8747 160.116 18.768 159.678 18.768C159.273 18.768 158.958 18.8427 158.734 18.992C158.521 19.1413 158.414 19.3493 158.414 19.616C158.414 19.9147 158.564 20.144 158.862 20.304C159.161 20.4533 159.625 20.608 160.254 20.768C160.894 20.928 161.422 21.0933 161.838 21.264C162.254 21.4347 162.612 21.7013 162.91 22.064C163.22 22.416 163.38 22.8853 163.39 23.472C163.39 23.984 163.246 24.4427 162.958 24.848C162.681 25.2533 162.276 25.5733 161.742 25.808C161.22 26.032 160.606 26.144 159.902 26.144Z" fill="#DB4444"/>
</svg>
