<svg width="148" height="40" viewBox="0 0 148 40" fill="none" xmlns="http://www.w3.org/2000/svg">
<rect width="20" height="40" rx="4" fill="#DB4444"/>
<path d="M43.44 20.272C44.0693 20.3893 44.5867 20.704 44.992 21.216C45.3973 21.728 45.6 22.3147 45.6 22.976C45.6 23.5733 45.4507 24.1013 45.152 24.56C44.864 25.008 44.4427 25.36 43.888 25.616C43.3333 25.872 42.6773 26 41.92 26H37.104V14.832H41.712C42.4693 14.832 43.12 14.9547 43.664 15.2C44.2187 15.4453 44.6347 15.7867 44.912 16.224C45.2 16.6613 45.344 17.1573 45.344 17.712C45.344 18.3627 45.168 18.9067 44.816 19.344C44.4747 19.7813 44.016 20.0907 43.44 20.272ZM39.344 19.44H41.392C41.9253 19.44 42.336 19.3227 42.624 19.088C42.912 18.8427 43.056 18.496 43.056 18.048C43.056 17.6 42.912 17.2533 42.624 17.008C42.336 16.7627 41.9253 16.64 41.392 16.64H39.344V19.44ZM41.6 24.176C42.144 24.176 42.5653 24.048 42.864 23.792C43.1733 23.536 43.328 23.1733 43.328 22.704C43.328 22.224 43.168 21.8507 42.848 21.584C42.528 21.3067 42.096 21.168 41.552 21.168H39.344V24.176H41.6ZM55.6253 21.376C55.6253 21.696 55.6039 21.984 55.5613 22.24H49.0813C49.1346 22.88 49.3586 23.3813 49.7533 23.744C50.1479 24.1067 50.6333 24.288 51.2093 24.288C52.0413 24.288 52.6333 23.9307 52.9853 23.216H55.4013C55.1453 24.0693 54.6546 24.7733 53.9293 25.328C53.2039 25.872 52.3133 26.144 51.2573 26.144C50.4039 26.144 49.6359 25.9573 48.9533 25.584C48.2813 25.2 47.7533 24.6613 47.3693 23.968C46.9959 23.2747 46.8092 22.4747 46.8092 21.568C46.8092 20.6507 46.9959 19.8453 47.3693 19.152C47.7426 18.4587 48.2653 17.9253 48.9373 17.552C49.6093 17.1787 50.3826 16.992 51.2573 16.992C52.0999 16.992 52.8519 17.1733 53.5133 17.536C54.1853 17.8987 54.7026 18.416 55.0653 19.088C55.4386 19.7493 55.6253 20.512 55.6253 21.376ZM53.3053 20.736C53.2946 20.16 53.0866 19.7013 52.6813 19.36C52.2759 19.008 51.7799 18.832 51.1933 18.832C50.6386 18.832 50.1693 19.0027 49.7853 19.344C49.4119 19.6747 49.1826 20.1387 49.0973 20.736H53.3053ZM60.6523 26.144C59.9269 26.144 59.2763 26.016 58.7003 25.76C58.1243 25.4933 57.6656 25.136 57.3243 24.688C56.9936 24.24 56.8123 23.744 56.7803 23.2H59.0363C59.0789 23.5413 59.2443 23.824 59.5323 24.048C59.8309 24.272 60.1989 24.384 60.6363 24.384C61.0629 24.384 61.3936 24.2987 61.6283 24.128C61.8736 23.9573 61.9963 23.7387 61.9963 23.472C61.9963 23.184 61.8469 22.9707 61.5483 22.832C61.2603 22.6827 60.7963 22.5227 60.1562 22.352C59.4949 22.192 58.9509 22.0267 58.5243 21.856C58.1083 21.6853 57.7456 21.424 57.4363 21.072C57.1376 20.72 56.9883 20.2453 56.9883 19.648C56.9883 19.1573 57.1269 18.7093 57.4043 18.304C57.6923 17.8987 58.0976 17.5787 58.6203 17.344C59.1536 17.1093 59.7776 16.992 60.4923 16.992C61.5483 16.992 62.3909 17.2587 63.0203 17.792C63.6496 18.3147 63.9963 19.024 64.0603 19.92H61.9163C61.8843 19.568 61.7349 19.2907 61.4683 19.088C61.2123 18.8747 60.8656 18.768 60.4283 18.768C60.0229 18.768 59.7083 18.8427 59.4843 18.992C59.2709 19.1413 59.1643 19.3493 59.1643 19.616C59.1643 19.9147 59.3136 20.144 59.6123 20.304C59.9109 20.4533 60.3749 20.608 61.0043 20.768C61.6443 20.928 62.1723 21.0933 62.5883 21.264C63.0043 21.4347 63.3616 21.7013 63.6603 22.064C63.9696 22.416 64.1296 22.8853 64.1403 23.472C64.1403 23.984 63.9963 24.4427 63.7083 24.848C63.4309 25.2533 63.0256 25.5733 62.4923 25.808C61.9696 26.032 61.3563 26.144 60.6523 26.144ZM68.587 18.976V23.264C68.587 23.5627 68.6563 23.7813 68.795 23.92C68.9443 24.048 69.1897 24.112 69.531 24.112H70.571V26H69.163C67.275 26 66.331 25.0827 66.331 23.248V18.976H65.275V17.136H66.331V14.944H68.587V17.136H70.571V18.976H68.587ZM84.1386 18.288C84.1386 18.8853 83.9946 19.4453 83.7066 19.968C83.4293 20.4907 82.9866 20.912 82.3786 21.232C81.7813 21.552 81.024 21.712 80.1066 21.712H78.2346V26H75.9946V14.832H80.1066C80.9706 14.832 81.7066 14.9813 82.3146 15.28C82.9226 15.5787 83.376 15.9893 83.6746 16.512C83.984 17.0347 84.1386 17.6267 84.1386 18.288ZM80.0106 19.904C80.6293 19.904 81.088 19.7653 81.3866 19.488C81.6853 19.2 81.8346 18.8 81.8346 18.288C81.8346 17.2 81.2266 16.656 80.0106 16.656H78.2346V19.904H80.0106ZM87.969 18.512C88.257 18.0427 88.6303 17.6747 89.089 17.408C89.5583 17.1413 90.0917 17.008 90.689 17.008V19.36H90.097C89.393 19.36 88.8597 19.5253 88.497 19.856C88.145 20.1867 87.969 20.7627 87.969 21.584V26H85.729V17.136H87.969V18.512ZM96.1338 26.144C95.2804 26.144 94.5124 25.9573 93.8298 25.584C93.1471 25.2 92.6084 24.6613 92.2138 23.968C91.8298 23.2747 91.6378 22.4747 91.6378 21.568C91.6378 20.6613 91.8351 19.8613 92.2298 19.168C92.6351 18.4747 93.1844 17.9413 93.8778 17.568C94.5711 17.184 95.3444 16.992 96.1978 16.992C97.0511 16.992 97.8244 17.184 98.5178 17.568C99.2111 17.9413 99.7551 18.4747 100.15 19.168C100.555 19.8613 100.758 20.6613 100.758 21.568C100.758 22.4747 100.55 23.2747 100.134 23.968C99.7284 24.6613 99.1738 25.2 98.4698 25.584C97.7764 25.9573 96.9978 26.144 96.1338 26.144ZM96.1338 24.192C96.5391 24.192 96.9178 24.096 97.2698 23.904C97.6324 23.7013 97.9204 23.4027 98.1338 23.008C98.3471 22.6133 98.4538 22.1333 98.4538 21.568C98.4538 20.7253 98.2298 20.08 97.7818 19.632C97.3444 19.1733 96.8058 18.944 96.1658 18.944C95.5258 18.944 94.9871 19.1733 94.5498 19.632C94.1231 20.08 93.9098 20.7253 93.9098 21.568C93.9098 22.4107 94.1178 23.0613 94.5338 23.52C94.9604 23.968 95.4938 24.192 96.1338 24.192ZM101.825 21.536C101.825 20.64 102.001 19.8453 102.353 19.152C102.716 18.4587 103.206 17.9253 103.825 17.552C104.444 17.1787 105.132 16.992 105.889 16.992C106.465 16.992 107.014 17.12 107.537 17.376C108.06 17.6213 108.476 17.952 108.785 18.368V14.16H111.057V26H108.785V24.688C108.508 25.1253 108.118 25.4773 107.617 25.744C107.116 26.0107 106.534 26.144 105.873 26.144C105.126 26.144 104.444 25.952 103.825 25.568C103.206 25.184 102.716 24.6453 102.353 23.952C102.001 23.248 101.825 22.4427 101.825 21.536ZM108.801 21.568C108.801 21.024 108.694 20.56 108.481 20.176C108.268 19.7813 107.98 19.4827 107.617 19.28C107.254 19.0667 106.865 18.96 106.449 18.96C106.033 18.96 105.649 19.0613 105.297 19.264C104.945 19.4667 104.657 19.7653 104.433 20.16C104.22 20.544 104.113 21.0027 104.113 21.536C104.113 22.0693 104.22 22.5387 104.433 22.944C104.657 23.3387 104.945 23.6427 105.297 23.856C105.66 24.0693 106.044 24.176 106.449 24.176C106.865 24.176 107.254 24.0747 107.617 23.872C107.98 23.6587 108.268 23.36 108.481 22.976C108.694 22.5813 108.801 22.112 108.801 21.568ZM121.613 17.136V26H119.357V24.88C119.069 25.264 118.69 25.568 118.221 25.792C117.762 26.0053 117.261 26.112 116.717 26.112C116.023 26.112 115.41 25.968 114.877 25.68C114.343 25.3813 113.922 24.9493 113.613 24.384C113.314 23.808 113.165 23.1253 113.165 22.336V17.136H115.405V22.016C115.405 22.72 115.581 23.264 115.933 23.648C116.285 24.0213 116.765 24.208 117.373 24.208C117.991 24.208 118.477 24.0213 118.829 23.648C119.181 23.264 119.357 22.72 119.357 22.016V17.136H121.613ZM123.247 21.568C123.247 20.6507 123.433 19.8507 123.807 19.168C124.18 18.4747 124.697 17.9413 125.359 17.568C126.02 17.184 126.777 16.992 127.631 16.992C128.729 16.992 129.636 17.2693 130.351 17.824C131.076 18.368 131.561 19.136 131.807 20.128H129.391C129.263 19.744 129.044 19.4453 128.735 19.232C128.436 19.008 128.063 18.896 127.615 18.896C126.975 18.896 126.468 19.1307 126.095 19.6C125.721 20.0587 125.535 20.7147 125.535 21.568C125.535 22.4107 125.721 23.0667 126.095 23.536C126.468 23.9947 126.975 24.224 127.615 24.224C128.521 24.224 129.113 23.8187 129.391 23.008H131.807C131.561 23.968 131.076 24.7307 130.351 25.296C129.625 25.8613 128.719 26.144 127.631 26.144C126.777 26.144 126.02 25.9573 125.359 25.584C124.697 25.2 124.18 24.6667 123.807 23.984C123.433 23.2907 123.247 22.4853 123.247 21.568ZM136.056 18.976V23.264C136.056 23.5627 136.125 23.7813 136.264 23.92C136.413 24.048 136.658 24.112 137 24.112H138.04V26H136.632C134.744 26 133.8 25.0827 133.8 23.248V18.976H132.744V17.136H133.8V14.944H136.056V17.136H138.04V18.976H136.056ZM143.043 26.144C142.318 26.144 141.667 26.016 141.091 25.76C140.515 25.4933 140.056 25.136 139.715 24.688C139.384 24.24 139.203 23.744 139.171 23.2H141.427C141.47 23.5413 141.635 23.824 141.923 24.048C142.222 24.272 142.59 24.384 143.027 24.384C143.454 24.384 143.784 24.2987 144.019 24.128C144.264 23.9573 144.387 23.7387 144.387 23.472C144.387 23.184 144.238 22.9707 143.939 22.832C143.651 22.6827 143.187 22.5227 142.547 22.352C141.886 22.192 141.342 22.0267 140.915 21.856C140.499 21.6853 140.136 21.424 139.827 21.072C139.528 20.72 139.379 20.2453 139.379 19.648C139.379 19.1573 139.518 18.7093 139.795 18.304C140.083 17.8987 140.488 17.5787 141.011 17.344C141.544 17.1093 142.168 16.992 142.883 16.992C143.939 16.992 144.782 17.2587 145.411 17.792C146.04 18.3147 146.387 19.024 146.451 19.92H144.307C144.275 19.568 144.126 19.2907 143.859 19.088C143.603 18.8747 143.256 18.768 142.819 18.768C142.414 18.768 142.099 18.8427 141.875 18.992C141.662 19.1413 141.555 19.3493 141.555 19.616C141.555 19.9147 141.704 20.144 142.003 20.304C142.302 20.4533 142.766 20.608 143.395 20.768C144.035 20.928 144.563 21.0933 144.979 21.264C145.395 21.4347 145.752 21.7013 146.051 22.064C146.36 22.416 146.52 22.8853 146.531 23.472C146.531 23.984 146.387 24.4427 146.099 24.848C145.822 25.2533 145.416 25.5733 144.883 25.808C144.36 26.032 143.747 26.144 143.043 26.144Z" fill="#DB4444"/>
</svg>
