<svg width="184" height="40" viewBox="0 0 184 40" fill="none" xmlns="http://www.w3.org/2000/svg">
<rect width="20" height="40" rx="4" fill="#DB4444"/>
<path d="M43.44 20.272C44.0693 20.3893 44.5867 20.704 44.992 21.216C45.3973 21.728 45.6 22.3147 45.6 22.976C45.6 23.5733 45.4507 24.1013 45.152 24.56C44.864 25.008 44.4427 25.36 43.888 25.616C43.3333 25.872 42.6773 26 41.92 26H37.104V14.832H41.712C42.4693 14.832 43.12 14.9547 43.664 15.2C44.2187 15.4453 44.6347 15.7867 44.912 16.224C45.2 16.6613 45.344 17.1573 45.344 17.712C45.344 18.3627 45.168 18.9067 44.816 19.344C44.4747 19.7813 44.016 20.0907 43.44 20.272ZM39.344 19.44H41.392C41.9253 19.44 42.336 19.3227 42.624 19.088C42.912 18.8427 43.056 18.496 43.056 18.048C43.056 17.6 42.912 17.2533 42.624 17.008C42.336 16.7627 41.9253 16.64 41.392 16.64H39.344V19.44ZM41.6 24.176C42.144 24.176 42.5653 24.048 42.864 23.792C43.1733 23.536 43.328 23.1733 43.328 22.704C43.328 22.224 43.168 21.8507 42.848 21.584C42.528 21.3067 42.096 21.168 41.552 21.168H39.344V24.176H41.6ZM55.6253 21.376C55.6253 21.696 55.6039 21.984 55.5613 22.24H49.0813C49.1346 22.88 49.3586 23.3813 49.7533 23.744C50.1479 24.1067 50.6333 24.288 51.2093 24.288C52.0413 24.288 52.6333 23.9307 52.9853 23.216H55.4013C55.1453 24.0693 54.6546 24.7733 53.9293 25.328C53.2039 25.872 52.3133 26.144 51.2573 26.144C50.4039 26.144 49.6359 25.9573 48.9533 25.584C48.2813 25.2 47.7533 24.6613 47.3693 23.968C46.9959 23.2747 46.8092 22.4747 46.8092 21.568C46.8092 20.6507 46.9959 19.8453 47.3693 19.152C47.7426 18.4587 48.2653 17.9253 48.9373 17.552C49.6093 17.1787 50.3826 16.992 51.2573 16.992C52.0999 16.992 52.8519 17.1733 53.5133 17.536C54.1853 17.8987 54.7026 18.416 55.0653 19.088C55.4386 19.7493 55.6253 20.512 55.6253 21.376ZM53.3053 20.736C53.2946 20.16 53.0866 19.7013 52.6813 19.36C52.2759 19.008 51.7799 18.832 51.1933 18.832C50.6386 18.832 50.1693 19.0027 49.7853 19.344C49.4119 19.6747 49.1826 20.1387 49.0973 20.736H53.3053ZM59.5003 14.16V26H57.2603V14.16H59.5003ZM69.9534 21.376C69.9534 21.696 69.932 21.984 69.8894 22.24H63.4094C63.4627 22.88 63.6867 23.3813 64.0814 23.744C64.476 24.1067 64.9614 24.288 65.5374 24.288C66.3694 24.288 66.9614 23.9307 67.3134 23.216H69.7294C69.4734 24.0693 68.9827 24.7733 68.2574 25.328C67.532 25.872 66.6414 26.144 65.5854 26.144C64.732 26.144 63.964 25.9573 63.2814 25.584C62.6094 25.2 62.0814 24.6613 61.6974 23.968C61.324 23.2747 61.1374 22.4747 61.1374 21.568C61.1374 20.6507 61.324 19.8453 61.6974 19.152C62.0707 18.4587 62.5934 17.9253 63.2654 17.552C63.9374 17.1787 64.7107 16.992 65.5854 16.992C66.428 16.992 67.18 17.1733 67.8414 17.536C68.5134 17.8987 69.0307 18.416 69.3934 19.088C69.7667 19.7493 69.9534 20.512 69.9534 21.376ZM67.6334 20.736C67.6227 20.16 67.4147 19.7013 67.0094 19.36C66.604 19.008 66.108 18.832 65.5214 18.832C64.9667 18.832 64.4974 19.0027 64.1134 19.344C63.74 19.6747 63.5107 20.1387 63.4254 20.736H67.6334ZM73.6364 24.16H77.5884V26H71.0924V24.192L74.9644 18.976H71.1084V17.136H77.5404V18.944L73.6364 24.16ZM78.7467 21.536C78.7467 20.64 78.9227 19.8453 79.2747 19.152C79.6374 18.4587 80.1228 17.9253 80.7308 17.552C81.3494 17.1787 82.0374 16.992 82.7948 16.992C83.4561 16.992 84.0321 17.1253 84.5228 17.392C85.0241 17.6587 85.4241 17.9947 85.7228 18.4V17.136H87.9788V26H85.7228V24.704C85.4348 25.12 85.0348 25.4667 84.5228 25.744C84.0214 26.0107 83.4401 26.144 82.7788 26.144C82.0321 26.144 81.3494 25.952 80.7308 25.568C80.1228 25.184 79.6374 24.6453 79.2747 23.952C78.9227 23.248 78.7467 22.4427 78.7467 21.536ZM85.7228 21.568C85.7228 21.024 85.6161 20.56 85.4028 20.176C85.1894 19.7813 84.9014 19.4827 84.5388 19.28C84.1761 19.0667 83.7868 18.96 83.3708 18.96C82.9548 18.96 82.5708 19.0613 82.2188 19.264C81.8668 19.4667 81.5788 19.7653 81.3548 20.16C81.1414 20.544 81.0348 21.0027 81.0348 21.536C81.0348 22.0693 81.1414 22.5387 81.3548 22.944C81.5788 23.3387 81.8668 23.6427 82.2188 23.856C82.5814 24.0693 82.9654 24.176 83.3708 24.176C83.7868 24.176 84.1761 24.0747 84.5388 23.872C84.9014 23.6587 85.1894 23.36 85.4028 22.976C85.6161 22.5813 85.7228 22.112 85.7228 21.568ZM102.219 21.376C102.219 21.696 102.198 21.984 102.155 22.24H95.675C95.7283 22.88 95.9523 23.3813 96.347 23.744C96.7417 24.1067 97.227 24.288 97.803 24.288C98.635 24.288 99.227 23.9307 99.579 23.216H101.995C101.739 24.0693 101.248 24.7733 100.523 25.328C99.7977 25.872 98.907 26.144 97.851 26.144C96.9977 26.144 96.2297 25.9573 95.547 25.584C94.875 25.2 94.347 24.6613 93.963 23.968C93.5897 23.2747 93.403 22.4747 93.403 21.568C93.403 20.6507 93.5897 19.8453 93.963 19.152C94.3363 18.4587 94.859 17.9253 95.531 17.552C96.203 17.1787 96.9763 16.992 97.851 16.992C98.6937 16.992 99.4457 17.1733 100.107 17.536C100.779 17.8987 101.296 18.416 101.659 19.088C102.032 19.7493 102.219 20.512 102.219 21.376ZM99.899 20.736C99.8883 20.16 99.6803 19.7013 99.275 19.36C98.8697 19.008 98.3737 18.832 97.787 18.832C97.2323 18.832 96.763 19.0027 96.379 19.344C96.0057 19.6747 95.7763 20.1387 95.691 20.736H99.899ZM111.523 26.112C110.744 26.112 110.04 25.9787 109.411 25.712C108.792 25.4453 108.301 25.0613 107.939 24.56C107.576 24.0587 107.389 23.4667 107.379 22.784H109.779C109.811 23.2427 109.971 23.6053 110.259 23.872C110.557 24.1387 110.963 24.272 111.475 24.272C111.997 24.272 112.408 24.1493 112.707 23.904C113.005 23.648 113.155 23.3173 113.155 22.912C113.155 22.5813 113.053 22.3093 112.851 22.096C112.648 21.8827 112.392 21.7173 112.083 21.6C111.784 21.472 111.368 21.3333 110.835 21.184C110.109 20.9707 109.517 20.7627 109.059 20.56C108.611 20.3467 108.221 20.032 107.891 19.616C107.571 19.1893 107.411 18.624 107.411 17.92C107.411 17.2587 107.576 16.6827 107.907 16.192C108.237 15.7013 108.701 15.328 109.299 15.072C109.896 14.8053 110.579 14.672 111.347 14.672C112.499 14.672 113.432 14.9547 114.147 15.52C114.872 16.0747 115.272 16.8533 115.347 17.856H112.883C112.861 17.472 112.696 17.1573 112.387 16.912C112.088 16.656 111.688 16.528 111.187 16.528C110.749 16.528 110.397 16.64 110.131 16.864C109.875 17.088 109.747 17.4133 109.747 17.84C109.747 18.1387 109.843 18.3893 110.035 18.592C110.237 18.784 110.483 18.944 110.771 19.072C111.069 19.1893 111.485 19.328 112.019 19.488C112.744 19.7013 113.336 19.9147 113.795 20.128C114.253 20.3413 114.648 20.6613 114.979 21.088C115.309 21.5147 115.475 22.0747 115.475 22.768C115.475 23.3653 115.32 23.92 115.01 24.432C114.701 24.944 114.248 25.3547 113.651 25.664C113.053 25.9627 112.344 26.112 111.523 26.112ZM122.665 26L119.657 22.224V26H117.417V14.16H119.657V20.896L122.633 17.136H125.545L121.641 21.584L125.577 26H122.665ZM127.896 16.08C127.502 16.08 127.171 15.9573 126.904 15.712C126.648 15.456 126.52 15.1413 126.52 14.768C126.52 14.3947 126.648 14.0853 126.904 13.84C127.171 13.584 127.502 13.456 127.896 13.456C128.291 13.456 128.616 13.584 128.872 13.84C129.139 14.0853 129.272 14.3947 129.272 14.768C129.272 15.1413 129.139 15.456 128.872 15.712C128.616 15.9573 128.291 16.08 127.896 16.08ZM129 17.136V26H126.76V17.136H129ZM136.125 17.008C137.181 17.008 138.035 17.344 138.685 18.016C139.336 18.6773 139.661 19.6053 139.661 20.8V26H137.421V21.104C137.421 20.4 137.245 19.8613 136.893 19.488C136.541 19.104 136.061 18.912 135.453 18.912C134.835 18.912 134.344 19.104 133.981 19.488C133.629 19.8613 133.453 20.4 133.453 21.104V26H131.213V17.136H133.453V18.24C133.752 17.856 134.131 17.5573 134.589 17.344C135.059 17.12 135.571 17.008 136.125 17.008ZM145.06 20.4C145.06 19.3013 145.305 18.32 145.796 17.456C146.297 16.5813 146.975 15.904 147.828 15.424C148.692 14.9333 149.657 14.688 150.724 14.688C151.972 14.688 153.065 15.008 154.004 15.648C154.943 16.288 155.599 17.1733 155.972 18.304H153.396C153.14 17.7707 152.777 17.3707 152.308 17.104C151.849 16.8373 151.316 16.704 150.708 16.704C150.057 16.704 149.476 16.8587 148.964 17.168C148.463 17.4667 148.068 17.8933 147.78 18.448C147.503 19.0027 147.364 19.6533 147.364 20.4C147.364 21.136 147.503 21.7867 147.78 22.352C148.068 22.9067 148.463 23.3387 148.964 23.648C149.476 23.9467 150.057 24.096 150.708 24.096C151.316 24.096 151.849 23.9627 152.308 23.696C152.777 23.4187 153.14 23.0133 153.396 22.48H155.972C155.599 23.6213 154.943 24.512 154.004 25.152C153.076 25.7813 151.983 26.096 150.724 26.096C149.657 26.096 148.692 25.856 147.828 25.376C146.975 24.8853 146.297 24.208 145.796 23.344C145.305 22.48 145.06 21.4987 145.06 20.4ZM157.309 21.536C157.309 20.64 157.485 19.8453 157.837 19.152C158.2 18.4587 158.685 17.9253 159.293 17.552C159.912 17.1787 160.6 16.992 161.357 16.992C162.019 16.992 162.595 17.1253 163.085 17.392C163.587 17.6587 163.987 17.9947 164.285 18.4V17.136H166.541V26H164.285V24.704C163.997 25.12 163.597 25.4667 163.085 25.744C162.584 26.0107 162.003 26.144 161.341 26.144C160.595 26.144 159.912 25.952 159.293 25.568C158.685 25.184 158.2 24.6453 157.837 23.952C157.485 23.248 157.309 22.4427 157.309 21.536ZM164.285 21.568C164.285 21.024 164.179 20.56 163.965 20.176C163.752 19.7813 163.464 19.4827 163.101 19.28C162.739 19.0667 162.349 18.96 161.933 18.96C161.517 18.96 161.133 19.0613 160.781 19.264C160.429 19.4667 160.141 19.7653 159.917 20.16C159.704 20.544 159.597 21.0027 159.597 21.536C159.597 22.0693 159.704 22.5387 159.917 22.944C160.141 23.3387 160.429 23.6427 160.781 23.856C161.144 24.0693 161.528 24.176 161.933 24.176C162.349 24.176 162.739 24.0747 163.101 23.872C163.464 23.6587 163.752 23.36 163.965 22.976C164.179 22.5813 164.285 22.112 164.285 21.568ZM170.969 18.512C171.257 18.0427 171.63 17.6747 172.089 17.408C172.558 17.1413 173.092 17.008 173.689 17.008V19.36H173.097C172.393 19.36 171.86 19.5253 171.497 19.856C171.145 20.1867 170.969 20.7627 170.969 21.584V26H168.729V17.136H170.969V18.512ZM183.438 21.376C183.438 21.696 183.416 21.984 183.374 22.24H176.894C176.947 22.88 177.171 23.3813 177.566 23.744C177.96 24.1067 178.446 24.288 179.022 24.288C179.854 24.288 180.446 23.9307 180.798 23.216H183.214C182.958 24.0693 182.467 24.7733 181.742 25.328C181.016 25.872 180.126 26.144 179.07 26.144C178.216 26.144 177.448 25.9573 176.766 25.584C176.094 25.2 175.566 24.6613 175.182 23.968C174.808 23.2747 174.622 22.4747 174.622 21.568C174.622 20.6507 174.808 19.8453 175.182 19.152C175.555 18.4587 176.078 17.9253 176.75 17.552C177.422 17.1787 178.195 16.992 179.07 16.992C179.912 16.992 180.664 17.1733 181.326 17.536C181.998 17.8987 182.515 18.416 182.878 19.088C183.251 19.7493 183.438 20.512 183.438 21.376ZM181.118 20.736C181.107 20.16 180.899 19.7013 180.494 19.36C180.088 19.008 179.592 18.832 179.006 18.832C178.451 18.832 177.982 19.0027 177.598 19.344C177.224 19.6747 176.995 20.1387 176.91 20.736H181.118Z" fill="#DB4444"/>
</svg>
