<svg width="142" height="40" viewBox="0 0 142 40" fill="none" xmlns="http://www.w3.org/2000/svg">
<rect width="20" height="40" rx="4" fill="#DB4444"/>
<path d="M42.288 26.112C41.2427 26.112 40.2827 25.8667 39.408 25.376C38.5333 24.8853 37.84 24.208 37.328 23.344C36.816 22.4693 36.56 21.4827 36.56 20.384C36.56 19.296 36.816 18.32 37.328 17.456C37.84 16.5813 38.5333 15.8987 39.408 15.408C40.2827 14.9173 41.2427 14.672 42.288 14.672C43.344 14.672 44.304 14.9173 45.168 15.408C46.0427 15.8987 46.7307 16.5813 47.232 17.456C47.744 18.32 48 19.296 48 20.384C48 21.4827 47.744 22.4693 47.232 23.344C46.7307 24.208 46.0427 24.8853 45.168 25.376C44.2933 25.8667 43.3333 26.112 42.288 26.112ZM42.288 24.112C42.96 24.112 43.552 23.9627 44.064 23.664C44.576 23.3547 44.976 22.9173 45.264 22.352C45.552 21.7867 45.696 21.1307 45.696 20.384C45.696 19.6373 45.552 18.9867 45.264 18.432C44.976 17.8667 44.576 17.4347 44.064 17.136C43.552 16.8373 42.96 16.688 42.288 16.688C41.616 16.688 41.0187 16.8373 40.496 17.136C39.984 17.4347 39.584 17.8667 39.296 18.432C39.008 18.9867 38.864 19.6373 38.864 20.384C38.864 21.1307 39.008 21.7867 39.296 22.352C39.584 22.9173 39.984 23.3547 40.496 23.664C41.0187 23.9627 41.616 24.112 42.288 24.112ZM58.0345 17.136V26H55.7785V24.88C55.4905 25.264 55.1118 25.568 54.6425 25.792C54.1838 26.0053 53.6825 26.112 53.1385 26.112C52.4452 26.112 51.8318 25.968 51.2985 25.68C50.7652 25.3813 50.3438 24.9493 50.0345 24.384C49.7358 23.808 49.5865 23.1253 49.5865 22.336V17.136H51.8265V22.016C51.8265 22.72 52.0025 23.264 52.3545 23.648C52.7065 24.0213 53.1865 24.208 53.7945 24.208C54.4132 24.208 54.8985 24.0213 55.2505 23.648C55.6025 23.264 55.7785 22.72 55.7785 22.016V17.136H58.0345ZM62.4846 18.512C62.7726 18.0427 63.146 17.6747 63.6046 17.408C64.074 17.1413 64.6073 17.008 65.2046 17.008V19.36H64.6126C63.9086 19.36 63.3753 19.5253 63.0126 19.856C62.6606 20.1867 62.4846 20.7627 62.4846 21.584V26H60.2446V17.136H62.4846V18.512ZM78.6699 18.288C78.6699 18.8853 78.5259 19.4453 78.2379 19.968C77.9605 20.4907 77.5179 20.912 76.9099 21.232C76.3125 21.552 75.5552 21.712 74.6379 21.712H72.7659V26H70.5259V14.832H74.6379C75.5019 14.832 76.2379 14.9813 76.8459 15.28C77.4539 15.5787 77.9072 15.9893 78.2059 16.512C78.5152 17.0347 78.6699 17.6267 78.6699 18.288ZM74.5419 19.904C75.1605 19.904 75.6192 19.7653 75.9179 19.488C76.2165 19.2 76.3659 18.8 76.3659 18.288C76.3659 17.2 75.7579 16.656 74.5419 16.656H72.7659V19.904H74.5419ZM82.5003 18.512C82.7883 18.0427 83.1616 17.6747 83.6203 17.408C84.0896 17.1413 84.6229 17.008 85.2203 17.008V19.36H84.6283C83.9243 19.36 83.3909 19.5253 83.0283 19.856C82.6763 20.1867 82.5003 20.7627 82.5003 21.584V26H80.2603V17.136H82.5003V18.512ZM90.665 26.144C89.8117 26.144 89.0437 25.9573 88.361 25.584C87.6783 25.2 87.1397 24.6613 86.745 23.968C86.361 23.2747 86.169 22.4747 86.169 21.568C86.169 20.6613 86.3663 19.8613 86.761 19.168C87.1663 18.4747 87.7157 17.9413 88.409 17.568C89.1023 17.184 89.8757 16.992 90.729 16.992C91.5823 16.992 92.3557 17.184 93.049 17.568C93.7423 17.9413 94.2863 18.4747 94.681 19.168C95.0863 19.8613 95.289 20.6613 95.289 21.568C95.289 22.4747 95.081 23.2747 94.665 23.968C94.2597 24.6613 93.705 25.2 93.001 25.584C92.3077 25.9573 91.529 26.144 90.665 26.144ZM90.665 24.192C91.0703 24.192 91.449 24.096 91.801 23.904C92.1637 23.7013 92.4517 23.4027 92.665 23.008C92.8783 22.6133 92.985 22.1333 92.985 21.568C92.985 20.7253 92.761 20.08 92.313 19.632C91.8757 19.1733 91.337 18.944 90.697 18.944C90.057 18.944 89.5183 19.1733 89.081 19.632C88.6543 20.08 88.441 20.7253 88.441 21.568C88.441 22.4107 88.649 23.0613 89.065 23.52C89.4917 23.968 90.025 24.192 90.665 24.192ZM96.3561 21.536C96.3561 20.64 96.5321 19.8453 96.8841 19.152C97.2468 18.4587 97.7375 17.9253 98.3561 17.552C98.9748 17.1787 99.6628 16.992 100.42 16.992C100.996 16.992 101.545 17.12 102.068 17.376C102.591 17.6213 103.007 17.952 103.316 18.368V14.16H105.588V26H103.316V24.688C103.039 25.1253 102.649 25.4773 102.148 25.744C101.647 26.0107 101.065 26.144 100.404 26.144C99.6575 26.144 98.9748 25.952 98.3561 25.568C97.7375 25.184 97.2468 24.6453 96.8841 23.952C96.5321 23.248 96.3561 22.4427 96.3561 21.536ZM103.332 21.568C103.332 21.024 103.225 20.56 103.012 20.176C102.799 19.7813 102.511 19.4827 102.148 19.28C101.785 19.0667 101.396 18.96 100.98 18.96C100.564 18.96 100.18 19.0613 99.8281 19.264C99.4761 19.4667 99.1881 19.7653 98.9641 20.16C98.7508 20.544 98.6441 21.0027 98.6441 21.536C98.6441 22.0693 98.7508 22.5387 98.9641 22.944C99.1881 23.3387 99.4761 23.6427 99.8281 23.856C100.191 24.0693 100.575 24.176 100.98 24.176C101.396 24.176 101.785 24.0747 102.148 23.872C102.511 23.6587 102.799 23.36 103.012 22.976C103.225 22.5813 103.332 22.112 103.332 21.568ZM116.144 17.136V26H113.888V24.88C113.6 25.264 113.221 25.568 112.752 25.792C112.293 26.0053 111.792 26.112 111.248 26.112C110.555 26.112 109.941 25.968 109.408 25.68C108.875 25.3813 108.453 24.9493 108.144 24.384C107.845 23.808 107.696 23.1253 107.696 22.336V17.136H109.936V22.016C109.936 22.72 110.112 23.264 110.464 23.648C110.816 24.0213 111.296 24.208 111.904 24.208C112.523 24.208 113.008 24.0213 113.36 23.648C113.712 23.264 113.888 22.72 113.888 22.016V17.136H116.144ZM117.778 21.568C117.778 20.6507 117.965 19.8507 118.338 19.168C118.711 18.4747 119.229 17.9413 119.89 17.568C120.551 17.184 121.309 16.992 122.162 16.992C123.261 16.992 124.167 17.2693 124.882 17.824C125.607 18.368 126.093 19.136 126.338 20.128H123.922C123.794 19.744 123.575 19.4453 123.266 19.232C122.967 19.008 122.594 18.896 122.146 18.896C121.506 18.896 120.999 19.1307 120.626 19.6C120.253 20.0587 120.066 20.7147 120.066 21.568C120.066 22.4107 120.253 23.0667 120.626 23.536C120.999 23.9947 121.506 24.224 122.146 24.224C123.053 24.224 123.645 23.8187 123.922 23.008H126.338C126.093 23.968 125.607 24.7307 124.882 25.296C124.157 25.8613 123.25 26.144 122.162 26.144C121.309 26.144 120.551 25.9573 119.89 25.584C119.229 25.2 118.711 24.6667 118.338 23.984C117.965 23.2907 117.778 22.4853 117.778 21.568ZM130.587 18.976V23.264C130.587 23.5627 130.656 23.7813 130.795 23.92C130.944 24.048 131.19 24.112 131.531 24.112H132.571V26H131.163C129.275 26 128.331 25.0827 128.331 23.248V18.976H127.275V17.136H128.331V14.944H130.587V17.136H132.571V18.976H130.587ZM137.574 26.144C136.849 26.144 136.198 26.016 135.622 25.76C135.046 25.4933 134.587 25.136 134.246 24.688C133.915 24.24 133.734 23.744 133.702 23.2H135.958C136.001 23.5413 136.166 23.824 136.454 24.048C136.753 24.272 137.121 24.384 137.558 24.384C137.985 24.384 138.315 24.2987 138.55 24.128C138.795 23.9573 138.918 23.7387 138.918 23.472C138.918 23.184 138.769 22.9707 138.47 22.832C138.182 22.6827 137.718 22.5227 137.078 22.352C136.417 22.192 135.873 22.0267 135.446 21.856C135.03 21.6853 134.667 21.424 134.358 21.072C134.059 20.72 133.91 20.2453 133.91 19.648C133.91 19.1573 134.049 18.7093 134.326 18.304C134.614 17.8987 135.019 17.5787 135.542 17.344C136.075 17.1093 136.699 16.992 137.414 16.992C138.47 16.992 139.313 17.2587 139.942 17.792C140.571 18.3147 140.918 19.024 140.982 19.92H138.838C138.806 19.568 138.657 19.2907 138.39 19.088C138.134 18.8747 137.787 18.768 137.35 18.768C136.945 18.768 136.63 18.8427 136.406 18.992C136.193 19.1413 136.086 19.3493 136.086 19.616C136.086 19.9147 136.235 20.144 136.534 20.304C136.833 20.4533 137.297 20.608 137.926 20.768C138.566 20.928 139.094 21.0933 139.51 21.264C139.926 21.4347 140.283 21.7013 140.582 22.064C140.891 22.416 141.051 22.8853 141.062 23.472C141.062 23.984 140.918 24.4427 140.63 24.848C140.353 25.2533 139.947 25.5733 139.414 25.808C138.891 26.032 138.278 26.144 137.574 26.144Z" fill="#DB4444"/>
</svg>
