<svg width="85" height="40" viewBox="0 0 85 40" fill="none" xmlns="http://www.w3.org/2000/svg">
<rect width="20" height="40" rx="4" fill="#DB4444"/>
<path d="M43.44 20.272C44.0693 20.3893 44.5867 20.704 44.992 21.216C45.3973 21.728 45.6 22.3147 45.6 22.976C45.6 23.5733 45.4507 24.1013 45.152 24.56C44.864 25.008 44.4427 25.36 43.888 25.616C43.3333 25.872 42.6773 26 41.92 26H37.104V14.832H41.712C42.4693 14.832 43.12 14.9547 43.664 15.2C44.2187 15.4453 44.6347 15.7867 44.912 16.224C45.2 16.6613 45.344 17.1573 45.344 17.712C45.344 18.3627 45.168 18.9067 44.816 19.344C44.4747 19.7813 44.016 20.0907 43.44 20.272ZM39.344 19.44H41.392C41.9253 19.44 42.336 19.3227 42.624 19.088C42.912 18.8427 43.056 18.496 43.056 18.048C43.056 17.6 42.912 17.2533 42.624 17.008C42.336 16.7627 41.9253 16.64 41.392 16.64H39.344V19.44ZM41.6 24.176C42.144 24.176 42.5653 24.048 42.864 23.792C43.1733 23.536 43.328 23.1733 43.328 22.704C43.328 22.224 43.168 21.8507 42.848 21.584C42.528 21.3067 42.096 21.168 41.552 21.168H39.344V24.176H41.6ZM51.3213 26.144C50.4679 26.144 49.6999 25.9573 49.0173 25.584C48.3346 25.2 47.7959 24.6613 47.4013 23.968C47.0173 23.2747 46.8253 22.4747 46.8253 21.568C46.8253 20.6613 47.0226 19.8613 47.4173 19.168C47.8226 18.4747 48.3719 17.9413 49.0653 17.568C49.7586 17.184 50.5319 16.992 51.3853 16.992C52.2386 16.992 53.0119 17.184 53.7053 17.568C54.3986 17.9413 54.9426 18.4747 55.3373 19.168C55.7426 19.8613 55.9453 20.6613 55.9453 21.568C55.9453 22.4747 55.7373 23.2747 55.3212 23.968C54.9159 24.6613 54.3613 25.2 53.6573 25.584C52.9639 25.9573 52.1853 26.144 51.3213 26.144ZM51.3213 24.192C51.7266 24.192 52.1053 24.096 52.4573 23.904C52.8199 23.7013 53.1079 23.4027 53.3213 23.008C53.5346 22.6133 53.6413 22.1333 53.6413 21.568C53.6413 20.7253 53.4173 20.08 52.9693 19.632C52.5319 19.1733 51.9933 18.944 51.3533 18.944C50.7133 18.944 50.1746 19.1733 49.7373 19.632C49.3106 20.08 49.0973 20.7253 49.0973 21.568C49.0973 22.4107 49.3053 23.0613 49.7213 23.52C50.1479 23.968 50.6813 24.192 51.3213 24.192ZM61.5244 26.144C60.671 26.144 59.903 25.9573 59.2204 25.584C58.5377 25.2 57.999 24.6613 57.6044 23.968C57.2204 23.2747 57.0284 22.4747 57.0284 21.568C57.0284 20.6613 57.2257 19.8613 57.6204 19.168C58.0257 18.4747 58.575 17.9413 59.2684 17.568C59.9617 17.184 60.735 16.992 61.5884 16.992C62.4417 16.992 63.215 17.184 63.9084 17.568C64.6017 17.9413 65.1457 18.4747 65.5404 19.168C65.9457 19.8613 66.1484 20.6613 66.1484 21.568C66.1484 22.4747 65.9404 23.2747 65.5244 23.968C65.119 24.6613 64.5644 25.2 63.8604 25.584C63.167 25.9573 62.3884 26.144 61.5244 26.144ZM61.5244 24.192C61.9297 24.192 62.3084 24.096 62.6604 23.904C63.023 23.7013 63.311 23.4027 63.5244 23.008C63.7377 22.6133 63.8444 22.1333 63.8444 21.568C63.8444 20.7253 63.6204 20.08 63.1724 19.632C62.735 19.1733 62.1964 18.944 61.5564 18.944C60.9164 18.944 60.3777 19.1733 59.9404 19.632C59.5137 20.08 59.3004 20.7253 59.3004 21.568C59.3004 22.4107 59.5084 23.0613 59.9244 23.52C60.351 23.968 60.8844 24.192 61.5244 24.192ZM73.0395 26L70.0315 22.224V26H67.7915V14.16H70.0315V20.896L73.0075 17.136H75.9195L72.0155 21.584L75.9515 26H73.0395ZM80.5273 26.144C79.8019 26.144 79.1513 26.016 78.5753 25.76C77.9993 25.4933 77.5406 25.136 77.1993 24.688C76.8686 24.24 76.6873 23.744 76.6553 23.2H78.9113C78.9539 23.5413 79.1193 23.824 79.4073 24.048C79.7059 24.272 80.0739 24.384 80.5113 24.384C80.9379 24.384 81.2686 24.2987 81.5033 24.128C81.7486 23.9573 81.8713 23.7387 81.8713 23.472C81.8713 23.184 81.7219 22.9707 81.4233 22.832C81.1353 22.6827 80.6713 22.5227 80.0312 22.352C79.3699 22.192 78.8259 22.0267 78.3993 21.856C77.9833 21.6853 77.6206 21.424 77.3113 21.072C77.0126 20.72 76.8633 20.2453 76.8633 19.648C76.8633 19.1573 77.0019 18.7093 77.2793 18.304C77.5673 17.8987 77.9726 17.5787 78.4953 17.344C79.0286 17.1093 79.6526 16.992 80.3673 16.992C81.4233 16.992 82.2659 17.2587 82.8953 17.792C83.5246 18.3147 83.8713 19.024 83.9353 19.92H81.7913C81.7593 19.568 81.6099 19.2907 81.3433 19.088C81.0873 18.8747 80.7406 18.768 80.3033 18.768C79.8979 18.768 79.5833 18.8427 79.3593 18.992C79.1459 19.1413 79.0393 19.3493 79.0393 19.616C79.0393 19.9147 79.1886 20.144 79.4873 20.304C79.7859 20.4533 80.2499 20.608 80.8793 20.768C81.5193 20.928 82.0473 21.0933 82.4633 21.264C82.8793 21.4347 83.2366 21.7013 83.5353 22.064C83.8446 22.416 84.0046 22.8853 84.0153 23.472C84.0153 23.984 83.8713 24.4427 83.5833 24.848C83.3059 25.2533 82.9006 25.5733 82.3673 25.808C81.8446 26.032 81.2313 26.144 80.5273 26.144Z" fill="#DB4444"/>
</svg>
