<svg width="188" height="40" viewBox="0 0 188 40" fill="none" xmlns="http://www.w3.org/2000/svg">
<rect width="20" height="40" rx="4" fill="#DB4444"/>
<path d="M49.28 14.832V26H47.04V18.736L44.048 26H42.352L39.344 18.736V26H37.104V14.832H39.648L43.2 23.136L46.752 14.832H49.28ZM59.7346 21.376C59.7346 21.696 59.7133 21.984 59.6706 22.24H53.1906C53.244 22.88 53.468 23.3813 53.8626 23.744C54.2573 24.1067 54.7426 24.288 55.3186 24.288C56.1506 24.288 56.7426 23.9307 57.0946 23.216H59.5106C59.2546 24.0693 58.764 24.7733 58.0386 25.328C57.3133 25.872 56.4226 26.144 55.3666 26.144C54.5133 26.144 53.7453 25.9573 53.0626 25.584C52.3906 25.2 51.8626 24.6613 51.4786 23.968C51.1053 23.2747 50.9186 22.4747 50.9186 21.568C50.9186 20.6507 51.1053 19.8453 51.4786 19.152C51.852 18.4587 52.3746 17.9253 53.0466 17.552C53.7186 17.1787 54.492 16.992 55.3666 16.992C56.2093 16.992 56.9613 17.1733 57.6226 17.536C58.2946 17.8987 58.812 18.416 59.1746 19.088C59.548 19.7493 59.7346 20.512 59.7346 21.376ZM57.4146 20.736C57.404 20.16 57.196 19.7013 56.7906 19.36C56.3853 19.008 55.8893 18.832 55.3026 18.832C54.748 18.832 54.2786 19.0027 53.8946 19.344C53.5213 19.6747 53.292 20.1387 53.2066 20.736H57.4146ZM63.6096 14.16V26H61.3696V14.16H63.6096ZM70.8148 17.008C71.4868 17.008 72.0841 17.1573 72.6068 17.456C73.1294 17.744 73.5348 18.176 73.8228 18.752C74.1214 19.3173 74.2708 20 74.2708 20.8V26H72.0308V21.104C72.0308 20.4 71.8548 19.8613 71.5028 19.488C71.1508 19.104 70.6708 18.912 70.0628 18.912C69.4441 18.912 68.9534 19.104 68.5908 19.488C68.2388 19.8613 68.0628 20.4 68.0628 21.104V26H65.8228V14.16H68.0628V18.24C68.3508 17.856 68.7348 17.5573 69.2148 17.344C69.6948 17.12 70.2281 17.008 70.8148 17.008ZM80.3369 26.144C79.4835 26.144 78.7155 25.9573 78.0329 25.584C77.3502 25.2 76.8115 24.6613 76.4169 23.968C76.0329 23.2747 75.8409 22.4747 75.8409 21.568C75.8409 20.6613 76.0382 19.8613 76.4329 19.168C76.8382 18.4747 77.3875 17.9413 78.0809 17.568C78.7742 17.184 79.5475 16.992 80.4009 16.992C81.2542 16.992 82.0275 17.184 82.7209 17.568C83.4142 17.9413 83.9582 18.4747 84.3529 19.168C84.7582 19.8613 84.9609 20.6613 84.9609 21.568C84.9609 22.4747 84.7529 23.2747 84.3369 23.968C83.9315 24.6613 83.3769 25.2 82.6729 25.584C81.9795 25.9573 81.2009 26.144 80.3369 26.144ZM80.3369 24.192C80.7422 24.192 81.1209 24.096 81.4729 23.904C81.8355 23.7013 82.1235 23.4027 82.3369 23.008C82.5502 22.6133 82.6569 22.1333 82.6569 21.568C82.6569 20.7253 82.4329 20.08 81.9849 19.632C81.5475 19.1733 81.0089 18.944 80.3689 18.944C79.7289 18.944 79.1902 19.1733 78.7529 19.632C78.3262 20.08 78.1129 20.7253 78.1129 21.568C78.1129 22.4107 78.3209 23.0613 78.7369 23.52C79.1635 23.968 79.6969 24.192 80.3369 24.192ZM88.844 18.512C89.132 18.0427 89.5053 17.6747 89.964 17.408C90.4333 17.1413 90.9667 17.008 91.564 17.008V19.36H90.972C90.268 19.36 89.7347 19.5253 89.372 19.856C89.02 20.1867 88.844 20.7627 88.844 21.584V26H86.604V17.136H88.844V18.512ZM101.313 21.376C101.313 21.696 101.291 21.984 101.249 22.24H94.7688C94.8221 22.88 95.0461 23.3813 95.4408 23.744C95.8354 24.1067 96.3208 24.288 96.8968 24.288C97.7288 24.288 98.3208 23.9307 98.6728 23.216H101.089C100.833 24.0693 100.342 24.7733 99.6168 25.328C98.8914 25.872 98.0008 26.144 96.9448 26.144C96.0914 26.144 95.3234 25.9573 94.6408 25.584C93.9688 25.2 93.4408 24.6613 93.0568 23.968C92.6834 23.2747 92.4967 22.4747 92.4967 21.568C92.4967 20.6507 92.6834 19.8453 93.0568 19.152C93.4301 18.4587 93.9528 17.9253 94.6248 17.552C95.2968 17.1787 96.0701 16.992 96.9448 16.992C97.7874 16.992 98.5394 17.1733 99.2008 17.536C99.8728 17.8987 100.39 18.416 100.753 19.088C101.126 19.7493 101.313 20.512 101.313 21.376ZM98.9928 20.736C98.9821 20.16 98.7741 19.7013 98.3688 19.36C97.9634 19.008 97.4674 18.832 96.8808 18.832C96.3261 18.832 95.8568 19.0027 95.4728 19.344C95.0994 19.6747 94.8701 20.1387 94.7848 20.736H98.9928ZM106.34 26.144C105.614 26.144 104.964 26.016 104.388 25.76C103.812 25.4933 103.353 25.136 103.012 24.688C102.681 24.24 102.5 23.744 102.468 23.2H104.724C104.766 23.5413 104.932 23.824 105.22 24.048C105.518 24.272 105.886 24.384 106.324 24.384C106.75 24.384 107.081 24.2987 107.316 24.128C107.561 23.9573 107.684 23.7387 107.684 23.472C107.684 23.184 107.534 22.9707 107.236 22.832C106.948 22.6827 106.484 22.5227 105.844 22.352C105.182 22.192 104.638 22.0267 104.212 21.856C103.796 21.6853 103.433 21.424 103.124 21.072C102.825 20.72 102.676 20.2453 102.676 19.648C102.676 19.1573 102.814 18.7093 103.092 18.304C103.38 17.8987 103.785 17.5787 104.308 17.344C104.841 17.1093 105.465 16.992 106.18 16.992C107.236 16.992 108.078 17.2587 108.708 17.792C109.337 18.3147 109.684 19.024 109.748 19.92H107.604C107.572 19.568 107.422 19.2907 107.156 19.088C106.9 18.8747 106.553 18.768 106.116 18.768C105.71 18.768 105.396 18.8427 105.172 18.992C104.958 19.1413 104.852 19.3493 104.852 19.616C104.852 19.9147 105.001 20.144 105.3 20.304C105.598 20.4533 106.062 20.608 106.692 20.768C107.332 20.928 107.86 21.0933 108.276 21.264C108.692 21.4347 109.049 21.7013 109.348 22.064C109.657 22.416 109.817 22.8853 109.828 23.472C109.828 23.984 109.684 24.4427 109.396 24.848C109.118 25.2533 108.713 25.5733 108.18 25.808C107.657 26.032 107.044 26.144 106.34 26.144ZM123.623 18.288C123.623 18.8853 123.479 19.4453 123.191 19.968C122.914 20.4907 122.471 20.912 121.863 21.232C121.266 21.552 120.508 21.712 119.591 21.712H117.719V26H115.479V14.832H119.591C120.455 14.832 121.191 14.9813 121.799 15.28C122.407 15.5787 122.86 15.9893 123.159 16.512C123.468 17.0347 123.623 17.6267 123.623 18.288ZM119.495 19.904C120.114 19.904 120.572 19.7653 120.871 19.488C121.17 19.2 121.319 18.8 121.319 18.288C121.319 17.2 120.711 16.656 119.495 16.656H117.719V19.904H119.495ZM127.453 18.512C127.741 18.0427 128.115 17.6747 128.573 17.408C129.043 17.1413 129.576 17.008 130.173 17.008V19.36H129.581C128.877 19.36 128.344 19.5253 127.981 19.856C127.629 20.1867 127.453 20.7627 127.453 21.584V26H125.213V17.136H127.453V18.512ZM135.618 26.144C134.765 26.144 133.997 25.9573 133.314 25.584C132.631 25.2 132.093 24.6613 131.698 23.968C131.314 23.2747 131.122 22.4747 131.122 21.568C131.122 20.6613 131.319 19.8613 131.714 19.168C132.119 18.4747 132.669 17.9413 133.362 17.568C134.055 17.184 134.829 16.992 135.682 16.992C136.535 16.992 137.309 17.184 138.002 17.568C138.695 17.9413 139.239 18.4747 139.634 19.168C140.039 19.8613 140.242 20.6613 140.242 21.568C140.242 22.4747 140.034 23.2747 139.618 23.968C139.213 24.6613 138.658 25.2 137.954 25.584C137.261 25.9573 136.482 26.144 135.618 26.144ZM135.618 24.192C136.023 24.192 136.402 24.096 136.754 23.904C137.117 23.7013 137.405 23.4027 137.618 23.008C137.831 22.6133 137.938 22.1333 137.938 21.568C137.938 20.7253 137.714 20.08 137.266 19.632C136.829 19.1733 136.29 18.944 135.65 18.944C135.01 18.944 134.471 19.1733 134.034 19.632C133.607 20.08 133.394 20.7253 133.394 21.568C133.394 22.4107 133.602 23.0613 134.018 23.52C134.445 23.968 134.978 24.192 135.618 24.192ZM141.309 21.536C141.309 20.64 141.485 19.8453 141.837 19.152C142.2 18.4587 142.691 17.9253 143.309 17.552C143.928 17.1787 144.616 16.992 145.373 16.992C145.949 16.992 146.499 17.12 147.021 17.376C147.544 17.6213 147.96 17.952 148.269 18.368V14.16H150.541V26H148.269V24.688C147.992 25.1253 147.603 25.4773 147.101 25.744C146.6 26.0107 146.019 26.144 145.357 26.144C144.611 26.144 143.928 25.952 143.309 25.568C142.691 25.184 142.2 24.6453 141.837 23.952C141.485 23.248 141.309 22.4427 141.309 21.536ZM148.285 21.568C148.285 21.024 148.179 20.56 147.965 20.176C147.752 19.7813 147.464 19.4827 147.101 19.28C146.739 19.0667 146.349 18.96 145.933 18.96C145.517 18.96 145.133 19.0613 144.781 19.264C144.429 19.4667 144.141 19.7653 143.917 20.16C143.704 20.544 143.597 21.0027 143.597 21.536C143.597 22.0693 143.704 22.5387 143.917 22.944C144.141 23.3387 144.429 23.6427 144.781 23.856C145.144 24.0693 145.528 24.176 145.933 24.176C146.349 24.176 146.739 24.0747 147.101 23.872C147.464 23.6587 147.752 23.36 147.965 22.976C148.179 22.5813 148.285 22.112 148.285 21.568ZM161.097 17.136V26H158.841V24.88C158.553 25.264 158.174 25.568 157.705 25.792C157.246 26.0053 156.745 26.112 156.201 26.112C155.508 26.112 154.894 25.968 154.361 25.68C153.828 25.3813 153.406 24.9493 153.097 24.384C152.798 23.808 152.649 23.1253 152.649 22.336V17.136H154.889V22.016C154.889 22.72 155.065 23.264 155.417 23.648C155.769 24.0213 156.249 24.208 156.857 24.208C157.476 24.208 157.961 24.0213 158.313 23.648C158.665 23.264 158.841 22.72 158.841 22.016V17.136H161.097ZM165.915 18.976V23.264C165.915 23.5627 165.984 23.7813 166.123 23.92C166.272 24.048 166.518 24.112 166.859 24.112H167.899V26H166.491C164.603 26 163.659 25.0827 163.659 23.248V18.976H162.603V17.136H163.659V14.944H165.915V17.136H167.899V18.976H165.915ZM173.446 26.144C172.593 26.144 171.825 25.9573 171.142 25.584C170.46 25.2 169.921 24.6613 169.526 23.968C169.142 23.2747 168.95 22.4747 168.95 21.568C168.95 20.6613 169.148 19.8613 169.542 19.168C169.948 18.4747 170.497 17.9413 171.19 17.568C171.884 17.184 172.657 16.992 173.51 16.992C174.364 16.992 175.137 17.184 175.83 17.568C176.524 17.9413 177.068 18.4747 177.462 19.168C177.868 19.8613 178.07 20.6613 178.07 21.568C178.07 22.4747 177.862 23.2747 177.446 23.968C177.041 24.6613 176.486 25.2 175.782 25.584C175.089 25.9573 174.31 26.144 173.446 26.144ZM173.446 24.192C173.852 24.192 174.23 24.096 174.582 23.904C174.945 23.7013 175.233 23.4027 175.446 23.008C175.66 22.6133 175.766 22.1333 175.766 21.568C175.766 20.7253 175.542 20.08 175.094 19.632C174.657 19.1733 174.118 18.944 173.478 18.944C172.838 18.944 172.3 19.1733 171.862 19.632C171.436 20.08 171.222 20.7253 171.222 21.568C171.222 22.4107 171.43 23.0613 171.846 23.52C172.273 23.968 172.806 24.192 173.446 24.192ZM183.105 26.144C182.38 26.144 181.729 26.016 181.153 25.76C180.577 25.4933 180.119 25.136 179.777 24.688C179.447 24.24 179.265 23.744 179.233 23.2H181.489C181.532 23.5413 181.697 23.824 181.985 24.048C182.284 24.272 182.652 24.384 183.089 24.384C183.516 24.384 183.847 24.2987 184.081 24.128C184.327 23.9573 184.449 23.7387 184.449 23.472C184.449 23.184 184.3 22.9707 184.001 22.832C183.713 22.6827 183.249 22.5227 182.609 22.352C181.948 22.192 181.404 22.0267 180.977 21.856C180.561 21.6853 180.199 21.424 179.889 21.072C179.591 20.72 179.441 20.2453 179.441 19.648C179.441 19.1573 179.58 18.7093 179.857 18.304C180.145 17.8987 180.551 17.5787 181.073 17.344C181.607 17.1093 182.231 16.992 182.945 16.992C184.001 16.992 184.844 17.2587 185.473 17.792C186.103 18.3147 186.449 19.024 186.513 19.92H184.369C184.337 19.568 184.188 19.2907 183.921 19.088C183.665 18.8747 183.319 18.768 182.881 18.768C182.476 18.768 182.161 18.8427 181.937 18.992C181.724 19.1413 181.617 19.3493 181.617 19.616C181.617 19.9147 181.767 20.144 182.065 20.304C182.364 20.4533 182.828 20.608 183.457 20.768C184.097 20.928 184.625 21.0933 185.041 21.264C185.457 21.4347 185.815 21.7013 186.113 22.064C186.423 22.416 186.583 22.8853 186.593 23.472C186.593 23.984 186.449 24.4427 186.161 24.848C185.884 25.2533 185.479 25.5733 184.945 25.808C184.423 26.032 183.809 26.144 183.105 26.144Z" fill="#DB4444"/>
</svg>
