<svg width="57" height="13" viewBox="0 0 57 13" fill="none" xmlns="http://www.w3.org/2000/svg">
<path d="M7.688 4.112C7.688 5.04 7.368 5.81333 6.728 6.432C6.09867 7.04 5.13333 7.344 3.832 7.344H1.688V12H0.232V0.848H3.832C5.09067 0.848 6.04533 1.152 6.696 1.76C7.35733 2.368 7.688 3.152 7.688 4.112ZM3.832 6.144C4.64267 6.144 5.24 5.968 5.624 5.616C6.008 5.264 6.2 4.76267 6.2 4.112C6.2 2.736 5.41067 2.048 3.832 2.048H1.688V6.144H3.832ZM13.8496 3.072C14.511 3.072 15.1083 3.216 15.6416 3.504C16.175 3.78133 16.591 4.20267 16.8896 4.768C17.199 5.33333 17.3536 6.02133 17.3536 6.832V12H15.9136V7.04C15.9136 6.16533 15.695 5.49867 15.2576 5.04C14.8203 4.57067 14.223 4.336 13.4656 4.336C12.6976 4.336 12.0843 4.576 11.6256 5.056C11.1776 5.536 10.9536 6.23467 10.9536 7.152V12H9.49763V0.16H10.9536V4.48C11.2416 4.032 11.6363 3.68533 12.1376 3.44C12.6496 3.19467 13.2203 3.072 13.8496 3.072ZM23.556 12.144C22.7347 12.144 21.988 11.9573 21.316 11.584C20.6547 11.2107 20.132 10.6827 19.748 10C19.3747 9.30667 19.188 8.50667 19.188 7.6C19.188 6.704 19.38 5.91467 19.764 5.232C20.1587 4.53867 20.692 4.01067 21.364 3.648C22.036 3.27467 22.788 3.088 23.62 3.088C24.452 3.088 25.204 3.27467 25.876 3.648C26.548 4.01067 27.076 4.53333 27.46 5.216C27.8547 5.89867 28.052 6.69333 28.052 7.6C28.052 8.50667 27.8493 9.30667 27.444 10C27.0493 10.6827 26.5107 11.2107 25.828 11.584C25.1453 11.9573 24.388 12.144 23.556 12.144ZM23.556 10.864C24.0787 10.864 24.5693 10.7413 25.028 10.496C25.4867 10.2507 25.8547 9.88267 26.132 9.392C26.42 8.90133 26.564 8.304 26.564 7.6C26.564 6.896 26.4253 6.29867 26.148 5.808C25.8707 5.31733 25.508 4.95467 25.06 4.72C24.612 4.47467 24.1267 4.352 23.604 4.352C23.0707 4.352 22.58 4.47467 22.132 4.72C21.6947 4.95467 21.3427 5.31733 21.076 5.808C20.8093 6.29867 20.676 6.896 20.676 7.6C20.676 8.31467 20.804 8.91733 21.06 9.408C21.3267 9.89867 21.6787 10.2667 22.116 10.512C22.5533 10.7467 23.0333 10.864 23.556 10.864ZM34.2384 3.072C35.305 3.072 36.169 3.39733 36.8304 4.048C37.4917 4.688 37.8224 5.616 37.8224 6.832V12H36.3824V7.04C36.3824 6.16533 36.1637 5.49867 35.7264 5.04C35.289 4.57067 34.6917 4.336 33.9344 4.336C33.1664 4.336 32.553 4.576 32.0944 5.056C31.6464 5.536 31.4224 6.23467 31.4224 7.152V12H29.9664V3.232H31.4224V4.48C31.7104 4.032 32.0997 3.68533 32.5904 3.44C33.0917 3.19467 33.641 3.072 34.2384 3.072ZM48.2008 7.28C48.2008 7.55733 48.1848 7.85067 48.1528 8.16H41.1448C41.1981 9.024 41.4914 9.70133 42.0248 10.192C42.5688 10.672 43.2248 10.912 43.9928 10.912C44.6221 10.912 45.1448 10.768 45.5608 10.48C45.9874 10.1813 46.2861 9.78667 46.4568 9.296H48.0248C47.7901 10.1387 47.3208 10.8267 46.6168 11.36C45.9128 11.8827 45.0381 12.144 43.9928 12.144C43.1608 12.144 42.4141 11.9573 41.7528 11.584C41.1021 11.2107 40.5901 10.6827 40.2168 10C39.8434 9.30667 39.6568 8.50667 39.6568 7.6C39.6568 6.69333 39.8381 5.89867 40.2008 5.216C40.5634 4.53333 41.0701 4.01067 41.7208 3.648C42.3821 3.27467 43.1394 3.088 43.9928 3.088C44.8248 3.088 45.5608 3.26933 46.2008 3.632C46.8408 3.99467 47.3314 4.496 47.6728 5.136C48.0248 5.76533 48.2008 6.48 48.2008 7.28ZM46.6968 6.976C46.6968 6.42133 46.5741 5.94667 46.3288 5.552C46.0834 5.14667 45.7474 4.84267 45.3208 4.64C44.9048 4.42667 44.4408 4.32 43.9288 4.32C43.1928 4.32 42.5634 4.55467 42.0408 5.024C41.5288 5.49333 41.2354 6.144 41.1608 6.976H46.6968ZM53.2266 12.144C52.5546 12.144 51.952 12.032 51.4186 11.808C50.8853 11.5733 50.464 11.2533 50.1546 10.848C49.8453 10.432 49.6746 9.95733 49.6426 9.424H51.1466C51.1893 9.86133 51.392 10.2187 51.7546 10.496C52.128 10.7733 52.6133 10.912 53.2106 10.912C53.7653 10.912 54.2026 10.7893 54.5226 10.544C54.8426 10.2987 55.0026 9.98933 55.0026 9.616C55.0026 9.232 54.832 8.94933 54.4906 8.768C54.1493 8.576 53.6213 8.38933 52.9066 8.208C52.256 8.03733 51.7226 7.86667 51.3066 7.696C50.9013 7.51467 50.5493 7.25333 50.2506 6.912C49.9626 6.56 49.8186 6.10133 49.8186 5.536C49.8186 5.088 49.952 4.67733 50.2186 4.304C50.4853 3.93067 50.864 3.63733 51.3546 3.424C51.8453 3.2 52.4053 3.088 53.0346 3.088C54.0053 3.088 54.7893 3.33333 55.3866 3.824C55.984 4.31467 56.304 4.98667 56.3466 5.84H54.8906C54.8586 5.38133 54.672 5.01333 54.3306 4.736C54 4.45867 53.552 4.32 52.9866 4.32C52.464 4.32 52.048 4.432 51.7386 4.656C51.4293 4.88 51.2746 5.17333 51.2746 5.536C51.2746 5.824 51.3653 6.064 51.5466 6.256C51.7386 6.43733 51.9733 6.58667 52.2506 6.704C52.5386 6.81067 52.9333 6.93333 53.4346 7.072C54.064 7.24267 54.576 7.41333 54.9706 7.584C55.3653 7.744 55.7013 7.98933 55.9786 8.32C56.2666 8.65067 56.416 9.08267 56.4266 9.616C56.4266 10.096 56.2933 10.528 56.0266 10.912C55.76 11.296 55.3813 11.6 54.8906 11.824C54.4106 12.0373 53.856 12.144 53.2266 12.144Z" fill="black"/>
</svg>
