<svg width="943" height="161" viewBox="0 0 943 161" fill="none" xmlns="http://www.w3.org/2000/svg">
<path opacity="0.3" d="M164.5 40C164.5 62.0914 146.591 80 124.5 80C102.409 80 84.5 62.0914 84.5 40C84.5 17.9086 102.409 0 124.5 0C146.591 0 164.5 17.9086 164.5 40ZM95.4071 40C95.4071 56.0675 108.432 69.0929 124.5 69.0929C140.568 69.0929 153.593 56.0675 153.593 40C153.593 23.9325 140.568 10.9071 124.5 10.9071C108.432 10.9071 95.4071 23.9325 95.4071 40Z" fill="#2F2E30"/>
<circle cx="124.5" cy="40" r="29" fill="black"/>
<g clip-path="url(#clip0_120_1579)">
<path d="M116.167 51.6667C118.008 51.6667 119.5 50.1743 119.5 48.3333C119.5 46.4924 118.008 45 116.167 45C114.326 45 112.833 46.4924 112.833 48.3333C112.833 50.1743 114.326 51.6667 116.167 51.6667Z" stroke="#FAFAFA" stroke-width="2" stroke-linecap="round" stroke-linejoin="round"/>
<path d="M132.833 51.6667C134.674 51.6667 136.167 50.1743 136.167 48.3333C136.167 46.4924 134.674 45 132.833 45C130.992 45 129.5 46.4924 129.5 48.3333C129.5 50.1743 130.992 51.6667 132.833 51.6667Z" stroke="#FAFAFA" stroke-width="2" stroke-linecap="round" stroke-linejoin="round"/>
<path d="M112.833 48.3335H111.5C110.395 48.3335 109.5 47.4381 109.5 46.3335V41.6668M107.833 28.3335H124.167C125.271 28.3335 126.167 29.2289 126.167 30.3335V48.3335M119.5 48.3335H129.5M136.167 48.3335H137.5C138.605 48.3335 139.5 47.4381 139.5 46.3335V38.3335M139.5 38.3335H126.167M139.5 38.3335L135.083 30.9712C134.721 30.3688 134.07 30.0002 133.368 30.0002H126.167" stroke="#FAFAFA" stroke-width="2" stroke-linecap="round" stroke-linejoin="round"/>
<path d="M112.5 48H111.167C110.062 48 109.167 47.1046 109.167 46V41.3333M107.5 28H123.833C124.938 28 125.833 28.8954 125.833 30V48M119.5 48H129.167M136.5 48H137.167C138.271 48 139.167 47.1046 139.167 46V38M139.167 38H125.833M139.167 38L134.749 30.6377C134.388 30.0353 133.737 29.6667 133.034 29.6667H125.833" stroke="#FAFAFA" stroke-width="2" stroke-linecap="round" stroke-linejoin="round"/>
<path d="M109.5 31.8184H116.167" stroke="#FAFAFA" stroke-width="2" stroke-linecap="round" stroke-linejoin="round"/>
<path d="M106.318 35.4546H112.985" stroke="#FAFAFA" stroke-width="2" stroke-linecap="round" stroke-linejoin="round"/>
<path d="M109.5 39.0908H116.167" stroke="#FAFAFA" stroke-width="2" stroke-linecap="round" stroke-linejoin="round"/>
</g>
<path d="M13.5 111.04V113.3H7.68V116.88H12.14V119.1H7.68V125H4.88V111.04H13.5ZM22.6855 125L19.6055 119.56H18.2855V125H15.4855V111.04H20.7255C21.8055 111.04 22.7255 111.233 23.4855 111.62C24.2455 111.993 24.8121 112.507 25.1855 113.16C25.5721 113.8 25.7655 114.52 25.7655 115.32C25.7655 116.24 25.4988 117.073 24.9655 117.82C24.4321 118.553 23.6388 119.06 22.5855 119.34L25.9255 125H22.6855ZM18.2855 117.46H20.6255C21.3855 117.46 21.9521 117.28 22.3255 116.92C22.6988 116.547 22.8855 116.033 22.8855 115.38C22.8855 114.74 22.6988 114.247 22.3255 113.9C21.9521 113.54 21.3855 113.36 20.6255 113.36H18.2855V117.46ZM31.098 113.3V116.8H35.798V119.02H31.098V122.72H36.398V125H28.298V111.02H36.398V113.3H31.098ZM41.7425 113.3V116.8H46.4425V119.02H41.7425V122.72H47.0425V125H38.9425V111.02H47.0425V113.3H41.7425ZM62.9127 122.34H57.3527L56.4327 125H53.4927L58.5127 111.02H61.7727L66.7927 125H63.8327L62.9127 122.34ZM62.1527 120.1L60.1327 114.26L58.1127 120.1H62.1527ZM80.6091 125H77.8091L71.4691 115.42V125H68.6691V111.02H71.4691L77.8091 120.62V111.02H80.6091V125ZM88.2561 111.04C89.7228 111.04 91.0094 111.327 92.1161 111.9C93.2361 112.473 94.0961 113.293 94.6961 114.36C95.3094 115.413 95.6161 116.64 95.6161 118.04C95.6161 119.44 95.3094 120.667 94.6961 121.72C94.0961 122.76 93.2361 123.567 92.1161 124.14C91.0094 124.713 89.7228 125 88.2561 125H83.3761V111.04H88.2561ZM88.1561 122.62C89.6228 122.62 90.7561 122.22 91.5561 121.42C92.3561 120.62 92.7561 119.493 92.7561 118.04C92.7561 116.587 92.3561 115.453 91.5561 114.64C90.7561 113.813 89.6228 113.4 88.1561 113.4H86.1761V122.62H88.1561ZM111.098 111.04V113.3H105.278V116.88H109.738V119.1H105.278V125H102.478V111.04H111.098ZM121.643 122.34H116.083L115.163 125H112.223L117.243 111.02H120.503L125.523 125H122.563L121.643 122.34ZM120.883 120.1L118.863 114.26L116.843 120.1H120.883ZM132.22 125.14C131.246 125.14 130.366 124.973 129.58 124.64C128.806 124.307 128.193 123.827 127.74 123.2C127.286 122.573 127.053 121.833 127.04 120.98H130.04C130.08 121.553 130.28 122.007 130.64 122.34C131.013 122.673 131.52 122.84 132.16 122.84C132.813 122.84 133.326 122.687 133.7 122.38C134.073 122.06 134.26 121.647 134.26 121.14C134.26 120.727 134.133 120.387 133.88 120.12C133.626 119.853 133.306 119.647 132.92 119.5C132.546 119.34 132.026 119.167 131.36 118.98C130.453 118.713 129.713 118.453 129.14 118.2C128.58 117.933 128.093 117.54 127.68 117.02C127.28 116.487 127.08 115.78 127.08 114.9C127.08 114.073 127.286 113.353 127.7 112.74C128.113 112.127 128.693 111.66 129.44 111.34C130.186 111.007 131.04 110.84 132 110.84C133.44 110.84 134.606 111.193 135.5 111.9C136.406 112.593 136.906 113.567 137 114.82H133.92C133.893 114.34 133.686 113.947 133.3 113.64C132.926 113.32 132.426 113.16 131.8 113.16C131.253 113.16 130.813 113.3 130.48 113.58C130.16 113.86 130 114.267 130 114.8C130 115.173 130.12 115.487 130.36 115.74C130.613 115.98 130.92 116.18 131.28 116.34C131.653 116.487 132.173 116.66 132.84 116.86C133.746 117.127 134.486 117.393 135.06 117.66C135.633 117.927 136.126 118.327 136.54 118.86C136.953 119.393 137.16 120.093 137.16 120.96C137.16 121.707 136.966 122.4 136.58 123.04C136.193 123.68 135.626 124.193 134.88 124.58C134.133 124.953 133.246 125.14 132.22 125.14ZM149.087 111.04V113.3H145.367V125H142.567V113.3H138.847V111.04H149.087ZM160.776 111.04C162.242 111.04 163.529 111.327 164.636 111.9C165.756 112.473 166.616 113.293 167.216 114.36C167.829 115.413 168.136 116.64 168.136 118.04C168.136 119.44 167.829 120.667 167.216 121.72C166.616 122.76 165.756 123.567 164.636 124.14C163.529 124.713 162.242 125 160.776 125H155.896V111.04H160.776ZM160.676 122.62C162.142 122.62 163.276 122.22 164.076 121.42C164.876 120.62 165.276 119.493 165.276 118.04C165.276 116.587 164.876 115.453 164.076 114.64C163.276 113.813 162.142 113.4 160.676 113.4H158.696V122.62H160.676ZM173.032 113.3V116.8H177.732V119.02H173.032V122.72H178.332V125H170.232V111.02H178.332V113.3H173.032ZM183.676 122.78H188.276V125H180.876V111.04H183.676V122.78ZM192.856 111.04V125H190.056V111.04H192.856ZM208.162 111.04L203.042 125H199.642L194.522 111.04H197.522L201.362 122.14L205.182 111.04H208.162ZM212.641 113.3V116.8H217.341V119.02H212.641V122.72H217.941V125H209.841V111.02H217.941V113.3H212.641ZM227.685 125L224.605 119.56H223.285V125H220.485V111.04H225.725C226.805 111.04 227.725 111.233 228.485 111.62C229.245 111.993 229.812 112.507 230.185 113.16C230.572 113.8 230.765 114.52 230.765 115.32C230.765 116.24 230.499 117.073 229.965 117.82C229.432 118.553 228.639 119.06 227.585 119.34L230.925 125H227.685ZM223.285 117.46H225.625C226.385 117.46 226.952 117.28 227.325 116.92C227.699 116.547 227.885 116.033 227.885 115.38C227.885 114.74 227.699 114.247 227.325 113.9C226.952 113.54 226.385 113.36 225.625 113.36H223.285V117.46ZM244.398 111.04L239.678 120.14V125H236.878V120.14L232.138 111.04H235.298L238.298 117.42L241.278 111.04H244.398Z" fill="black"/>
<path d="M6.99439 145.242V146.278H2.75239V149.568H6.19639V150.604H2.75239V155H1.47839V145.242H6.99439ZM9.80708 148.574C10.0311 148.135 10.3484 147.795 10.7591 147.552C11.1791 147.309 11.6877 147.188 12.2851 147.188V148.504H11.9491C10.5211 148.504 9.80708 149.279 9.80708 150.828V155H8.53308V147.328H9.80708V148.574ZM20.7557 150.87C20.7557 151.113 20.7417 151.369 20.7137 151.64H14.5817C14.6284 152.396 14.8851 152.989 15.3517 153.418C15.8277 153.838 16.4017 154.048 17.0737 154.048C17.6244 154.048 18.0817 153.922 18.4457 153.67C18.8191 153.409 19.0804 153.063 19.2297 152.634H20.6017C20.3964 153.371 19.9857 153.973 19.3697 154.44C18.7537 154.897 17.9884 155.126 17.0737 155.126C16.3457 155.126 15.6924 154.963 15.1137 154.636C14.5444 154.309 14.0964 153.847 13.7697 153.25C13.4431 152.643 13.2797 151.943 13.2797 151.15C13.2797 150.357 13.4384 149.661 13.7557 149.064C14.0731 148.467 14.5164 148.009 15.0857 147.692C15.6644 147.365 16.3271 147.202 17.0737 147.202C17.8017 147.202 18.4457 147.361 19.0057 147.678C19.5657 147.995 19.9951 148.434 20.2937 148.994C20.6017 149.545 20.7557 150.17 20.7557 150.87ZM19.4397 150.604C19.4397 150.119 19.3324 149.703 19.1177 149.358C18.9031 149.003 18.6091 148.737 18.2357 148.56C17.8717 148.373 17.4657 148.28 17.0177 148.28C16.3737 148.28 15.8231 148.485 15.3657 148.896C14.9177 149.307 14.6611 149.876 14.5957 150.604H19.4397ZM29.4374 150.87C29.4374 151.113 29.4234 151.369 29.3954 151.64H23.2634C23.31 152.396 23.5667 152.989 24.0334 153.418C24.5094 153.838 25.0834 154.048 25.7554 154.048C26.306 154.048 26.7634 153.922 27.1274 153.67C27.5007 153.409 27.762 153.063 27.9114 152.634H29.2834C29.078 153.371 28.6674 153.973 28.0514 154.44C27.4354 154.897 26.67 155.126 25.7554 155.126C25.0274 155.126 24.374 154.963 23.7954 154.636C23.226 154.309 22.778 153.847 22.4514 153.25C22.1247 152.643 21.9614 151.943 21.9614 151.15C21.9614 150.357 22.12 149.661 22.4374 149.064C22.7547 148.467 23.198 148.009 23.7674 147.692C24.346 147.365 25.0087 147.202 25.7554 147.202C26.4834 147.202 27.1274 147.361 27.6874 147.678C28.2474 147.995 28.6767 148.434 28.9754 148.994C29.2834 149.545 29.4374 150.17 29.4374 150.87ZM28.1214 150.604C28.1214 150.119 28.014 149.703 27.7994 149.358C27.5847 149.003 27.2907 148.737 26.9174 148.56C26.5534 148.373 26.1474 148.28 25.6994 148.28C25.0554 148.28 24.5047 148.485 24.0474 148.896C23.5994 149.307 23.3427 149.876 23.2774 150.604H28.1214ZM34.3754 151.136C34.3754 150.352 34.5341 149.666 34.8514 149.078C35.1688 148.481 35.6028 148.019 36.1534 147.692C36.7134 147.365 37.3388 147.202 38.0294 147.202C38.6268 147.202 39.1821 147.342 39.6954 147.622C40.2088 147.893 40.6008 148.252 40.8714 148.7V144.64H42.1594V155H40.8714V153.558C40.6194 154.015 40.2461 154.393 39.7514 154.692C39.2568 154.981 38.6781 155.126 38.0154 155.126C37.3341 155.126 36.7134 154.958 36.1534 154.622C35.6028 154.286 35.1688 153.815 34.8514 153.208C34.5341 152.601 34.3754 151.911 34.3754 151.136ZM40.8714 151.15C40.8714 150.571 40.7548 150.067 40.5214 149.638C40.2881 149.209 39.9708 148.882 39.5694 148.658C39.1774 148.425 38.7434 148.308 38.2674 148.308C37.7914 148.308 37.3574 148.42 36.9654 148.644C36.5734 148.868 36.2608 149.195 36.0274 149.624C35.7941 150.053 35.6774 150.557 35.6774 151.136C35.6774 151.724 35.7941 152.237 36.0274 152.676C36.2608 153.105 36.5734 153.437 36.9654 153.67C37.3574 153.894 37.7914 154.006 38.2674 154.006C38.7434 154.006 39.1774 153.894 39.5694 153.67C39.9708 153.437 40.2881 153.105 40.5214 152.676C40.7548 152.237 40.8714 151.729 40.8714 151.15ZM51.3124 150.87C51.3124 151.113 51.2984 151.369 51.2704 151.64H45.1384C45.185 152.396 45.4417 152.989 45.9084 153.418C46.3844 153.838 46.9584 154.048 47.6304 154.048C48.181 154.048 48.6384 153.922 49.0024 153.67C49.3757 153.409 49.637 153.063 49.7864 152.634H51.1584C50.953 153.371 50.5424 153.973 49.9264 154.44C49.3104 154.897 48.545 155.126 47.6304 155.126C46.9024 155.126 46.249 154.963 45.6704 154.636C45.101 154.309 44.653 153.847 44.3264 153.25C43.9997 152.643 43.8364 151.943 43.8364 151.15C43.8364 150.357 43.995 149.661 44.3124 149.064C44.6297 148.467 45.073 148.009 45.6424 147.692C46.221 147.365 46.8837 147.202 47.6304 147.202C48.3584 147.202 49.0024 147.361 49.5624 147.678C50.1224 147.995 50.5517 148.434 50.8504 148.994C51.1584 149.545 51.3124 150.17 51.3124 150.87ZM49.9964 150.604C49.9964 150.119 49.889 149.703 49.6744 149.358C49.4597 149.003 49.1657 148.737 48.7924 148.56C48.4284 148.373 48.0224 148.28 47.5744 148.28C46.9304 148.28 46.3797 148.485 45.9224 148.896C45.4744 149.307 45.2177 149.876 45.1524 150.604H49.9964ZM54.268 144.64V155H52.994V144.64H54.268ZM57.0973 146.082C56.8547 146.082 56.6493 145.998 56.4813 145.83C56.3133 145.662 56.2293 145.457 56.2293 145.214C56.2293 144.971 56.3133 144.766 56.4813 144.598C56.6493 144.43 56.8547 144.346 57.0973 144.346C57.3307 144.346 57.5267 144.43 57.6853 144.598C57.8533 144.766 57.9373 144.971 57.9373 145.214C57.9373 145.457 57.8533 145.662 57.6853 145.83C57.5267 145.998 57.3307 146.082 57.0973 146.082ZM57.7133 147.328V155H56.4393V147.328H57.7133ZM62.7406 153.824L65.1206 147.328H66.4786L63.4686 155H61.9846L58.9746 147.328H60.3466L62.7406 153.824ZM74.7323 150.87C74.7323 151.113 74.7183 151.369 74.6903 151.64H68.5583C68.605 152.396 68.8616 152.989 69.3283 153.418C69.8043 153.838 70.3783 154.048 71.0503 154.048C71.601 154.048 72.0583 153.922 72.4223 153.67C72.7956 153.409 73.057 153.063 73.2063 152.634H74.5783C74.373 153.371 73.9623 153.973 73.3463 154.44C72.7303 154.897 71.965 155.126 71.0503 155.126C70.3223 155.126 69.669 154.963 69.0903 154.636C68.521 154.309 68.073 153.847 67.7463 153.25C67.4196 152.643 67.2563 151.943 67.2563 151.15C67.2563 150.357 67.415 149.661 67.7323 149.064C68.0496 148.467 68.493 148.009 69.0623 147.692C69.641 147.365 70.3036 147.202 71.0503 147.202C71.7783 147.202 72.4223 147.361 72.9823 147.678C73.5423 147.995 73.9716 148.434 74.2703 148.994C74.5783 149.545 74.7323 150.17 74.7323 150.87ZM73.4163 150.604C73.4163 150.119 73.309 149.703 73.0943 149.358C72.8796 149.003 72.5856 148.737 72.2123 148.56C71.8483 148.373 71.4423 148.28 70.9943 148.28C70.3503 148.28 69.7996 148.485 69.3423 148.896C68.8943 149.307 68.6376 149.876 68.5723 150.604H73.4163ZM77.6879 148.574C77.9119 148.135 78.2293 147.795 78.6399 147.552C79.0599 147.309 79.5686 147.188 80.1659 147.188V148.504H79.8299C78.4019 148.504 77.6879 149.279 77.6879 150.828V155H76.4139V147.328H77.6879V148.574ZM88.2446 147.328L83.6246 158.612H82.3086L83.8206 154.916L80.7266 147.328H82.1406L84.5486 153.544L86.9286 147.328H88.2446ZM96.3797 148.378H94.7697V155H93.4957V148.378H92.5017V147.328H93.4957V146.782C93.4957 145.923 93.715 145.298 94.1537 144.906C94.6017 144.505 95.3157 144.304 96.2957 144.304V145.368C95.7357 145.368 95.339 145.48 95.1057 145.704C94.8817 145.919 94.7697 146.278 94.7697 146.782V147.328H96.3797V148.378ZM101.211 155.126C100.492 155.126 99.8391 154.963 99.2511 154.636C98.6724 154.309 98.2151 153.847 97.8791 153.25C97.5524 152.643 97.3891 151.943 97.3891 151.15C97.3891 150.366 97.5571 149.675 97.8931 149.078C98.2384 148.471 98.7051 148.009 99.2931 147.692C99.8811 147.365 100.539 147.202 101.267 147.202C101.995 147.202 102.653 147.365 103.241 147.692C103.829 148.009 104.291 148.467 104.627 149.064C104.972 149.661 105.145 150.357 105.145 151.15C105.145 151.943 104.968 152.643 104.613 153.25C104.268 153.847 103.796 154.309 103.199 154.636C102.602 154.963 101.939 155.126 101.211 155.126ZM101.211 154.006C101.668 154.006 102.098 153.899 102.499 153.684C102.9 153.469 103.222 153.147 103.465 152.718C103.717 152.289 103.843 151.766 103.843 151.15C103.843 150.534 103.722 150.011 103.479 149.582C103.236 149.153 102.919 148.835 102.527 148.63C102.135 148.415 101.71 148.308 101.253 148.308C100.786 148.308 100.357 148.415 99.9651 148.63C99.5824 148.835 99.2744 149.153 99.0411 149.582C98.8078 150.011 98.6911 150.534 98.6911 151.15C98.6911 151.775 98.8031 152.303 99.0271 152.732C99.2604 153.161 99.5684 153.483 99.9511 153.698C100.334 153.903 100.754 154.006 101.211 154.006ZM108.094 148.574C108.318 148.135 108.636 147.795 109.046 147.552C109.466 147.309 109.975 147.188 110.572 147.188V148.504H110.236C108.808 148.504 108.094 149.279 108.094 150.828V155H106.82V147.328H108.094V148.574ZM115.299 151.136C115.299 150.352 115.458 149.666 115.775 149.078C116.093 148.481 116.527 148.019 117.077 147.692C117.637 147.365 118.258 147.202 118.939 147.202C119.611 147.202 120.195 147.347 120.689 147.636C121.184 147.925 121.553 148.289 121.795 148.728V147.328H123.083V155H121.795V153.572C121.543 154.02 121.165 154.393 120.661 154.692C120.167 154.981 119.588 155.126 118.925 155.126C118.244 155.126 117.628 154.958 117.077 154.622C116.527 154.286 116.093 153.815 115.775 153.208C115.458 152.601 115.299 151.911 115.299 151.136ZM121.795 151.15C121.795 150.571 121.679 150.067 121.445 149.638C121.212 149.209 120.895 148.882 120.493 148.658C120.101 148.425 119.667 148.308 119.191 148.308C118.715 148.308 118.281 148.42 117.889 148.644C117.497 148.868 117.185 149.195 116.951 149.624C116.718 150.053 116.601 150.557 116.601 151.136C116.601 151.724 116.718 152.237 116.951 152.676C117.185 153.105 117.497 153.437 117.889 153.67C118.281 153.894 118.715 154.006 119.191 154.006C119.667 154.006 120.101 153.894 120.493 153.67C120.895 153.437 121.212 153.105 121.445 152.676C121.679 152.237 121.795 151.729 121.795 151.15ZM126.51 144.64V155H125.236V144.64H126.51ZM129.956 144.64V155H128.682V144.64H129.956ZM139.205 155.126C138.487 155.126 137.833 154.963 137.245 154.636C136.667 154.309 136.209 153.847 135.873 153.25C135.547 152.643 135.383 151.943 135.383 151.15C135.383 150.366 135.551 149.675 135.887 149.078C136.233 148.471 136.699 148.009 137.287 147.692C137.875 147.365 138.533 147.202 139.261 147.202C139.989 147.202 140.647 147.365 141.235 147.692C141.823 148.009 142.285 148.467 142.621 149.064C142.967 149.661 143.139 150.357 143.139 151.15C143.139 151.943 142.962 152.643 142.607 153.25C142.262 153.847 141.791 154.309 141.193 154.636C140.596 154.963 139.933 155.126 139.205 155.126ZM139.205 154.006C139.663 154.006 140.092 153.899 140.493 153.684C140.895 153.469 141.217 153.147 141.459 152.718C141.711 152.289 141.837 151.766 141.837 151.15C141.837 150.534 141.716 150.011 141.473 149.582C141.231 149.153 140.913 148.835 140.521 148.63C140.129 148.415 139.705 148.308 139.247 148.308C138.781 148.308 138.351 148.415 137.959 148.63C137.577 148.835 137.269 149.153 137.035 149.582C136.802 150.011 136.685 150.534 136.685 151.15C136.685 151.775 136.797 152.303 137.021 152.732C137.255 153.161 137.563 153.483 137.945 153.698C138.328 153.903 138.748 154.006 139.205 154.006ZM146.088 148.574C146.312 148.135 146.63 147.795 147.04 147.552C147.46 147.309 147.969 147.188 148.566 147.188V148.504H148.23C146.802 148.504 146.088 149.279 146.088 150.828V155H144.814V147.328H146.088V148.574ZM149.561 151.136C149.561 150.352 149.72 149.666 150.037 149.078C150.354 148.481 150.788 148.019 151.339 147.692C151.899 147.365 152.524 147.202 153.215 147.202C153.812 147.202 154.368 147.342 154.881 147.622C155.394 147.893 155.786 148.252 156.057 148.7V144.64H157.345V155H156.057V153.558C155.805 154.015 155.432 154.393 154.937 154.692C154.442 154.981 153.864 155.126 153.201 155.126C152.52 155.126 151.899 154.958 151.339 154.622C150.788 154.286 150.354 153.815 150.037 153.208C149.72 152.601 149.561 151.911 149.561 151.136ZM156.057 151.15C156.057 150.571 155.94 150.067 155.707 149.638C155.474 149.209 155.156 148.882 154.755 148.658C154.363 148.425 153.929 148.308 153.453 148.308C152.977 148.308 152.543 148.42 152.151 148.644C151.759 148.868 151.446 149.195 151.213 149.624C150.98 150.053 150.863 150.557 150.863 151.136C150.863 151.724 150.98 152.237 151.213 152.676C151.446 153.105 151.759 153.437 152.151 153.67C152.543 153.894 152.977 154.006 153.453 154.006C153.929 154.006 154.363 153.894 154.755 153.67C155.156 153.437 155.474 153.105 155.707 152.676C155.94 152.237 156.057 151.729 156.057 151.15ZM166.498 150.87C166.498 151.113 166.484 151.369 166.456 151.64H160.324C160.371 152.396 160.627 152.989 161.094 153.418C161.57 153.838 162.144 154.048 162.816 154.048C163.367 154.048 163.824 153.922 164.188 153.67C164.561 153.409 164.823 153.063 164.972 152.634H166.344C166.139 153.371 165.728 153.973 165.112 154.44C164.496 154.897 163.731 155.126 162.816 155.126C162.088 155.126 161.435 154.963 160.856 154.636C160.287 154.309 159.839 153.847 159.512 153.25C159.185 152.643 159.022 151.943 159.022 151.15C159.022 150.357 159.181 149.661 159.498 149.064C159.815 148.467 160.259 148.009 160.828 147.692C161.407 147.365 162.069 147.202 162.816 147.202C163.544 147.202 164.188 147.361 164.748 147.678C165.308 147.995 165.737 148.434 166.036 148.994C166.344 149.545 166.498 150.17 166.498 150.87ZM165.182 150.604C165.182 150.119 165.075 149.703 164.86 149.358C164.645 149.003 164.351 148.737 163.978 148.56C163.614 148.373 163.208 148.28 162.76 148.28C162.116 148.28 161.565 148.485 161.108 148.896C160.66 149.307 160.403 149.876 160.338 150.604H165.182ZM169.454 148.574C169.678 148.135 169.995 147.795 170.406 147.552C170.826 147.309 171.334 147.188 171.932 147.188V148.504H171.596C170.168 148.504 169.454 149.279 169.454 150.828V155H168.18V147.328H169.454V148.574ZM176.118 155.126C175.53 155.126 175.003 155.028 174.536 154.832C174.07 154.627 173.701 154.347 173.43 153.992C173.16 153.628 173.01 153.213 172.982 152.746H174.298C174.336 153.129 174.513 153.441 174.83 153.684C175.157 153.927 175.582 154.048 176.104 154.048C176.59 154.048 176.972 153.941 177.252 153.726C177.532 153.511 177.672 153.241 177.672 152.914C177.672 152.578 177.523 152.331 177.224 152.172C176.926 152.004 176.464 151.841 175.838 151.682C175.269 151.533 174.802 151.383 174.438 151.234C174.084 151.075 173.776 150.847 173.514 150.548C173.262 150.24 173.136 149.839 173.136 149.344C173.136 148.952 173.253 148.593 173.486 148.266C173.72 147.939 174.051 147.683 174.48 147.496C174.91 147.3 175.4 147.202 175.95 147.202C176.8 147.202 177.486 147.417 178.008 147.846C178.531 148.275 178.811 148.863 178.848 149.61H177.574C177.546 149.209 177.383 148.887 177.084 148.644C176.795 148.401 176.403 148.28 175.908 148.28C175.451 148.28 175.087 148.378 174.816 148.574C174.546 148.77 174.41 149.027 174.41 149.344C174.41 149.596 174.49 149.806 174.648 149.974C174.816 150.133 175.022 150.263 175.264 150.366C175.516 150.459 175.862 150.567 176.3 150.688C176.851 150.837 177.299 150.987 177.644 151.136C177.99 151.276 178.284 151.491 178.526 151.78C178.778 152.069 178.909 152.447 178.918 152.914C178.918 153.334 178.802 153.712 178.568 154.048C178.335 154.384 178.004 154.65 177.574 154.846C177.154 155.033 176.669 155.126 176.118 155.126ZM187.795 155.126C187.076 155.126 186.423 154.963 185.835 154.636C185.256 154.309 184.799 153.847 184.463 153.25C184.136 152.643 183.973 151.943 183.973 151.15C183.973 150.366 184.141 149.675 184.477 149.078C184.822 148.471 185.289 148.009 185.877 147.692C186.465 147.365 187.123 147.202 187.851 147.202C188.579 147.202 189.237 147.365 189.825 147.692C190.413 148.009 190.875 148.467 191.211 149.064C191.556 149.661 191.729 150.357 191.729 151.15C191.729 151.943 191.552 152.643 191.197 153.25C190.852 153.847 190.38 154.309 189.783 154.636C189.186 154.963 188.523 155.126 187.795 155.126ZM187.795 154.006C188.252 154.006 188.682 153.899 189.083 153.684C189.484 153.469 189.806 153.147 190.049 152.718C190.301 152.289 190.427 151.766 190.427 151.15C190.427 150.534 190.306 150.011 190.063 149.582C189.82 149.153 189.503 148.835 189.111 148.63C188.719 148.415 188.294 148.308 187.837 148.308C187.37 148.308 186.941 148.415 186.549 148.63C186.166 148.835 185.858 149.153 185.625 149.582C185.392 150.011 185.275 150.534 185.275 151.15C185.275 151.775 185.387 152.303 185.611 152.732C185.844 153.161 186.152 153.483 186.535 153.698C186.918 153.903 187.338 154.006 187.795 154.006ZM196.26 153.824L198.64 147.328H199.998L196.988 155H195.504L192.494 147.328H193.866L196.26 153.824ZM208.252 150.87C208.252 151.113 208.238 151.369 208.21 151.64H202.078C202.124 152.396 202.381 152.989 202.848 153.418C203.324 153.838 203.898 154.048 204.57 154.048C205.12 154.048 205.578 153.922 205.942 153.67C206.315 153.409 206.576 153.063 206.726 152.634H208.098C207.892 153.371 207.482 153.973 206.866 154.44C206.25 154.897 205.484 155.126 204.57 155.126C203.842 155.126 203.188 154.963 202.61 154.636C202.04 154.309 201.592 153.847 201.266 153.25C200.939 152.643 200.776 151.943 200.776 151.15C200.776 150.357 200.934 149.661 201.252 149.064C201.569 148.467 202.012 148.009 202.582 147.692C203.16 147.365 203.823 147.202 204.57 147.202C205.298 147.202 205.942 147.361 206.502 147.678C207.062 147.995 207.491 148.434 207.79 148.994C208.098 149.545 208.252 150.17 208.252 150.87ZM206.936 150.604C206.936 150.119 206.828 149.703 206.614 149.358C206.399 149.003 206.105 148.737 205.732 148.56C205.368 148.373 204.962 148.28 204.514 148.28C203.87 148.28 203.319 148.485 202.862 148.896C202.414 149.307 202.157 149.876 202.092 150.604H206.936ZM211.207 148.574C211.431 148.135 211.749 147.795 212.159 147.552C212.579 147.309 213.088 147.188 213.685 147.188V148.504H213.349C211.921 148.504 211.207 149.279 211.207 150.828V155H209.933V147.328H211.207V148.574ZM225.189 152.326C225.189 152.774 225.077 153.203 224.853 153.614C224.629 154.015 224.297 154.351 223.859 154.622C223.429 154.893 222.911 155.047 222.305 155.084V156.218H221.549V155.084C220.699 155.009 220.009 154.739 219.477 154.272C218.945 153.796 218.674 153.194 218.665 152.466H220.023C220.06 152.858 220.205 153.199 220.457 153.488C220.718 153.777 221.082 153.959 221.549 154.034V150.534C220.923 150.375 220.419 150.212 220.037 150.044C219.654 149.876 219.327 149.615 219.057 149.26C218.786 148.905 218.651 148.429 218.651 147.832C218.651 147.076 218.912 146.451 219.435 145.956C219.967 145.461 220.671 145.186 221.549 145.13V143.968H222.305V145.13C223.098 145.195 223.737 145.452 224.223 145.9C224.708 146.339 224.988 146.913 225.063 147.622H223.705C223.658 147.295 223.513 147.001 223.271 146.74C223.028 146.469 222.706 146.292 222.305 146.208V149.624C222.921 149.783 223.42 149.946 223.803 150.114C224.195 150.273 224.521 150.529 224.783 150.884C225.053 151.239 225.189 151.719 225.189 152.326ZM219.953 147.762C219.953 148.219 220.088 148.569 220.359 148.812C220.629 149.055 221.026 149.255 221.549 149.414V146.18C221.063 146.227 220.676 146.385 220.387 146.656C220.097 146.917 219.953 147.286 219.953 147.762ZM222.305 154.048C222.809 153.992 223.201 153.81 223.481 153.502C223.77 153.194 223.915 152.825 223.915 152.396C223.915 151.939 223.775 151.589 223.495 151.346C223.215 151.094 222.818 150.893 222.305 150.744V154.048ZM227.052 146.04V144.878H229.684V155H228.396V146.04H227.052ZM231.564 152.746V151.78L236.478 144.976H238.004V151.64H239.404V152.746H238.004V155H236.744V152.746H231.564ZM236.8 146.306L233.034 151.64H236.8V146.306ZM240.677 149.834C240.677 148.229 240.938 146.978 241.461 146.082C241.983 145.177 242.898 144.724 244.205 144.724C245.502 144.724 246.412 145.177 246.935 146.082C247.457 146.978 247.719 148.229 247.719 149.834C247.719 151.467 247.457 152.737 246.935 153.642C246.412 154.547 245.502 155 244.205 155C242.898 155 241.983 154.547 241.461 153.642C240.938 152.737 240.677 151.467 240.677 149.834ZM246.459 149.834C246.459 149.022 246.403 148.336 246.291 147.776C246.188 147.207 245.969 146.749 245.633 146.404C245.306 146.059 244.83 145.886 244.205 145.886C243.57 145.886 243.085 146.059 242.749 146.404C242.422 146.749 242.203 147.207 242.091 147.776C241.988 148.336 241.937 149.022 241.937 149.834C241.937 150.674 241.988 151.379 242.091 151.948C242.203 152.517 242.422 152.975 242.749 153.32C243.085 153.665 243.57 153.838 244.205 153.838C244.83 153.838 245.306 153.665 245.633 153.32C245.969 152.975 246.188 152.517 246.291 151.948C246.403 151.379 246.459 150.674 246.459 149.834Z" fill="black"/>
<path opacity="0.3" d="M508 40C508 62.0914 490.091 80 468 80C445.909 80 428 62.0914 428 40C428 17.9086 445.909 0 468 0C490.091 0 508 17.9086 508 40ZM438.907 40C438.907 56.0675 451.932 69.0929 468 69.0929C484.068 69.0929 497.093 56.0675 497.093 40C497.093 23.9325 484.068 10.9071 468 10.9071C451.932 10.9071 438.907 23.9325 438.907 40Z" fill="#2F2E30"/>
<circle cx="468" cy="40" r="29" fill="black"/>
<g clip-path="url(#clip1_120_1579)">
<path d="M461.333 44.9998C461.333 43.1589 459.841 41.6665 458 41.6665C456.159 41.6665 454.667 43.1589 454.667 44.9998V48.3332C454.667 50.1741 456.159 51.6665 458 51.6665C459.841 51.6665 461.333 50.1741 461.333 48.3332V44.9998Z" stroke="white" stroke-width="2" stroke-linecap="round" stroke-linejoin="round"/>
<path d="M481.333 44.9998C481.333 43.1589 479.841 41.6665 478 41.6665C476.159 41.6665 474.667 43.1589 474.667 44.9998V48.3332C474.667 50.1741 476.159 51.6665 478 51.6665C479.841 51.6665 481.333 50.1741 481.333 48.3332V44.9998Z" stroke="white" stroke-width="2" stroke-linecap="round" stroke-linejoin="round"/>
<path d="M454.667 44.9998V39.9998C454.667 36.4636 456.071 33.0722 458.572 30.5717C461.072 28.0713 464.464 26.6665 468 26.6665C471.536 26.6665 474.928 28.0713 477.428 30.5717C479.929 33.0722 481.333 36.4636 481.333 39.9998V44.9998" stroke="white" stroke-width="2" stroke-linecap="round" stroke-linejoin="round"/>
<path d="M478 51.6665C478 52.9926 476.946 54.2644 475.071 55.202C473.196 56.1397 470.652 56.6665 468 56.6665" stroke="white" stroke-width="2" stroke-linecap="round" stroke-linejoin="round"/>
</g>
<path d="M346.44 121.84C347.72 120.773 348.74 119.887 349.5 119.18C350.26 118.46 350.893 117.713 351.4 116.94C351.907 116.167 352.16 115.407 352.16 114.66C352.16 113.98 352 113.447 351.68 113.06C351.36 112.673 350.867 112.48 350.2 112.48C349.533 112.48 349.02 112.707 348.66 113.16C348.3 113.6 348.113 114.207 348.1 114.98H345.38C345.433 113.38 345.907 112.167 346.8 111.34C347.707 110.513 348.853 110.1 350.24 110.1C351.76 110.1 352.927 110.507 353.74 111.32C354.553 112.12 354.96 113.18 354.96 114.5C354.96 115.54 354.68 116.533 354.12 117.48C353.56 118.427 352.92 119.253 352.2 119.96C351.48 120.653 350.54 121.493 349.38 122.48H355.28V124.8H345.4V122.72L346.44 121.84ZM356.924 122.16V119.96L363.464 110.6H366.724V119.72H368.484V122.16H366.724V125H363.924V122.16H356.924ZM364.104 113.6L360.004 119.72H364.104V113.6ZM378.087 106.06L372.687 128.62H369.947L375.347 106.06H378.087ZM389.274 112.54L383.954 125H381.114L386.474 112.86H379.634V110.46H389.274V112.54ZM395.356 118C395.356 116.627 395.663 115.4 396.276 114.32C396.903 113.227 397.75 112.38 398.816 111.78C399.896 111.167 401.103 110.86 402.436 110.86C403.996 110.86 405.363 111.26 406.536 112.06C407.71 112.86 408.53 113.967 408.996 115.38H405.776C405.456 114.713 405.003 114.213 404.416 113.88C403.843 113.547 403.176 113.38 402.416 113.38C401.603 113.38 400.876 113.573 400.236 113.96C399.61 114.333 399.116 114.867 398.756 115.56C398.41 116.253 398.236 117.067 398.236 118C398.236 118.92 398.41 119.733 398.756 120.44C399.116 121.133 399.61 121.673 400.236 122.06C400.876 122.433 401.603 122.62 402.416 122.62C403.176 122.62 403.843 122.453 404.416 122.12C405.003 121.773 405.456 121.267 405.776 120.6H408.996C408.53 122.027 407.71 123.14 406.536 123.94C405.376 124.727 404.01 125.12 402.436 125.12C401.103 125.12 399.896 124.82 398.816 124.22C397.75 123.607 396.903 122.76 396.276 121.68C395.663 120.6 395.356 119.373 395.356 118ZM414.148 111.04V119.68C414.148 120.627 414.394 121.353 414.888 121.86C415.381 122.353 416.074 122.6 416.968 122.6C417.874 122.6 418.574 122.353 419.068 121.86C419.561 121.353 419.808 120.627 419.808 119.68V111.04H422.628V119.66C422.628 120.847 422.368 121.853 421.848 122.68C421.341 123.493 420.654 124.107 419.788 124.52C418.934 124.933 417.981 125.14 416.928 125.14C415.888 125.14 414.941 124.933 414.088 124.52C413.248 124.107 412.581 123.493 412.088 122.68C411.594 121.853 411.348 120.847 411.348 119.66V111.04H414.148ZM430.153 125.14C429.18 125.14 428.3 124.973 427.513 124.64C426.74 124.307 426.126 123.827 425.673 123.2C425.22 122.573 424.986 121.833 424.973 120.98H427.973C428.013 121.553 428.213 122.007 428.573 122.34C428.946 122.673 429.453 122.84 430.093 122.84C430.746 122.84 431.26 122.687 431.633 122.38C432.006 122.06 432.193 121.647 432.193 121.14C432.193 120.727 432.066 120.387 431.813 120.12C431.56 119.853 431.24 119.647 430.853 119.5C430.48 119.34 429.96 119.167 429.293 118.98C428.386 118.713 427.646 118.453 427.073 118.2C426.513 117.933 426.026 117.54 425.613 117.02C425.213 116.487 425.013 115.78 425.013 114.9C425.013 114.073 425.22 113.353 425.633 112.74C426.046 112.127 426.626 111.66 427.373 111.34C428.12 111.007 428.973 110.84 429.933 110.84C431.373 110.84 432.54 111.193 433.433 111.9C434.34 112.593 434.84 113.567 434.933 114.82H431.853C431.826 114.34 431.62 113.947 431.233 113.64C430.86 113.32 430.36 113.16 429.733 113.16C429.186 113.16 428.746 113.3 428.413 113.58C428.093 113.86 427.933 114.267 427.933 114.8C427.933 115.173 428.053 115.487 428.293 115.74C428.546 115.98 428.853 116.18 429.213 116.34C429.586 116.487 430.106 116.66 430.773 116.86C431.68 117.127 432.42 117.393 432.993 117.66C433.566 117.927 434.06 118.327 434.473 118.86C434.886 119.393 435.093 120.093 435.093 120.96C435.093 121.707 434.9 122.4 434.513 123.04C434.126 123.68 433.56 124.193 432.813 124.58C432.066 124.953 431.18 125.14 430.153 125.14ZM447.021 111.04V113.3H443.301V125H440.501V113.3H436.781V111.04H447.021ZM455.544 125.14C454.237 125.14 453.037 124.833 451.944 124.22C450.85 123.607 449.984 122.76 449.344 121.68C448.704 120.587 448.384 119.353 448.384 117.98C448.384 116.62 448.704 115.4 449.344 114.32C449.984 113.227 450.85 112.373 451.944 111.76C453.037 111.147 454.237 110.84 455.544 110.84C456.864 110.84 458.064 111.147 459.144 111.76C460.237 112.373 461.097 113.227 461.724 114.32C462.364 115.4 462.684 116.62 462.684 117.98C462.684 119.353 462.364 120.587 461.724 121.68C461.097 122.76 460.237 123.607 459.144 124.22C458.05 124.833 456.85 125.14 455.544 125.14ZM455.544 122.64C456.384 122.64 457.124 122.453 457.764 122.08C458.404 121.693 458.904 121.147 459.264 120.44C459.624 119.733 459.804 118.913 459.804 117.98C459.804 117.047 459.624 116.233 459.264 115.54C458.904 114.833 458.404 114.293 457.764 113.92C457.124 113.547 456.384 113.36 455.544 113.36C454.704 113.36 453.957 113.547 453.304 113.92C452.664 114.293 452.164 114.833 451.804 115.54C451.444 116.233 451.264 117.047 451.264 117.98C451.264 118.913 451.444 119.733 451.804 120.44C452.164 121.147 452.664 121.693 453.304 122.08C453.957 122.453 454.704 122.64 455.544 122.64ZM479.987 111.04V125H477.187V115.92L473.447 125H471.327L467.567 115.92V125H464.767V111.04H467.947L472.387 121.42L476.827 111.04H479.987ZM485.555 113.3V116.8H490.255V119.02H485.555V122.72H490.855V125H482.755V111.02H490.855V113.3H485.555ZM500.6 125L497.52 119.56H496.2V125H493.4V111.04H498.64C499.72 111.04 500.64 111.233 501.4 111.62C502.16 111.993 502.726 112.507 503.1 113.16C503.486 113.8 503.68 114.52 503.68 115.32C503.68 116.24 503.413 117.073 502.88 117.82C502.346 118.553 501.553 119.06 500.5 119.34L503.84 125H500.6ZM496.2 117.46H498.54C499.3 117.46 499.866 117.28 500.24 116.92C500.613 116.547 500.8 116.033 500.8 115.38C500.8 114.74 500.613 114.247 500.24 113.9C499.866 113.54 499.3 113.36 498.54 113.36H496.2V117.46ZM515.798 125.14C514.824 125.14 513.944 124.973 513.158 124.64C512.384 124.307 511.771 123.827 511.318 123.2C510.864 122.573 510.631 121.833 510.618 120.98H513.618C513.658 121.553 513.858 122.007 514.218 122.34C514.591 122.673 515.098 122.84 515.738 122.84C516.391 122.84 516.904 122.687 517.278 122.38C517.651 122.06 517.838 121.647 517.838 121.14C517.838 120.727 517.711 120.387 517.458 120.12C517.204 119.853 516.884 119.647 516.498 119.5C516.124 119.34 515.604 119.167 514.938 118.98C514.031 118.713 513.291 118.453 512.718 118.2C512.158 117.933 511.671 117.54 511.258 117.02C510.858 116.487 510.658 115.78 510.658 114.9C510.658 114.073 510.864 113.353 511.278 112.74C511.691 112.127 512.271 111.66 513.018 111.34C513.764 111.007 514.618 110.84 515.578 110.84C517.018 110.84 518.184 111.193 519.078 111.9C519.984 112.593 520.484 113.567 520.578 114.82H517.498C517.471 114.34 517.264 113.947 516.878 113.64C516.504 113.32 516.004 113.16 515.378 113.16C514.831 113.16 514.391 113.3 514.058 113.58C513.738 113.86 513.578 114.267 513.578 114.8C513.578 115.173 513.698 115.487 513.938 115.74C514.191 115.98 514.498 116.18 514.858 116.34C515.231 116.487 515.751 116.66 516.418 116.86C517.324 117.127 518.064 117.393 518.638 117.66C519.211 117.927 519.704 118.327 520.118 118.86C520.531 119.393 520.738 120.093 520.738 120.96C520.738 121.707 520.544 122.4 520.158 123.04C519.771 123.68 519.204 124.193 518.458 124.58C517.711 124.953 516.824 125.14 515.798 125.14ZM525.965 113.3V116.8H530.665V119.02H525.965V122.72H531.265V125H523.165V111.02H531.265V113.3H525.965ZM541.01 125L537.93 119.56H536.61V125H533.81V111.04H539.05C540.13 111.04 541.05 111.233 541.81 111.62C542.57 111.993 543.136 112.507 543.51 113.16C543.896 113.8 544.09 114.52 544.09 115.32C544.09 116.24 543.823 117.073 543.29 117.82C542.756 118.553 541.963 119.06 540.91 119.34L544.25 125H541.01ZM536.61 117.46H538.95C539.71 117.46 540.276 117.28 540.65 116.92C541.023 116.547 541.21 116.033 541.21 115.38C541.21 114.74 541.023 114.247 540.65 113.9C540.276 113.54 539.71 113.36 538.95 113.36H536.61V117.46ZM559.162 111.04L554.042 125H550.642L545.522 111.04H548.522L552.362 122.14L556.182 111.04H559.162ZM563.641 111.04V125H560.841V111.04H563.641ZM565.727 118C565.727 116.627 566.034 115.4 566.647 114.32C567.274 113.227 568.121 112.38 569.187 111.78C570.267 111.167 571.474 110.86 572.807 110.86C574.367 110.86 575.734 111.26 576.907 112.06C578.081 112.86 578.901 113.967 579.367 115.38H576.147C575.827 114.713 575.374 114.213 574.787 113.88C574.214 113.547 573.547 113.38 572.787 113.38C571.974 113.38 571.247 113.573 570.607 113.96C569.981 114.333 569.487 114.867 569.127 115.56C568.781 116.253 568.607 117.067 568.607 118C568.607 118.92 568.781 119.733 569.127 120.44C569.487 121.133 569.981 121.673 570.607 122.06C571.247 122.433 571.974 122.62 572.787 122.62C573.547 122.62 574.214 122.453 574.787 122.12C575.374 121.773 575.827 121.267 576.147 120.6H579.367C578.901 122.027 578.081 123.14 576.907 123.94C575.747 124.727 574.381 125.12 572.807 125.12C571.474 125.12 570.267 124.82 569.187 124.22C568.121 123.607 567.274 122.76 566.647 121.68C566.034 120.6 565.727 119.373 565.727 118ZM584.559 113.3V116.8H589.259V119.02H584.559V122.72H589.859V125H581.759V111.02H589.859V113.3H584.559Z" fill="black"/>
<path d="M365.094 145.242V146.278H360.852V149.568H364.296V150.604H360.852V155H359.578V145.242H365.094ZM367.907 148.574C368.131 148.135 368.448 147.795 368.859 147.552C369.279 147.309 369.787 147.188 370.385 147.188V148.504H370.049C368.621 148.504 367.907 149.279 367.907 150.828V155H366.633V147.328H367.907V148.574ZM372.513 146.082C372.271 146.082 372.065 145.998 371.897 145.83C371.729 145.662 371.645 145.457 371.645 145.214C371.645 144.971 371.729 144.766 371.897 144.598C372.065 144.43 372.271 144.346 372.513 144.346C372.747 144.346 372.943 144.43 373.101 144.598C373.269 144.766 373.353 144.971 373.353 145.214C373.353 145.457 373.269 145.662 373.101 145.83C372.943 145.998 372.747 146.082 372.513 146.082ZM373.129 147.328V155H371.855V147.328H373.129ZM382.301 150.87C382.301 151.113 382.287 151.369 382.259 151.64H376.127C376.173 152.396 376.43 152.989 376.897 153.418C377.373 153.838 377.947 154.048 378.619 154.048C379.169 154.048 379.627 153.922 379.991 153.67C380.364 153.409 380.625 153.063 380.775 152.634H382.147C381.941 153.371 381.531 153.973 380.915 154.44C380.299 154.897 379.533 155.126 378.619 155.126C377.891 155.126 377.237 154.963 376.659 154.636C376.089 154.309 375.641 153.847 375.315 153.25C374.988 152.643 374.825 151.943 374.825 151.15C374.825 150.357 374.983 149.661 375.301 149.064C375.618 148.467 376.061 148.009 376.631 147.692C377.209 147.365 377.872 147.202 378.619 147.202C379.347 147.202 379.991 147.361 380.551 147.678C381.111 147.995 381.54 148.434 381.839 148.994C382.147 149.545 382.301 150.17 382.301 150.87ZM380.985 150.604C380.985 150.119 380.877 149.703 380.663 149.358C380.448 149.003 380.154 148.737 379.781 148.56C379.417 148.373 379.011 148.28 378.563 148.28C377.919 148.28 377.368 148.485 376.911 148.896C376.463 149.307 376.206 149.876 376.141 150.604H380.985ZM387.72 147.188C388.654 147.188 389.41 147.473 389.988 148.042C390.567 148.602 390.856 149.414 390.856 150.478V155H389.596V150.66C389.596 149.895 389.405 149.311 389.022 148.91C388.64 148.499 388.117 148.294 387.454 148.294C386.782 148.294 386.246 148.504 385.844 148.924C385.452 149.344 385.256 149.955 385.256 150.758V155H383.982V147.328H385.256V148.42C385.508 148.028 385.849 147.725 386.278 147.51C386.717 147.295 387.198 147.188 387.72 147.188ZM392.461 151.136C392.461 150.352 392.62 149.666 392.937 149.078C393.255 148.481 393.689 148.019 394.239 147.692C394.799 147.365 395.425 147.202 396.115 147.202C396.713 147.202 397.268 147.342 397.781 147.622C398.295 147.893 398.687 148.252 398.957 148.7V144.64H400.245V155H398.957V153.558C398.705 154.015 398.332 154.393 397.837 154.692C397.343 154.981 396.764 155.126 396.101 155.126C395.42 155.126 394.799 154.958 394.239 154.622C393.689 154.286 393.255 153.815 392.937 153.208C392.62 152.601 392.461 151.911 392.461 151.136ZM398.957 151.15C398.957 150.571 398.841 150.067 398.607 149.638C398.374 149.209 398.057 148.882 397.655 148.658C397.263 148.425 396.829 148.308 396.353 148.308C395.877 148.308 395.443 148.42 395.051 148.644C394.659 148.868 394.347 149.195 394.113 149.624C393.88 150.053 393.763 150.557 393.763 151.136C393.763 151.724 393.88 152.237 394.113 152.676C394.347 153.105 394.659 153.437 395.051 153.67C395.443 153.894 395.877 154.006 396.353 154.006C396.829 154.006 397.263 153.894 397.655 153.67C398.057 153.437 398.374 153.105 398.607 152.676C398.841 152.237 398.957 151.729 398.957 151.15ZM403.672 144.64V155H402.398V144.64H403.672ZM412.452 147.328L407.832 158.612H406.516L408.028 154.916L404.934 147.328H406.348L408.756 153.544L411.136 147.328H412.452ZM417.101 153.978C418.286 153.026 419.215 152.247 419.887 151.64C420.559 151.024 421.123 150.385 421.581 149.722C422.047 149.05 422.281 148.392 422.281 147.748C422.281 147.141 422.131 146.665 421.833 146.32C421.543 145.965 421.072 145.788 420.419 145.788C419.784 145.788 419.289 145.989 418.935 146.39C418.589 146.782 418.403 147.309 418.375 147.972H417.143C417.18 146.927 417.497 146.119 418.095 145.55C418.692 144.981 419.462 144.696 420.405 144.696C421.366 144.696 422.127 144.962 422.687 145.494C423.256 146.026 423.541 146.759 423.541 147.692C423.541 148.467 423.307 149.223 422.841 149.96C422.383 150.688 421.861 151.332 421.273 151.892C420.685 152.443 419.933 153.087 419.019 153.824H423.835V154.888H417.101V153.978ZM424.999 152.746V151.78L429.913 144.976H431.439V151.64H432.839V152.746H431.439V155H430.179V152.746H424.999ZM430.235 146.306L426.469 151.64H430.235V146.306ZM439.082 141.812L435.246 157.38H433.986L437.808 141.812H439.082ZM447 145.872L443.108 155H441.82L445.768 145.998H440.364V144.906H447V145.872ZM451.879 151.15C451.879 150.357 452.038 149.666 452.355 149.078C452.673 148.481 453.111 148.019 453.671 147.692C454.241 147.365 454.889 147.202 455.617 147.202C456.56 147.202 457.335 147.431 457.941 147.888C458.557 148.345 458.963 148.98 459.159 149.792H457.787C457.657 149.325 457.4 148.957 457.017 148.686C456.644 148.415 456.177 148.28 455.617 148.28C454.889 148.28 454.301 148.532 453.853 149.036C453.405 149.531 453.181 150.235 453.181 151.15C453.181 152.074 453.405 152.788 453.853 153.292C454.301 153.796 454.889 154.048 455.617 154.048C456.177 154.048 456.644 153.917 457.017 153.656C457.391 153.395 457.647 153.021 457.787 152.536H459.159C458.954 153.32 458.543 153.95 457.927 154.426C457.311 154.893 456.541 155.126 455.617 155.126C454.889 155.126 454.241 154.963 453.671 154.636C453.111 154.309 452.673 153.847 452.355 153.25C452.038 152.653 451.879 151.953 451.879 151.15ZM467.663 147.328V155H466.389V153.866C466.147 154.258 465.806 154.566 465.367 154.79C464.938 155.005 464.462 155.112 463.939 155.112C463.342 155.112 462.805 154.991 462.329 154.748C461.853 154.496 461.475 154.123 461.195 153.628C460.925 153.133 460.789 152.531 460.789 151.822V147.328H462.049V151.654C462.049 152.41 462.241 152.993 462.623 153.404C463.006 153.805 463.529 154.006 464.191 154.006C464.873 154.006 465.409 153.796 465.801 153.376C466.193 152.956 466.389 152.345 466.389 151.542V147.328H467.663ZM472.53 155.126C471.942 155.126 471.415 155.028 470.948 154.832C470.482 154.627 470.113 154.347 469.842 153.992C469.572 153.628 469.422 153.213 469.394 152.746H470.71C470.748 153.129 470.925 153.441 471.242 153.684C471.569 153.927 471.994 154.048 472.516 154.048C473.002 154.048 473.384 153.941 473.664 153.726C473.944 153.511 474.084 153.241 474.084 152.914C474.084 152.578 473.935 152.331 473.636 152.172C473.338 152.004 472.876 151.841 472.25 151.682C471.681 151.533 471.214 151.383 470.85 151.234C470.496 151.075 470.188 150.847 469.926 150.548C469.674 150.24 469.548 149.839 469.548 149.344C469.548 148.952 469.665 148.593 469.898 148.266C470.132 147.939 470.463 147.683 470.892 147.496C471.322 147.3 471.812 147.202 472.362 147.202C473.212 147.202 473.898 147.417 474.42 147.846C474.943 148.275 475.223 148.863 475.26 149.61H473.986C473.958 149.209 473.795 148.887 473.496 148.644C473.207 148.401 472.815 148.28 472.32 148.28C471.863 148.28 471.499 148.378 471.228 148.574C470.958 148.77 470.822 149.027 470.822 149.344C470.822 149.596 470.902 149.806 471.06 149.974C471.228 150.133 471.434 150.263 471.676 150.366C471.928 150.459 472.274 150.567 472.712 150.688C473.263 150.837 473.711 150.987 474.056 151.136C474.402 151.276 474.696 151.491 474.938 151.78C475.19 152.069 475.321 152.447 475.33 152.914C475.33 153.334 475.214 153.712 474.98 154.048C474.747 154.384 474.416 154.65 473.986 154.846C473.566 155.033 473.081 155.126 472.53 155.126ZM478.683 148.378V152.9C478.683 153.273 478.762 153.539 478.921 153.698C479.079 153.847 479.355 153.922 479.747 153.922H480.685V155H479.537C478.827 155 478.295 154.837 477.941 154.51C477.586 154.183 477.409 153.647 477.409 152.9V148.378H476.415V147.328H477.409V145.396H478.683V147.328H480.685V148.378H478.683ZM485.574 155.126C484.856 155.126 484.202 154.963 483.614 154.636C483.036 154.309 482.578 153.847 482.242 153.25C481.916 152.643 481.752 151.943 481.752 151.15C481.752 150.366 481.92 149.675 482.256 149.078C482.602 148.471 483.068 148.009 483.656 147.692C484.244 147.365 484.902 147.202 485.63 147.202C486.358 147.202 487.016 147.365 487.604 147.692C488.192 148.009 488.654 148.467 488.99 149.064C489.336 149.661 489.508 150.357 489.508 151.15C489.508 151.943 489.331 152.643 488.976 153.25C488.631 153.847 488.16 154.309 487.562 154.636C486.965 154.963 486.302 155.126 485.574 155.126ZM485.574 154.006C486.032 154.006 486.461 153.899 486.862 153.684C487.264 153.469 487.586 153.147 487.828 152.718C488.08 152.289 488.206 151.766 488.206 151.15C488.206 150.534 488.085 150.011 487.842 149.582C487.6 149.153 487.282 148.835 486.89 148.63C486.498 148.415 486.074 148.308 485.616 148.308C485.15 148.308 484.72 148.415 484.328 148.63C483.946 148.835 483.638 149.153 483.404 149.582C483.171 150.011 483.054 150.534 483.054 151.15C483.054 151.775 483.166 152.303 483.39 152.732C483.624 153.161 483.932 153.483 484.314 153.698C484.697 153.903 485.117 154.006 485.574 154.006ZM500.409 147.188C501.007 147.188 501.539 147.314 502.005 147.566C502.472 147.809 502.841 148.177 503.111 148.672C503.382 149.167 503.517 149.769 503.517 150.478V155H502.257V150.66C502.257 149.895 502.066 149.311 501.683 148.91C501.31 148.499 500.801 148.294 500.157 148.294C499.495 148.294 498.967 148.509 498.575 148.938C498.183 149.358 497.987 149.969 497.987 150.772V155H496.727V150.66C496.727 149.895 496.536 149.311 496.153 148.91C495.78 148.499 495.271 148.294 494.627 148.294C493.965 148.294 493.437 148.509 493.045 148.938C492.653 149.358 492.457 149.969 492.457 150.772V155H491.183V147.328H492.457V148.434C492.709 148.033 493.045 147.725 493.465 147.51C493.895 147.295 494.366 147.188 494.879 147.188C495.523 147.188 496.093 147.333 496.587 147.622C497.082 147.911 497.451 148.336 497.693 148.896C497.908 148.355 498.263 147.935 498.757 147.636C499.252 147.337 499.803 147.188 500.409 147.188ZM512.607 150.87C512.607 151.113 512.593 151.369 512.565 151.64H506.433C506.48 152.396 506.737 152.989 507.203 153.418C507.679 153.838 508.253 154.048 508.925 154.048C509.476 154.048 509.933 153.922 510.297 153.67C510.671 153.409 510.932 153.063 511.081 152.634H512.453C512.248 153.371 511.837 153.973 511.221 154.44C510.605 154.897 509.84 155.126 508.925 155.126C508.197 155.126 507.544 154.963 506.965 154.636C506.396 154.309 505.948 153.847 505.621 153.25C505.295 152.643 505.131 151.943 505.131 151.15C505.131 150.357 505.29 149.661 505.607 149.064C505.925 148.467 506.368 148.009 506.937 147.692C507.516 147.365 508.179 147.202 508.925 147.202C509.653 147.202 510.297 147.361 510.857 147.678C511.417 147.995 511.847 148.434 512.145 148.994C512.453 149.545 512.607 150.17 512.607 150.87ZM511.291 150.604C511.291 150.119 511.184 149.703 510.969 149.358C510.755 149.003 510.461 148.737 510.087 148.56C509.723 148.373 509.317 148.28 508.869 148.28C508.225 148.28 507.675 148.485 507.217 148.896C506.769 149.307 506.513 149.876 506.447 150.604H511.291ZM515.563 148.574C515.787 148.135 516.104 147.795 516.515 147.552C516.935 147.309 517.444 147.188 518.041 147.188V148.504H517.705C516.277 148.504 515.563 149.279 515.563 150.828V155H514.289V147.328H515.563V148.574ZM525.96 155.126C525.372 155.126 524.845 155.028 524.378 154.832C523.911 154.627 523.543 154.347 523.272 153.992C523.001 153.628 522.852 153.213 522.824 152.746H524.14C524.177 153.129 524.355 153.441 524.672 153.684C524.999 153.927 525.423 154.048 525.946 154.048C526.431 154.048 526.814 153.941 527.094 153.726C527.374 153.511 527.514 153.241 527.514 152.914C527.514 152.578 527.365 152.331 527.066 152.172C526.767 152.004 526.305 151.841 525.68 151.682C525.111 151.533 524.644 151.383 524.28 151.234C523.925 151.075 523.617 150.847 523.356 150.548C523.104 150.24 522.978 149.839 522.978 149.344C522.978 148.952 523.095 148.593 523.328 148.266C523.561 147.939 523.893 147.683 524.322 147.496C524.751 147.3 525.241 147.202 525.792 147.202C526.641 147.202 527.327 147.417 527.85 147.846C528.373 148.275 528.653 148.863 528.69 149.61H527.416C527.388 149.209 527.225 148.887 526.926 148.644C526.637 148.401 526.245 148.28 525.75 148.28C525.293 148.28 524.929 148.378 524.658 148.574C524.387 148.77 524.252 149.027 524.252 149.344C524.252 149.596 524.331 149.806 524.49 149.974C524.658 150.133 524.863 150.263 525.106 150.366C525.358 150.459 525.703 150.567 526.142 150.688C526.693 150.837 527.141 150.987 527.486 151.136C527.831 151.276 528.125 151.491 528.368 151.78C528.62 152.069 528.751 152.447 528.76 152.914C528.76 153.334 528.643 153.712 528.41 154.048C528.177 154.384 527.845 154.65 527.416 154.846C526.996 155.033 526.511 155.126 525.96 155.126ZM537.362 147.328V155H536.088V153.866C535.846 154.258 535.505 154.566 535.066 154.79C534.637 155.005 534.161 155.112 533.638 155.112C533.041 155.112 532.504 154.991 532.028 154.748C531.552 154.496 531.174 154.123 530.894 153.628C530.624 153.133 530.488 152.531 530.488 151.822V147.328H531.748V151.654C531.748 152.41 531.94 152.993 532.322 153.404C532.705 153.805 533.228 154.006 533.89 154.006C534.572 154.006 535.108 153.796 535.5 153.376C535.892 152.956 536.088 152.345 536.088 151.542V147.328H537.362ZM540.788 148.742C541.04 148.303 541.413 147.939 541.908 147.65C542.412 147.351 542.995 147.202 543.658 147.202C544.339 147.202 544.955 147.365 545.506 147.692C546.066 148.019 546.504 148.481 546.822 149.078C547.139 149.666 547.298 150.352 547.298 151.136C547.298 151.911 547.139 152.601 546.822 153.208C546.504 153.815 546.066 154.286 545.506 154.622C544.955 154.958 544.339 155.126 543.658 155.126C543.004 155.126 542.426 154.981 541.922 154.692C541.427 154.393 541.049 154.025 540.788 153.586V158.64H539.514V147.328H540.788V148.742ZM545.996 151.136C545.996 150.557 545.879 150.053 545.646 149.624C545.412 149.195 545.095 148.868 544.694 148.644C544.302 148.42 543.868 148.308 543.392 148.308C542.925 148.308 542.491 148.425 542.09 148.658C541.698 148.882 541.38 149.213 541.138 149.652C540.904 150.081 540.788 150.581 540.788 151.15C540.788 151.729 540.904 152.237 541.138 152.676C541.38 153.105 541.698 153.437 542.09 153.67C542.491 153.894 542.925 154.006 543.392 154.006C543.868 154.006 544.302 153.894 544.694 153.67C545.095 153.437 545.412 153.105 545.646 152.676C545.879 152.237 545.996 151.724 545.996 151.136ZM550.248 148.742C550.5 148.303 550.874 147.939 551.368 147.65C551.872 147.351 552.456 147.202 553.118 147.202C553.8 147.202 554.416 147.365 554.966 147.692C555.526 148.019 555.965 148.481 556.282 149.078C556.6 149.666 556.758 150.352 556.758 151.136C556.758 151.911 556.6 152.601 556.282 153.208C555.965 153.815 555.526 154.286 554.966 154.622C554.416 154.958 553.8 155.126 553.118 155.126C552.465 155.126 551.886 154.981 551.382 154.692C550.888 154.393 550.51 154.025 550.248 153.586V158.64H548.974V147.328H550.248V148.742ZM555.456 151.136C555.456 150.557 555.34 150.053 555.106 149.624C554.873 149.195 554.556 148.868 554.154 148.644C553.762 148.42 553.328 148.308 552.852 148.308C552.386 148.308 551.952 148.425 551.55 148.658C551.158 148.882 550.841 149.213 550.598 149.652C550.365 150.081 550.248 150.581 550.248 151.15C550.248 151.729 550.365 152.237 550.598 152.676C550.841 153.105 551.158 153.437 551.55 153.67C551.952 153.894 552.386 154.006 552.852 154.006C553.328 154.006 553.762 153.894 554.154 153.67C554.556 153.437 554.873 153.105 555.106 152.676C555.34 152.237 555.456 151.724 555.456 151.136ZM561.781 155.126C561.063 155.126 560.409 154.963 559.821 154.636C559.243 154.309 558.785 153.847 558.449 153.25C558.123 152.643 557.959 151.943 557.959 151.15C557.959 150.366 558.127 149.675 558.463 149.078C558.809 148.471 559.275 148.009 559.863 147.692C560.451 147.365 561.109 147.202 561.837 147.202C562.565 147.202 563.223 147.365 563.811 147.692C564.399 148.009 564.861 148.467 565.197 149.064C565.543 149.661 565.715 150.357 565.715 151.15C565.715 151.943 565.538 152.643 565.183 153.25C564.838 153.847 564.367 154.309 563.769 154.636C563.172 154.963 562.509 155.126 561.781 155.126ZM561.781 154.006C562.239 154.006 562.668 153.899 563.069 153.684C563.471 153.469 563.793 153.147 564.035 152.718C564.287 152.289 564.413 151.766 564.413 151.15C564.413 150.534 564.292 150.011 564.049 149.582C563.807 149.153 563.489 148.835 563.097 148.63C562.705 148.415 562.281 148.308 561.823 148.308C561.357 148.308 560.927 148.415 560.535 148.63C560.153 148.835 559.845 149.153 559.611 149.582C559.378 150.011 559.261 150.534 559.261 151.15C559.261 151.775 559.373 152.303 559.597 152.732C559.831 153.161 560.139 153.483 560.521 153.698C560.904 153.903 561.324 154.006 561.781 154.006ZM568.665 148.574C568.889 148.135 569.206 147.795 569.617 147.552C570.037 147.309 570.545 147.188 571.143 147.188V148.504H570.807C569.379 148.504 568.665 149.279 568.665 150.828V155H567.391V147.328H568.665V148.574ZM574.167 148.378V152.9C574.167 153.273 574.246 153.539 574.405 153.698C574.564 153.847 574.839 153.922 575.231 153.922H576.169V155H575.021C574.312 155 573.78 154.837 573.425 154.51C573.07 154.183 572.893 153.647 572.893 152.9V148.378H571.899V147.328H572.893V145.396H574.167V147.328H576.169V148.378H574.167Z" fill="black"/>
<path opacity="0.3" d="M855 40C855 62.0914 837.091 80 815 80C792.909 80 775 62.0914 775 40C775 17.9086 792.909 0 815 0C837.091 0 855 17.9086 855 40ZM785.907 40C785.907 56.0675 798.932 69.0929 815 69.0929C831.068 69.0929 844.093 56.0675 844.093 40C844.093 23.9325 831.068 10.9071 815 10.9071C798.932 10.9071 785.907 23.9325 785.907 40Z" fill="#2F2E30"/>
<circle cx="815" cy="40" r="29" fill="black"/>
<path d="M803.099 50.5992L803.099 50.5991C802.226 49.9483 801.425 48.9206 800.843 47.759C800.26 46.5973 799.917 45.3451 799.917 44.2666V31.8666C799.917 29.5074 801.671 26.9618 803.891 26.1351L803.892 26.1348L812.208 23.0183C812.208 23.0182 812.208 23.0182 812.209 23.0182C812.962 22.7366 813.962 22.5874 814.983 22.5874C816.005 22.5874 817.005 22.7366 817.758 23.0182C817.758 23.0182 817.758 23.0182 817.758 23.0183L826.075 26.1348L826.075 26.1351C828.295 26.9618 830.05 29.5074 830.05 31.8666V44.2499C830.05 45.3371 829.707 46.5892 829.124 47.7483C828.542 48.9073 827.741 49.9313 826.868 50.5824L826.868 50.5826L819.701 55.9326L819.701 55.9325L819.695 55.9373C818.412 56.9264 816.724 57.4332 815 57.4332C813.277 57.4332 811.585 56.927 810.265 55.9486C810.265 55.9484 810.265 55.9483 810.264 55.9482L803.099 50.5992ZM812.742 24.4315L812.741 24.4317L804.425 27.5484L804.424 27.5486C803.596 27.8602 802.855 28.5225 802.324 29.2906C801.793 30.059 801.433 30.9898 801.433 31.8832V44.2666C801.433 45.161 801.744 46.1892 802.201 47.101C802.658 48.0126 803.293 48.8722 804.001 49.4005L804.001 49.4006L811.167 54.7503C812.229 55.5445 813.628 55.9249 815.002 55.9249C816.376 55.9249 817.778 55.5445 818.848 54.7516L818.849 54.7506L826.016 49.4006L826.017 49.3999C826.731 48.8638 827.367 48.005 827.822 47.0943C828.278 46.1837 828.583 45.16 828.583 44.2666V31.8666C828.583 30.9804 828.223 30.0538 827.693 29.2864C827.162 28.5189 826.422 27.854 825.598 27.5338L825.598 27.5338L825.592 27.5317L817.275 24.415L817.275 24.4149L817.266 24.4117C816.628 24.1865 815.8 24.0831 815.001 24.0853C814.202 24.0875 813.375 24.1951 812.742 24.4315Z" fill="#FAFAFA" stroke="#FAFAFA"/>
<path d="M812.413 41.0536L812.767 41.4071L813.12 41.0536L819.404 34.7703C819.692 34.4822 820.175 34.4822 820.463 34.7703C820.751 35.0583 820.751 35.5417 820.463 35.8298L813.296 42.9965C813.145 43.1478 812.958 43.2167 812.767 43.2167C812.575 43.2167 812.388 43.1478 812.237 42.9965L809.554 40.3131C809.266 40.0251 809.266 39.5417 809.554 39.2536C809.842 38.9655 810.325 38.9655 810.613 39.2536L812.413 41.0536Z" fill="#FAFAFA" stroke="#FAFAFA"/>
<path d="M703.6 111.04V125H700.8V115.92L697.06 125H694.94L691.18 115.92V125H688.38V111.04H691.56L696 121.42L700.44 111.04H703.6ZM712.848 125.14C711.542 125.14 710.342 124.833 709.248 124.22C708.155 123.607 707.288 122.76 706.648 121.68C706.008 120.587 705.688 119.353 705.688 117.98C705.688 116.62 706.008 115.4 706.648 114.32C707.288 113.227 708.155 112.373 709.248 111.76C710.342 111.147 711.542 110.84 712.848 110.84C714.168 110.84 715.368 111.147 716.448 111.76C717.542 112.373 718.402 113.227 719.028 114.32C719.668 115.4 719.988 116.62 719.988 117.98C719.988 119.353 719.668 120.587 719.028 121.68C718.402 122.76 717.542 123.607 716.448 124.22C715.355 124.833 714.155 125.14 712.848 125.14ZM712.848 122.64C713.688 122.64 714.428 122.453 715.068 122.08C715.708 121.693 716.208 121.147 716.568 120.44C716.928 119.733 717.108 118.913 717.108 117.98C717.108 117.047 716.928 116.233 716.568 115.54C716.208 114.833 715.708 114.293 715.068 113.92C714.428 113.547 713.688 113.36 712.848 113.36C712.008 113.36 711.262 113.547 710.608 113.92C709.968 114.293 709.468 114.833 709.108 115.54C708.748 116.233 708.568 117.047 708.568 117.98C708.568 118.913 708.748 119.733 709.108 120.44C709.468 121.147 709.968 121.693 710.608 122.08C711.262 122.453 712.008 122.64 712.848 122.64ZM734.011 125H731.211L724.871 115.42V125H722.071V111.02H724.871L731.211 120.62V111.02H734.011V125ZM739.578 113.3V116.8H744.278V119.02H739.578V122.72H744.878V125H736.778V111.02H744.878V113.3H739.578ZM758.523 111.04L753.803 120.14V125H751.003V120.14L746.263 111.04H749.423L752.423 117.42L755.403 111.04H758.523ZM772.823 117.84C773.61 117.987 774.257 118.38 774.763 119.02C775.27 119.66 775.523 120.393 775.523 121.22C775.523 121.967 775.337 122.627 774.963 123.2C774.603 123.76 774.077 124.2 773.383 124.52C772.69 124.84 771.87 125 770.923 125H764.903V111.04H770.663C771.61 111.04 772.423 111.193 773.103 111.5C773.797 111.807 774.317 112.233 774.663 112.78C775.023 113.327 775.203 113.947 775.203 114.64C775.203 115.453 774.983 116.133 774.543 116.68C774.117 117.227 773.543 117.613 772.823 117.84ZM767.703 116.8H770.263C770.93 116.8 771.443 116.653 771.803 116.36C772.163 116.053 772.343 115.62 772.343 115.06C772.343 114.5 772.163 114.067 771.803 113.76C771.443 113.453 770.93 113.3 770.263 113.3H767.703V116.8ZM770.523 122.72C771.203 122.72 771.73 122.56 772.103 122.24C772.49 121.92 772.683 121.467 772.683 120.88C772.683 120.28 772.483 119.813 772.083 119.48C771.683 119.133 771.143 118.96 770.463 118.96H767.703V122.72H770.523ZM786.315 122.34H780.755L779.835 125H776.895L781.915 111.02H785.175L790.195 125H787.235L786.315 122.34ZM785.555 120.1L783.535 114.26L781.515 120.1H785.555ZM791.391 118C791.391 116.627 791.698 115.4 792.311 114.32C792.938 113.227 793.785 112.38 794.851 111.78C795.931 111.167 797.138 110.86 798.471 110.86C800.031 110.86 801.398 111.26 802.571 112.06C803.745 112.86 804.565 113.967 805.031 115.38H801.811C801.491 114.713 801.038 114.213 800.451 113.88C799.878 113.547 799.211 113.38 798.451 113.38C797.638 113.38 796.911 113.573 796.271 113.96C795.645 114.333 795.151 114.867 794.791 115.56C794.445 116.253 794.271 117.067 794.271 118C794.271 118.92 794.445 119.733 794.791 120.44C795.151 121.133 795.645 121.673 796.271 122.06C796.911 122.433 797.638 122.62 798.451 122.62C799.211 122.62 799.878 122.453 800.451 122.12C801.038 121.773 801.491 121.267 801.811 120.6H805.031C804.565 122.027 803.745 123.14 802.571 123.94C801.411 124.727 800.045 125.12 798.471 125.12C797.138 125.12 795.931 124.82 794.851 124.22C793.785 123.607 792.938 122.76 792.311 121.68C791.698 120.6 791.391 119.373 791.391 118ZM815.303 125L810.223 118.78V125H807.423V111.04H810.223V117.3L815.303 111.04H818.683L812.923 117.96L818.843 125H815.303ZM835.17 115.24C834.85 114.653 834.41 114.207 833.85 113.9C833.29 113.593 832.637 113.44 831.89 113.44C831.064 113.44 830.33 113.627 829.69 114C829.05 114.373 828.55 114.907 828.19 115.6C827.83 116.293 827.65 117.093 827.65 118C827.65 118.933 827.83 119.747 828.19 120.44C828.564 121.133 829.077 121.667 829.73 122.04C830.384 122.413 831.144 122.6 832.01 122.6C833.077 122.6 833.95 122.32 834.63 121.76C835.31 121.187 835.757 120.393 835.97 119.38H831.17V117.24H838.73V119.68C838.544 120.653 838.144 121.553 837.53 122.38C836.917 123.207 836.124 123.873 835.15 124.38C834.19 124.873 833.11 125.12 831.91 125.12C830.564 125.12 829.344 124.82 828.25 124.22C827.17 123.607 826.317 122.76 825.69 121.68C825.077 120.6 824.77 119.373 824.77 118C824.77 116.627 825.077 115.4 825.69 114.32C826.317 113.227 827.17 112.38 828.25 111.78C829.344 111.167 830.557 110.86 831.89 110.86C833.464 110.86 834.83 111.247 835.99 112.02C837.15 112.78 837.95 113.853 838.39 115.24H835.17ZM843.562 111.04V119.68C843.562 120.627 843.809 121.353 844.302 121.86C844.795 122.353 845.489 122.6 846.382 122.6C847.289 122.6 847.989 122.353 848.482 121.86C848.975 121.353 849.222 120.627 849.222 119.68V111.04H852.042V119.66C852.042 120.847 851.782 121.853 851.262 122.68C850.755 123.493 850.069 124.107 849.202 124.52C848.349 124.933 847.395 125.14 846.342 125.14C845.302 125.14 844.355 124.933 843.502 124.52C842.662 124.107 841.995 123.493 841.502 122.68C841.009 121.853 840.762 120.847 840.762 119.66V111.04H843.562ZM863.307 122.34H857.747L856.827 125H853.887L858.907 111.02H862.167L867.187 125H864.227L863.307 122.34ZM862.547 120.1L860.527 114.26L858.507 120.1H862.547ZM876.264 125L873.184 119.56H871.864V125H869.064V111.04H874.304C875.384 111.04 876.304 111.233 877.064 111.62C877.824 111.993 878.39 112.507 878.764 113.16C879.15 113.8 879.344 114.52 879.344 115.32C879.344 116.24 879.077 117.073 878.544 117.82C878.01 118.553 877.217 119.06 876.164 119.34L879.504 125H876.264ZM871.864 117.46H874.204C874.964 117.46 875.53 117.28 875.904 116.92C876.277 116.547 876.464 116.033 876.464 115.38C876.464 114.74 876.277 114.247 875.904 113.9C875.53 113.54 874.964 113.36 874.204 113.36H871.864V117.46ZM890.436 122.34H884.876L883.956 125H881.016L886.036 111.02H889.296L894.316 125H891.356L890.436 122.34ZM889.676 120.1L887.656 114.26L885.636 120.1H889.676ZM908.133 125H905.333L898.993 115.42V125H896.193V111.02H898.993L905.333 120.62V111.02H908.133V125ZM920.4 111.04V113.3H916.68V125H913.88V113.3H910.16V111.04H920.4ZM925.243 113.3V116.8H929.943V119.02H925.243V122.72H930.543V125H922.443V111.02H930.543V113.3H925.243ZM935.887 113.3V116.8H940.587V119.02H935.887V122.72H941.187V125H933.087V111.02H941.187V113.3H935.887Z" fill="black"/>
<path d="M718.342 145.242L715.514 155H714.086L711.818 147.146L709.466 155L708.052 155.014L705.322 145.242H706.68L708.808 153.516L711.16 145.242H712.588L714.828 153.488L716.97 145.242H718.342ZM726.736 150.87C726.736 151.113 726.722 151.369 726.694 151.64H720.562C720.609 152.396 720.866 152.989 721.332 153.418C721.808 153.838 722.382 154.048 723.054 154.048C723.605 154.048 724.062 153.922 724.426 153.67C724.8 153.409 725.061 153.063 725.21 152.634H726.582C726.377 153.371 725.966 153.973 725.35 154.44C724.734 154.897 723.969 155.126 723.054 155.126C722.326 155.126 721.673 154.963 721.094 154.636C720.525 154.309 720.077 153.847 719.75 153.25C719.424 152.643 719.26 151.943 719.26 151.15C719.26 150.357 719.419 149.661 719.736 149.064C720.054 148.467 720.497 148.009 721.066 147.692C721.645 147.365 722.308 147.202 723.054 147.202C723.782 147.202 724.426 147.361 724.986 147.678C725.546 147.995 725.976 148.434 726.274 148.994C726.582 149.545 726.736 150.17 726.736 150.87ZM725.42 150.604C725.42 150.119 725.313 149.703 725.098 149.358C724.884 149.003 724.59 148.737 724.216 148.56C723.852 148.373 723.446 148.28 722.998 148.28C722.354 148.28 721.804 148.485 721.346 148.896C720.898 149.307 720.642 149.876 720.576 150.604H725.42ZM733.424 148.574C733.648 148.135 733.966 147.795 734.376 147.552C734.796 147.309 735.305 147.188 735.902 147.188V148.504H735.566C734.138 148.504 733.424 149.279 733.424 150.828V155H732.15V147.328H733.424V148.574ZM744.373 150.87C744.373 151.113 744.359 151.369 744.331 151.64H738.199C738.246 152.396 738.502 152.989 738.969 153.418C739.445 153.838 740.019 154.048 740.691 154.048C741.242 154.048 741.699 153.922 742.063 153.67C742.436 153.409 742.698 153.063 742.847 152.634H744.219C744.014 153.371 743.603 153.973 742.987 154.44C742.371 154.897 741.606 155.126 740.691 155.126C739.963 155.126 739.31 154.963 738.731 154.636C738.162 154.309 737.714 153.847 737.387 153.25C737.06 152.643 736.897 151.943 736.897 151.15C736.897 150.357 737.056 149.661 737.373 149.064C737.69 148.467 738.134 148.009 738.703 147.692C739.282 147.365 739.944 147.202 740.691 147.202C741.419 147.202 742.063 147.361 742.623 147.678C743.183 147.995 743.612 148.434 743.911 148.994C744.219 149.545 744.373 150.17 744.373 150.87ZM743.057 150.604C743.057 150.119 742.95 149.703 742.735 149.358C742.52 149.003 742.226 148.737 741.853 148.56C741.489 148.373 741.083 148.28 740.635 148.28C739.991 148.28 739.44 148.485 738.983 148.896C738.535 149.307 738.278 149.876 738.213 150.604H743.057ZM752.859 147.328V155H751.585V153.866C751.342 154.258 751.001 154.566 750.563 154.79C750.133 155.005 749.657 155.112 749.135 155.112C748.537 155.112 748.001 154.991 747.525 154.748C747.049 154.496 746.671 154.123 746.391 153.628C746.12 153.133 745.985 152.531 745.985 151.822V147.328H747.245V151.654C747.245 152.41 747.436 152.993 747.819 153.404C748.201 153.805 748.724 154.006 749.387 154.006C750.068 154.006 750.605 153.796 750.997 153.376C751.389 152.956 751.585 152.345 751.585 151.542V147.328H752.859ZM756.284 148.574C756.508 148.135 756.825 147.795 757.236 147.552C757.656 147.309 758.164 147.188 758.762 147.188V148.504H758.426C756.998 148.504 756.284 149.279 756.284 150.828V155H755.01V147.328H756.284V148.574ZM763.97 147.188C764.904 147.188 765.66 147.473 766.238 148.042C766.817 148.602 767.106 149.414 767.106 150.478V155H765.846V150.66C765.846 149.895 765.655 149.311 765.272 148.91C764.89 148.499 764.367 148.294 763.704 148.294C763.032 148.294 762.496 148.504 762.094 148.924C761.702 149.344 761.506 149.955 761.506 150.758V155H760.232V147.328H761.506V148.42C761.758 148.028 762.099 147.725 762.528 147.51C762.967 147.295 763.448 147.188 763.97 147.188ZM782.146 147.188C782.743 147.188 783.275 147.314 783.742 147.566C784.208 147.809 784.577 148.177 784.848 148.672C785.118 149.167 785.254 149.769 785.254 150.478V155H783.994V150.66C783.994 149.895 783.802 149.311 783.42 148.91C783.046 148.499 782.538 148.294 781.894 148.294C781.231 148.294 780.704 148.509 780.312 148.938C779.92 149.358 779.724 149.969 779.724 150.772V155H778.464V150.66C778.464 149.895 778.272 149.311 777.89 148.91C777.516 148.499 777.008 148.294 776.364 148.294C775.701 148.294 775.174 148.509 774.782 148.938C774.39 149.358 774.194 149.969 774.194 150.772V155H772.92V147.328H774.194V148.434C774.446 148.033 774.782 147.725 775.202 147.51C775.631 147.295 776.102 147.188 776.616 147.188C777.26 147.188 777.829 147.333 778.324 147.622C778.818 147.911 779.187 148.336 779.43 148.896C779.644 148.355 779.999 147.935 780.494 147.636C780.988 147.337 781.539 147.188 782.146 147.188ZM790.69 155.126C789.971 155.126 789.318 154.963 788.73 154.636C788.151 154.309 787.694 153.847 787.358 153.25C787.031 152.643 786.868 151.943 786.868 151.15C786.868 150.366 787.036 149.675 787.372 149.078C787.717 148.471 788.184 148.009 788.772 147.692C789.36 147.365 790.018 147.202 790.746 147.202C791.474 147.202 792.132 147.365 792.72 147.692C793.308 148.009 793.77 148.467 794.106 149.064C794.451 149.661 794.624 150.357 794.624 151.15C794.624 151.943 794.446 152.643 794.092 153.25C793.746 153.847 793.275 154.309 792.678 154.636C792.08 154.963 791.418 155.126 790.69 155.126ZM790.69 154.006C791.147 154.006 791.576 153.899 791.978 153.684C792.379 153.469 792.701 153.147 792.944 152.718C793.196 152.289 793.322 151.766 793.322 151.15C793.322 150.534 793.2 150.011 792.958 149.582C792.715 149.153 792.398 148.835 792.006 148.63C791.614 148.415 791.189 148.308 790.732 148.308C790.265 148.308 789.836 148.415 789.444 148.63C789.061 148.835 788.753 149.153 788.52 149.582C788.286 150.011 788.17 150.534 788.17 151.15C788.17 151.775 788.282 152.303 788.506 152.732C788.739 153.161 789.047 153.483 789.43 153.698C789.812 153.903 790.232 154.006 790.69 154.006ZM800.037 147.188C800.97 147.188 801.726 147.473 802.305 148.042C802.883 148.602 803.173 149.414 803.173 150.478V155H801.913V150.66C801.913 149.895 801.721 149.311 801.339 148.91C800.956 148.499 800.433 148.294 799.771 148.294C799.099 148.294 798.562 148.504 798.161 148.924C797.769 149.344 797.573 149.955 797.573 150.758V155H796.299V147.328H797.573V148.42C797.825 148.028 798.165 147.725 798.595 147.51C799.033 147.295 799.514 147.188 800.037 147.188ZM812.254 150.87C812.254 151.113 812.24 151.369 812.212 151.64H806.08C806.126 152.396 806.383 152.989 806.85 153.418C807.326 153.838 807.9 154.048 808.572 154.048C809.122 154.048 809.58 153.922 809.944 153.67C810.317 153.409 810.578 153.063 810.728 152.634H812.1C811.894 153.371 811.484 153.973 810.868 154.44C810.252 154.897 809.486 155.126 808.572 155.126C807.844 155.126 807.19 154.963 806.612 154.636C806.042 154.309 805.594 153.847 805.268 153.25C804.941 152.643 804.778 151.943 804.778 151.15C804.778 150.357 804.936 149.661 805.254 149.064C805.571 148.467 806.014 148.009 806.584 147.692C807.162 147.365 807.825 147.202 808.572 147.202C809.3 147.202 809.944 147.361 810.504 147.678C811.064 147.995 811.493 148.434 811.792 148.994C812.1 149.545 812.254 150.17 812.254 150.87ZM810.938 150.604C810.938 150.119 810.83 149.703 810.616 149.358C810.401 149.003 810.107 148.737 809.734 148.56C809.37 148.373 808.964 148.28 808.516 148.28C807.872 148.28 807.321 148.485 806.864 148.896C806.416 149.307 806.159 149.876 806.094 150.604H810.938ZM820.543 147.328L815.923 158.612H814.607L816.119 154.916L813.025 147.328H814.439L816.847 153.544L819.227 147.328H820.543ZM835.777 147.328L833.383 155H832.067L830.219 148.91L828.371 155H827.055L824.647 147.328H825.949L827.713 153.768L829.617 147.328H830.919L832.781 153.782L834.517 147.328H835.777ZM837.699 146.082C837.456 146.082 837.251 145.998 837.083 145.83C836.915 145.662 836.831 145.457 836.831 145.214C836.831 144.971 836.915 144.766 837.083 144.598C837.251 144.43 837.456 144.346 837.699 144.346C837.932 144.346 838.128 144.43 838.287 144.598C838.455 144.766 838.539 144.971 838.539 145.214C838.539 145.457 838.455 145.662 838.287 145.83C838.128 145.998 837.932 146.082 837.699 146.082ZM838.315 147.328V155H837.041V147.328H838.315ZM842.04 148.378V152.9C842.04 153.273 842.12 153.539 842.278 153.698C842.437 153.847 842.712 153.922 843.104 153.922H844.042V155H842.894C842.185 155 841.653 154.837 841.298 154.51C840.944 154.183 840.766 153.647 840.766 152.9V148.378H839.772V147.328H840.766V145.396H842.04V147.328H844.042V148.378H842.04ZM849.394 147.188C849.972 147.188 850.495 147.314 850.962 147.566C851.428 147.809 851.792 148.177 852.054 148.672C852.324 149.167 852.46 149.769 852.46 150.478V155H851.2V150.66C851.2 149.895 851.008 149.311 850.626 148.91C850.243 148.499 849.72 148.294 849.058 148.294C848.386 148.294 847.849 148.504 847.448 148.924C847.056 149.344 846.86 149.955 846.86 150.758V155H845.586V144.64H846.86V148.42C847.112 148.028 847.457 147.725 847.896 147.51C848.344 147.295 848.843 147.188 849.394 147.188ZM855.199 146.082C854.956 146.082 854.751 145.998 854.583 145.83C854.415 145.662 854.331 145.457 854.331 145.214C854.331 144.971 854.415 144.766 854.583 144.598C854.751 144.43 854.956 144.346 855.199 144.346C855.432 144.346 855.628 144.43 855.787 144.598C855.955 144.766 856.039 144.971 856.039 145.214C856.039 145.457 855.955 145.662 855.787 145.83C855.628 145.998 855.432 146.082 855.199 146.082ZM855.815 147.328V155H854.541V147.328H855.815ZM861.724 147.188C862.658 147.188 863.414 147.473 863.992 148.042C864.571 148.602 864.86 149.414 864.86 150.478V155H863.6V150.66C863.6 149.895 863.409 149.311 863.026 148.91C862.644 148.499 862.121 148.294 861.458 148.294C860.786 148.294 860.25 148.504 859.848 148.924C859.456 149.344 859.26 149.955 859.26 150.758V155H857.986V147.328H859.26V148.42C859.512 148.028 859.853 147.725 860.282 147.51C860.721 147.295 861.202 147.188 861.724 147.188ZM870.436 147.426C870.501 146.567 870.832 145.895 871.43 145.41C872.027 144.925 872.802 144.682 873.754 144.682C874.388 144.682 874.934 144.799 875.392 145.032C875.858 145.256 876.208 145.564 876.442 145.956C876.684 146.348 876.806 146.791 876.806 147.286C876.806 147.865 876.638 148.364 876.302 148.784C875.975 149.204 875.546 149.475 875.014 149.596V149.666C875.62 149.815 876.101 150.109 876.456 150.548C876.81 150.987 876.988 151.561 876.988 152.27C876.988 152.802 876.866 153.283 876.624 153.712C876.381 154.132 876.017 154.463 875.532 154.706C875.046 154.949 874.463 155.07 873.782 155.07C872.792 155.07 871.98 154.813 871.346 154.3C870.711 153.777 870.356 153.04 870.282 152.088H871.514C871.579 152.648 871.808 153.105 872.2 153.46C872.592 153.815 873.114 153.992 873.768 153.992C874.421 153.992 874.916 153.824 875.252 153.488C875.597 153.143 875.77 152.699 875.77 152.158C875.77 151.458 875.536 150.954 875.07 150.646C874.603 150.338 873.898 150.184 872.956 150.184H872.634V149.12H872.97C873.828 149.111 874.477 148.971 874.916 148.7C875.354 148.42 875.574 147.991 875.574 147.412C875.574 146.917 875.41 146.521 875.084 146.222C874.766 145.923 874.309 145.774 873.712 145.774C873.133 145.774 872.666 145.923 872.312 146.222C871.957 146.521 871.747 146.922 871.682 147.426H870.436ZM878.708 149.834C878.708 148.229 878.969 146.978 879.492 146.082C880.015 145.177 880.929 144.724 882.236 144.724C883.533 144.724 884.443 145.177 884.966 146.082C885.489 146.978 885.75 148.229 885.75 149.834C885.75 151.467 885.489 152.737 884.966 153.642C884.443 154.547 883.533 155 882.236 155C880.929 155 880.015 154.547 879.492 153.642C878.969 152.737 878.708 151.467 878.708 149.834ZM884.49 149.834C884.49 149.022 884.434 148.336 884.322 147.776C884.219 147.207 884 146.749 883.664 146.404C883.337 146.059 882.861 145.886 882.236 145.886C881.601 145.886 881.116 146.059 880.78 146.404C880.453 146.749 880.234 147.207 880.122 147.776C880.019 148.336 879.968 149.022 879.968 149.834C879.968 150.674 880.019 151.379 880.122 151.948C880.234 152.517 880.453 152.975 880.78 153.32C881.116 153.665 881.601 153.838 882.236 153.838C882.861 153.838 883.337 153.665 883.664 153.32C884 152.975 884.219 152.517 884.322 151.948C884.434 151.379 884.49 150.674 884.49 149.834ZM890.965 151.136C890.965 150.352 891.124 149.666 891.441 149.078C891.759 148.481 892.193 148.019 892.743 147.692C893.303 147.365 893.929 147.202 894.619 147.202C895.217 147.202 895.772 147.342 896.285 147.622C896.799 147.893 897.191 148.252 897.461 148.7V144.64H898.749V155H897.461V153.558C897.209 154.015 896.836 154.393 896.341 154.692C895.847 154.981 895.268 155.126 894.605 155.126C893.924 155.126 893.303 154.958 892.743 154.622C892.193 154.286 891.759 153.815 891.441 153.208C891.124 152.601 890.965 151.911 890.965 151.136ZM897.461 151.15C897.461 150.571 897.345 150.067 897.111 149.638C896.878 149.209 896.561 148.882 896.159 148.658C895.767 148.425 895.333 148.308 894.857 148.308C894.381 148.308 893.947 148.42 893.555 148.644C893.163 148.868 892.851 149.195 892.617 149.624C892.384 150.053 892.267 150.557 892.267 151.136C892.267 151.724 892.384 152.237 892.617 152.676C892.851 153.105 893.163 153.437 893.555 153.67C893.947 153.894 894.381 154.006 894.857 154.006C895.333 154.006 895.767 153.894 896.159 153.67C896.561 153.437 896.878 153.105 897.111 152.676C897.345 152.237 897.461 151.729 897.461 151.15ZM900.426 151.136C900.426 150.352 900.585 149.666 900.902 149.078C901.22 148.481 901.654 148.019 902.204 147.692C902.764 147.365 903.385 147.202 904.066 147.202C904.738 147.202 905.322 147.347 905.816 147.636C906.311 147.925 906.68 148.289 906.922 148.728V147.328H908.21V155H906.922V153.572C906.67 154.02 906.292 154.393 905.788 154.692C905.294 154.981 904.715 155.126 904.052 155.126C903.371 155.126 902.755 154.958 902.204 154.622C901.654 154.286 901.22 153.815 900.902 153.208C900.585 152.601 900.426 151.911 900.426 151.136ZM906.922 151.15C906.922 150.571 906.806 150.067 906.572 149.638C906.339 149.209 906.022 148.882 905.62 148.658C905.228 148.425 904.794 148.308 904.318 148.308C903.842 148.308 903.408 148.42 903.016 148.644C902.624 148.868 902.312 149.195 902.078 149.624C901.845 150.053 901.728 150.557 901.728 151.136C901.728 151.724 901.845 152.237 902.078 152.676C902.312 153.105 902.624 153.437 903.016 153.67C903.408 153.894 903.842 154.006 904.318 154.006C904.794 154.006 905.228 153.894 905.62 153.67C906.022 153.437 906.339 153.105 906.572 152.676C906.806 152.237 906.922 151.729 906.922 151.15ZM916.971 147.328L912.351 158.612H911.035L912.547 154.916L909.453 147.328H910.867L913.275 153.544L915.655 147.328H916.971ZM920.968 155.126C920.38 155.126 919.852 155.028 919.386 154.832C918.919 154.627 918.55 154.347 918.28 153.992C918.009 153.628 917.86 153.213 917.832 152.746H919.148C919.185 153.129 919.362 153.441 919.68 153.684C920.006 153.927 920.431 154.048 920.954 154.048C921.439 154.048 921.822 153.941 922.102 153.726C922.382 153.511 922.522 153.241 922.522 152.914C922.522 152.578 922.372 152.331 922.074 152.172C921.775 152.004 921.313 151.841 920.688 151.682C920.118 151.533 919.652 151.383 919.288 151.234C918.933 151.075 918.625 150.847 918.364 150.548C918.112 150.24 917.986 149.839 917.986 149.344C917.986 148.952 918.102 148.593 918.336 148.266C918.569 147.939 918.9 147.683 919.33 147.496C919.759 147.3 920.249 147.202 920.8 147.202C921.649 147.202 922.335 147.417 922.858 147.846C923.38 148.275 923.66 148.863 923.698 149.61H922.424C922.396 149.209 922.232 148.887 921.934 148.644C921.644 148.401 921.252 148.28 920.758 148.28C920.3 148.28 919.936 148.378 919.666 148.574C919.395 148.77 919.26 149.027 919.26 149.344C919.26 149.596 919.339 149.806 919.498 149.974C919.666 150.133 919.871 150.263 920.114 150.366C920.366 150.459 920.711 150.567 921.15 150.688C921.7 150.837 922.148 150.987 922.494 151.136C922.839 151.276 923.133 151.491 923.376 151.78C923.628 152.069 923.758 152.447 923.768 152.914C923.768 153.334 923.651 153.712 923.418 154.048C923.184 154.384 922.853 154.65 922.424 154.846C922.004 155.033 921.518 155.126 920.968 155.126Z" fill="black"/>
<defs>
<clipPath id="clip0_120_1579">
<rect width="40" height="40" fill="white" transform="translate(104.5 20)"/>
</clipPath>
<clipPath id="clip1_120_1579">
<rect width="40" height="40" fill="white" transform="translate(448 20)"/>
</clipPath>
</defs>
</svg>
