<svg width="186" height="40" viewBox="0 0 186 40" fill="none" xmlns="http://www.w3.org/2000/svg">
<rect width="20" height="40" rx="4" fill="#DB4444"/>
<path d="M44.704 14.832V16.64H41.728V26H39.488V16.64H36.512V14.832H44.704ZM50.2744 26.144C49.421 26.144 48.653 25.9573 47.9704 25.584C47.2877 25.2 46.749 24.6613 46.3544 23.968C45.9704 23.2747 45.7784 22.4747 45.7784 21.568C45.7784 20.6613 45.9757 19.8613 46.3704 19.168C46.7757 18.4747 47.325 17.9413 48.0184 17.568C48.7117 17.184 49.485 16.992 50.3384 16.992C51.1917 16.992 51.965 17.184 52.6584 17.568C53.3517 17.9413 53.8957 18.4747 54.2904 19.168C54.6957 19.8613 54.8984 20.6613 54.8984 21.568C54.8984 22.4747 54.6904 23.2747 54.2744 23.968C53.869 24.6613 53.3144 25.2 52.6104 25.584C51.917 25.9573 51.1384 26.144 50.2744 26.144ZM50.2744 24.192C50.6797 24.192 51.0584 24.096 51.4104 23.904C51.773 23.7013 52.061 23.4027 52.2744 23.008C52.4877 22.6133 52.5944 22.1333 52.5944 21.568C52.5944 20.7253 52.3704 20.08 51.9224 19.632C51.485 19.1733 50.9464 18.944 50.3064 18.944C49.6664 18.944 49.1277 19.1733 48.6904 19.632C48.2637 20.08 48.0504 20.7253 48.0504 21.568C48.0504 22.4107 48.2584 23.0613 48.6744 23.52C49.101 23.968 49.6344 24.192 50.2744 24.192ZM55.9655 21.536C55.9655 20.64 56.1415 19.8453 56.4935 19.152C56.8562 18.4587 57.3468 17.9253 57.9655 17.552C58.5842 17.1787 59.2722 16.992 60.0295 16.992C60.6055 16.992 61.1548 17.12 61.6775 17.376C62.2002 17.6213 62.6162 17.952 62.9255 18.368V14.16H65.1975V26H62.9255V24.688C62.6482 25.1253 62.2588 25.4773 61.7575 25.744C61.2562 26.0107 60.6748 26.144 60.0135 26.144C59.2668 26.144 58.5842 25.952 57.9655 25.568C57.3468 25.184 56.8562 24.6453 56.4935 23.952C56.1415 23.248 55.9655 22.4427 55.9655 21.536ZM62.9415 21.568C62.9415 21.024 62.8348 20.56 62.6215 20.176C62.4082 19.7813 62.1202 19.4827 61.7575 19.28C61.3948 19.0667 61.0055 18.96 60.5895 18.96C60.1735 18.96 59.7895 19.0613 59.4375 19.264C59.0855 19.4667 58.7975 19.7653 58.5735 20.16C58.3602 20.544 58.2535 21.0027 58.2535 21.536C58.2535 22.0693 58.3602 22.5387 58.5735 22.944C58.7975 23.3387 59.0855 23.6427 59.4375 23.856C59.8002 24.0693 60.1842 24.176 60.5895 24.176C61.0055 24.176 61.3948 24.0747 61.7575 23.872C62.1202 23.6587 62.4082 23.36 62.6215 22.976C62.8348 22.5813 62.9415 22.112 62.9415 21.568ZM71.3213 26.144C70.4679 26.144 69.6999 25.9573 69.0173 25.584C68.3346 25.2 67.7959 24.6613 67.4013 23.968C67.0173 23.2747 66.8253 22.4747 66.8253 21.568C66.8253 20.6613 67.0226 19.8613 67.4173 19.168C67.8226 18.4747 68.3719 17.9413 69.0653 17.568C69.7586 17.184 70.5319 16.992 71.3853 16.992C72.2386 16.992 73.0119 17.184 73.7053 17.568C74.3986 17.9413 74.9426 18.4747 75.3373 19.168C75.7426 19.8613 75.9453 20.6613 75.9453 21.568C75.9453 22.4747 75.7373 23.2747 75.3212 23.968C74.9159 24.6613 74.3613 25.2 73.6573 25.584C72.9639 25.9573 72.1853 26.144 71.3213 26.144ZM71.3213 24.192C71.7266 24.192 72.1053 24.096 72.4573 23.904C72.8199 23.7013 73.1079 23.4027 73.3213 23.008C73.5346 22.6133 73.6413 22.1333 73.6413 21.568C73.6413 20.7253 73.4173 20.08 72.9693 19.632C72.5319 19.1733 71.9933 18.944 71.3533 18.944C70.7133 18.944 70.1746 19.1733 69.7373 19.632C69.3106 20.08 69.0973 20.7253 69.0973 21.568C69.0973 22.4107 69.3053 23.0613 69.7213 23.52C70.1479 23.968 70.6813 24.192 71.3213 24.192ZM80.9804 26.144C80.255 26.144 79.6044 26.016 79.0284 25.76C78.4524 25.4933 77.9937 25.136 77.6524 24.688C77.3217 24.24 77.1404 23.744 77.1084 23.2H79.3644C79.407 23.5413 79.5724 23.824 79.8604 24.048C80.159 24.272 80.527 24.384 80.9644 24.384C81.391 24.384 81.7217 24.2987 81.9564 24.128C82.2017 23.9573 82.3244 23.7387 82.3244 23.472C82.3244 23.184 82.175 22.9707 81.8764 22.832C81.5884 22.6827 81.1244 22.5227 80.4844 22.352C79.823 22.192 79.279 22.0267 78.8524 21.856C78.4364 21.6853 78.0737 21.424 77.7644 21.072C77.4657 20.72 77.3164 20.2453 77.3164 19.648C77.3164 19.1573 77.455 18.7093 77.7324 18.304C78.0204 17.8987 78.4257 17.5787 78.9484 17.344C79.4817 17.1093 80.1057 16.992 80.8204 16.992C81.8764 16.992 82.719 17.2587 83.3484 17.792C83.9777 18.3147 84.3244 19.024 84.3884 19.92H82.2444C82.2124 19.568 82.063 19.2907 81.7964 19.088C81.5404 18.8747 81.1937 18.768 80.7564 18.768C80.351 18.768 80.0364 18.8427 79.8124 18.992C79.599 19.1413 79.4924 19.3493 79.4924 19.616C79.4924 19.9147 79.6417 20.144 79.9404 20.304C80.239 20.4533 80.703 20.608 81.3324 20.768C81.9724 20.928 82.5004 21.0933 82.9164 21.264C83.3324 21.4347 83.6897 21.7013 83.9884 22.064C84.2977 22.416 84.4577 22.8853 84.4684 23.472C84.4684 23.984 84.3244 24.4427 84.0364 24.848C83.759 25.2533 83.3537 25.5733 82.8204 25.808C82.2977 26.032 81.6844 26.144 80.9804 26.144ZM94.0556 26.144C93.2023 26.144 92.4343 25.9573 91.7516 25.584C91.069 25.2 90.5303 24.6613 90.1356 23.968C89.7516 23.2747 89.5596 22.4747 89.5596 21.568C89.5596 20.6613 89.757 19.8613 90.1516 19.168C90.557 18.4747 91.1063 17.9413 91.7996 17.568C92.493 17.184 93.2663 16.992 94.1196 16.992C94.973 16.992 95.7463 17.184 96.4396 17.568C97.133 17.9413 97.677 18.4747 98.0716 19.168C98.477 19.8613 98.6796 20.6613 98.6796 21.568C98.6796 22.4747 98.4716 23.2747 98.0556 23.968C97.6503 24.6613 97.0956 25.2 96.3916 25.584C95.6983 25.9573 94.9196 26.144 94.0556 26.144ZM94.0556 24.192C94.461 24.192 94.8396 24.096 95.1916 23.904C95.5543 23.7013 95.8423 23.4027 96.0556 23.008C96.269 22.6133 96.3756 22.1333 96.3756 21.568C96.3756 20.7253 96.1516 20.08 95.7036 19.632C95.2663 19.1733 94.7276 18.944 94.0876 18.944C93.4476 18.944 92.909 19.1733 92.4716 19.632C92.045 20.08 91.8316 20.7253 91.8316 21.568C91.8316 22.4107 92.0396 23.0613 92.4556 23.52C92.8823 23.968 93.4156 24.192 94.0556 24.192ZM103.715 26.144C102.989 26.144 102.339 26.016 101.763 25.76C101.187 25.4933 100.728 25.136 100.387 24.688C100.056 24.24 99.8748 23.744 99.8428 23.2H102.099C102.141 23.5413 102.307 23.824 102.595 24.048C102.893 24.272 103.261 24.384 103.699 24.384C104.125 24.384 104.456 24.2987 104.691 24.128C104.936 23.9573 105.059 23.7387 105.059 23.472C105.059 23.184 104.909 22.9707 104.611 22.832C104.323 22.6827 103.859 22.5227 103.219 22.352C102.557 22.192 102.013 22.0267 101.587 21.856C101.171 21.6853 100.808 21.424 100.499 21.072C100.2 20.72 100.051 20.2453 100.051 19.648C100.051 19.1573 100.189 18.7093 100.467 18.304C100.755 17.8987 101.16 17.5787 101.683 17.344C102.216 17.1093 102.84 16.992 103.555 16.992C104.611 16.992 105.453 17.2587 106.083 17.792C106.712 18.3147 107.059 19.024 107.123 19.92H104.979C104.947 19.568 104.797 19.2907 104.531 19.088C104.275 18.8747 103.928 18.768 103.491 18.768C103.085 18.768 102.771 18.8427 102.547 18.992C102.333 19.1413 102.227 19.3493 102.227 19.616C102.227 19.9147 102.376 20.144 102.675 20.304C102.973 20.4533 103.437 20.608 104.067 20.768C104.707 20.928 105.235 21.0933 105.651 21.264C106.067 21.4347 106.424 21.7013 106.723 22.064C107.032 22.416 107.192 22.8853 107.203 23.472C107.203 23.984 107.059 24.4427 106.771 24.848C106.493 25.2533 106.088 25.5733 105.555 25.808C105.032 26.032 104.419 26.144 103.715 26.144ZM115.094 18.416C115.382 18.0107 115.777 17.6747 116.278 17.408C116.79 17.1307 117.371 16.992 118.022 16.992C118.779 16.992 119.462 17.1787 120.07 17.552C120.689 17.9253 121.174 18.4587 121.526 19.152C121.889 19.8347 122.07 20.6293 122.07 21.536C122.07 22.4427 121.889 23.248 121.526 23.952C121.174 24.6453 120.689 25.184 120.07 25.568C119.462 25.952 118.779 26.144 118.022 26.144C117.371 26.144 116.795 26.0107 116.294 25.744C115.803 25.4773 115.403 25.1413 115.094 24.736V30.224H112.854V17.136H115.094V18.416ZM119.782 21.536C119.782 21.0027 119.67 20.544 119.446 20.16C119.233 19.7653 118.945 19.4667 118.582 19.264C118.23 19.0613 117.846 18.96 117.43 18.96C117.025 18.96 116.641 19.0667 116.278 19.28C115.926 19.4827 115.638 19.7813 115.414 20.176C115.201 20.5707 115.094 21.0347 115.094 21.568C115.094 22.1013 115.201 22.5653 115.414 22.96C115.638 23.3547 115.926 23.6587 116.278 23.872C116.641 24.0747 117.025 24.176 117.43 24.176C117.846 24.176 118.23 24.0693 118.582 23.856C118.945 23.6427 119.233 23.3387 119.446 22.944C119.67 22.5493 119.782 22.08 119.782 21.536ZM125.938 18.512C126.226 18.0427 126.599 17.6747 127.058 17.408C127.527 17.1413 128.06 17.008 128.658 17.008V19.36H128.066C127.362 19.36 126.828 19.5253 126.466 19.856C126.114 20.1867 125.938 20.7627 125.938 21.584V26H123.698V17.136H125.938V18.512ZM134.103 26.144C133.249 26.144 132.481 25.9573 131.799 25.584C131.116 25.2 130.577 24.6613 130.183 23.968C129.799 23.2747 129.607 22.4747 129.607 21.568C129.607 20.6613 129.804 19.8613 130.199 19.168C130.604 18.4747 131.153 17.9413 131.847 17.568C132.54 17.184 133.313 16.992 134.167 16.992C135.02 16.992 135.793 17.184 136.487 17.568C137.18 17.9413 137.724 18.4747 138.119 19.168C138.524 19.8613 138.727 20.6613 138.727 21.568C138.727 22.4747 138.519 23.2747 138.102 23.968C137.697 24.6613 137.143 25.2 136.439 25.584C135.745 25.9573 134.967 26.144 134.103 26.144ZM134.103 24.192C134.508 24.192 134.887 24.096 135.239 23.904C135.601 23.7013 135.889 23.4027 136.103 23.008C136.316 22.6133 136.423 22.1333 136.423 21.568C136.423 20.7253 136.199 20.08 135.751 19.632C135.313 19.1733 134.775 18.944 134.135 18.944C133.495 18.944 132.956 19.1733 132.519 19.632C132.092 20.08 131.879 20.7253 131.879 21.568C131.879 22.4107 132.087 23.0613 132.503 23.52C132.929 23.968 133.463 24.192 134.103 24.192ZM139.794 21.536C139.794 20.64 139.97 19.8453 140.322 19.152C140.684 18.4587 141.175 17.9253 141.794 17.552C142.412 17.1787 143.1 16.992 143.858 16.992C144.434 16.992 144.983 17.12 145.506 17.376C146.028 17.6213 146.444 17.952 146.754 18.368V14.16H149.026V26H146.754V24.688C146.476 25.1253 146.087 25.4773 145.586 25.744C145.084 26.0107 144.503 26.144 143.842 26.144C143.095 26.144 142.412 25.952 141.794 25.568C141.175 25.184 140.684 24.6453 140.322 23.952C139.97 23.248 139.794 22.4427 139.794 21.536ZM146.77 21.568C146.77 21.024 146.663 20.56 146.45 20.176C146.236 19.7813 145.948 19.4827 145.586 19.28C145.223 19.0667 144.834 18.96 144.418 18.96C144.002 18.96 143.618 19.0613 143.266 19.264C142.914 19.4667 142.626 19.7653 142.402 20.16C142.188 20.544 142.082 21.0027 142.082 21.536C142.082 22.0693 142.188 22.5387 142.402 22.944C142.626 23.3387 142.914 23.6427 143.266 23.856C143.628 24.0693 144.012 24.176 144.418 24.176C144.834 24.176 145.223 24.0747 145.586 23.872C145.948 23.6587 146.236 23.36 146.45 22.976C146.663 22.5813 146.77 22.112 146.77 21.568ZM159.581 17.136V26H157.325V24.88C157.037 25.264 156.659 25.568 156.189 25.792C155.731 26.0053 155.229 26.112 154.685 26.112C153.992 26.112 153.379 25.968 152.845 25.68C152.312 25.3813 151.891 24.9493 151.581 24.384C151.283 23.808 151.133 23.1253 151.133 22.336V17.136H153.373V22.016C153.373 22.72 153.549 23.264 153.901 23.648C154.253 24.0213 154.733 24.208 155.341 24.208C155.96 24.208 156.445 24.0213 156.797 23.648C157.149 23.264 157.325 22.72 157.325 22.016V17.136H159.581ZM164.4 18.976V23.264C164.4 23.5627 164.469 23.7813 164.608 23.92C164.757 24.048 165.002 24.112 165.344 24.112H166.384V26H164.976C163.088 26 162.144 25.0827 162.144 23.248V18.976H161.088V17.136H162.144V14.944H164.4V17.136H166.384V18.976H164.4ZM171.931 26.144C171.077 26.144 170.309 25.9573 169.627 25.584C168.944 25.2 168.405 24.6613 168.011 23.968C167.627 23.2747 167.435 22.4747 167.435 21.568C167.435 20.6613 167.632 19.8613 168.027 19.168C168.432 18.4747 168.981 17.9413 169.675 17.568C170.368 17.184 171.141 16.992 171.995 16.992C172.848 16.992 173.621 17.184 174.315 17.568C175.008 17.9413 175.552 18.4747 175.947 19.168C176.352 19.8613 176.555 20.6613 176.555 21.568C176.555 22.4747 176.347 23.2747 175.931 23.968C175.525 24.6613 174.971 25.2 174.267 25.584C173.573 25.9573 172.795 26.144 171.931 26.144ZM171.931 24.192C172.336 24.192 172.715 24.096 173.067 23.904C173.429 23.7013 173.717 23.4027 173.931 23.008C174.144 22.6133 174.251 22.1333 174.251 21.568C174.251 20.7253 174.027 20.08 173.579 19.632C173.141 19.1733 172.603 18.944 171.963 18.944C171.323 18.944 170.784 19.1733 170.347 19.632C169.92 20.08 169.707 20.7253 169.707 21.568C169.707 22.4107 169.915 23.0613 170.331 23.52C170.757 23.968 171.291 24.192 171.931 24.192ZM181.59 26.144C180.864 26.144 180.214 26.016 179.638 25.76C179.062 25.4933 178.603 25.136 178.262 24.688C177.931 24.24 177.75 23.744 177.718 23.2H179.974C180.016 23.5413 180.182 23.824 180.47 24.048C180.768 24.272 181.136 24.384 181.574 24.384C182 24.384 182.331 24.2987 182.566 24.128C182.811 23.9573 182.934 23.7387 182.934 23.472C182.934 23.184 182.784 22.9707 182.486 22.832C182.198 22.6827 181.734 22.5227 181.094 22.352C180.432 22.192 179.888 22.0267 179.462 21.856C179.046 21.6853 178.683 21.424 178.374 21.072C178.075 20.72 177.926 20.2453 177.926 19.648C177.926 19.1573 178.064 18.7093 178.342 18.304C178.63 17.8987 179.035 17.5787 179.558 17.344C180.091 17.1093 180.715 16.992 181.43 16.992C182.486 16.992 183.328 17.2587 183.958 17.792C184.587 18.3147 184.934 19.024 184.998 19.92H182.854C182.822 19.568 182.672 19.2907 182.406 19.088C182.15 18.8747 181.803 18.768 181.366 18.768C180.96 18.768 180.646 18.8427 180.422 18.992C180.208 19.1413 180.102 19.3493 180.102 19.616C180.102 19.9147 180.251 20.144 180.55 20.304C180.848 20.4533 181.312 20.608 181.942 20.768C182.582 20.928 183.11 21.0933 183.526 21.264C183.942 21.4347 184.299 21.7013 184.598 22.064C184.907 22.416 185.067 22.8853 185.078 23.472C185.078 23.984 184.934 24.4427 184.646 24.848C184.368 25.2533 183.963 25.5733 183.43 25.808C182.907 26.032 182.294 26.144 181.59 26.144Z" fill="#DB4444"/>
</svg>
